Grenze-Thin.ufo
<glyph name="exclam" format="2">
  <advance width="221"/>
  <unicode hex="0021"/>
  <outline>
    <contour>
      <point x="105" y="113" type="curve" smooth="yes"/>
      <point x="107" y="113"/>
      <point x="113" y="114"/>
      <point x="118" y="115" type="curve"/>
      <point x="124" y="593" type="line" smooth="yes"/>
      <point x="124" y="594"/>
      <point x="118" y="600"/>
      <point x="117" y="600" type="curve" smooth="yes"/>
      <point x="114" y="600"/>
      <point x="104" y="598"/>
      <point x="95" y="596" type="curve"/>
      <point x="100" y="118" type="line" smooth="yes"/>
      <point x="100" y="117"/>
      <point x="104" y="113"/>
    </contour>
    <contour>
      <point x="101" y="-11" type="curve" smooth="yes"/>
      <point x="111" y="-11"/>
      <point x="120" y="-9"/>
      <point x="129" y="-7" type="curve"/>
      <point x="123" y="64" type="line"/>
      <point x="98" y="64" type="line"/>
      <point x="92" y="0" type="line" smooth="yes"/>
      <point x="92" y="-2"/>
      <point x="98" y="-11"/>
    </contour>
  </outline>
</glyph>
<glyph name="quotedbl" format="2">
  <advance width="242"/>
  <unicode hex="0022"/>
  <outline>
    <contour>
      <point x="54" y="495" type="line"/>
      <point x="76" y="495" type="line"/>
      <point x="80" y="552"/>
      <point x="84" y="613"/>
      <point x="87" y="666" type="curve" smooth="yes"/>
      <point x="87" y="669"/>
      <point x="79" y="679"/>
      <point x="76" y="679" type="curve" smooth="yes"/>
      <point x="66" y="679"/>
      <point x="57" y="677"/>
      <point x="45" y="674" type="curve"/>
    </contour>
    <contour>
      <point x="164" y="495" type="line"/>
      <point x="186" y="495" type="line"/>
      <point x="190" y="552"/>
      <point x="197" y="613"/>
      <point x="197" y="666" type="curve" smooth="yes"/>
      <point x="197" y="669"/>
      <point x="189" y="679"/>
      <point x="186" y="679" type="curve" smooth="yes"/>
      <point x="176" y="679"/>
      <point x="167" y="677"/>
      <point x="155" y="674" type="curve"/>
    </contour>
  </outline>
</glyph>
<glyph name="numbersign" format="2">
  <advance width="548"/>
  <unicode hex="0023"/>
  <outline>
    <contour>
      <point x="303" y="-17" type="line"/>
      <point x="324" y="-17" type="line"/>
      <point x="391" y="486" type="line"/>
      <point x="368" y="486" type="line"/>
    </contour>
    <contour>
      <point x="44" y="137" type="line"/>
      <point x="469" y="137" type="line"/>
      <point x="471" y="159" type="line"/>
      <point x="46" y="159" type="line"/>
    </contour>
    <contour>
      <point x="146" y="-17" type="line"/>
      <point x="168" y="-17" type="line"/>
      <point x="234" y="486" type="line"/>
      <point x="211" y="486" type="line"/>
    </contour>
    <contour>
      <point x="73" y="322" type="line"/>
      <point x="497" y="322" type="line"/>
      <point x="499" y="344" type="line"/>
      <point x="75" y="344" type="line"/>
    </contour>
  </outline>
</glyph>
<glyph name="dollar" format="2">
  <advance width="447"/>
  <unicode hex="0024"/>
  <outline>
    <contour>
      <point x="257" y="-10" type="curve" smooth="yes"/>
      <point x="304" y="-10"/>
      <point x="360" y="52"/>
      <point x="378" y="106" type="curve"/>
      <point x="382" y="121"/>
      <point x="382" y="138"/>
      <point x="382" y="151" type="curve" smooth="yes"/>
      <point x="382" y="214"/>
      <point x="298" y="249"/>
      <point x="224" y="291" type="curve" smooth="yes"/>
      <point x="162" y="326"/>
      <point x="106" y="353"/>
      <point x="106" y="413" type="curve" smooth="yes"/>
      <point x="106" y="472"/>
      <point x="182" y="526"/>
      <point x="202" y="526" type="curve" smooth="yes"/>
      <point x="220" y="526"/>
      <point x="295" y="517"/>
      <point x="325" y="510" type="curve"/>
      <point x="332" y="412" type="line"/>
      <point x="351" y="412" type="line"/>
      <point x="357" y="534" type="line"/>
      <point x="325" y="540"/>
      <point x="233" y="552"/>
      <point x="206" y="552" type="curve" smooth="yes"/>
      <point x="172" y="552"/>
      <point x="106" y="499"/>
      <point x="82" y="450" type="curve"/>
      <point x="78" y="434"/>
      <point x="76" y="420"/>
      <point x="76" y="404" type="curve" smooth="yes"/>
      <point x="76" y="338"/>
      <point x="142" y="304"/>
      <point x="210" y="266" type="curve" smooth="yes"/>
      <point x="280" y="227"/>
      <point x="352" y="197"/>
      <point x="352" y="138" type="curve" smooth="yes"/>
      <point x="352" y="76"/>
      <point x="291" y="17"/>
      <point x="261" y="17" type="curve" smooth="yes"/>
      <point x="230" y="17"/>
      <point x="144" y="24"/>
      <point x="106" y="30" type="curve"/>
      <point x="95" y="128" type="line"/>
      <point x="76" y="128" type="line"/>
      <point x="75" y="6" type="line"/>
      <point x="120" y="-1"/>
      <point x="230" y="-10"/>
    </contour>
    <contour>
      <point x="211" y="-102" type="line"/>
      <point x="233" y="-102" type="line"/>
      <point x="233" y="5" type="line"/>
      <point x="211" y="5" type="line"/>
    </contour>
    <contour>
      <point x="211" y="541" type="line"/>
      <point x="232" y="541" type="line"/>
      <point x="232" y="647" type="line"/>
      <point x="211" y="647" type="line"/>
    </contour>
  </outline>
</glyph>
<glyph name="percent" format="2">
  <advance width="755"/>
  <unicode hex="0025"/>
  <outline>
    <contour>
      <point x="216" y="-9" type="line"/>
      <point x="244" y="-9" type="line"/>
      <point x="547" y="611" type="line"/>
      <point x="519" y="611" type="line"/>
    </contour>
    <contour>
      <point x="200" y="306" type="curve" smooth="yes"/>
      <point x="273" y="306"/>
      <point x="316" y="368"/>
      <point x="316" y="442" type="curve" smooth="yes"/>
      <point x="316" y="523"/>
      <point x="285" y="580"/>
      <point x="211" y="580" type="curve" smooth="yes"/>
      <point x="138" y="580"/>
      <point x="95" y="518"/>
      <point x="95" y="444" type="curve" smooth="yes"/>
      <point x="95" y="363"/>
      <point x="126" y="306"/>
    </contour>
    <contour>
      <point x="198" y="329" type="curve" smooth="yes"/>
      <point x="140" y="329"/>
      <point x="124" y="384"/>
      <point x="124" y="447" type="curve" smooth="yes"/>
      <point x="124" y="478"/>
      <point x="132" y="512"/>
      <point x="149" y="535" type="curve"/>
      <point x="165" y="552"/>
      <point x="192" y="557"/>
      <point x="213" y="557" type="curve" smooth="yes"/>
      <point x="270" y="557"/>
      <point x="288" y="502"/>
      <point x="288" y="441" type="curve" smooth="yes"/>
      <point x="288" y="409"/>
      <point x="279" y="374"/>
      <point x="262" y="351" type="curve"/>
      <point x="246" y="334"/>
      <point x="219" y="329"/>
    </contour>
    <contour>
      <point x="544" y="-10" type="curve" smooth="yes"/>
      <point x="617" y="-10"/>
      <point x="660" y="52"/>
      <point x="660" y="126" type="curve" smooth="yes"/>
      <point x="660" y="207"/>
      <point x="629" y="264"/>
      <point x="555" y="264" type="curve" smooth="yes"/>
      <point x="482" y="264"/>
      <point x="439" y="202"/>
      <point x="439" y="128" type="curve" smooth="yes"/>
      <point x="439" y="47"/>
      <point x="470" y="-10"/>
    </contour>
    <contour>
      <point x="542" y="13" type="curve" smooth="yes"/>
      <point x="484" y="13"/>
      <point x="468" y="68"/>
      <point x="468" y="131" type="curve" smooth="yes"/>
      <point x="468" y="162"/>
      <point x="476" y="196"/>
      <point x="493" y="219" type="curve"/>
      <point x="509" y="236"/>
      <point x="536" y="241"/>
      <point x="557" y="241" type="curve" smooth="yes"/>
      <point x="614" y="241"/>
      <point x="632" y="186"/>
      <point x="632" y="125" type="curve" smooth="yes"/>
      <point x="632" y="93"/>
      <point x="623" y="58"/>
      <point x="606" y="35" type="curve"/>
      <point x="590" y="18"/>
      <point x="563" y="13"/>
    </contour>
  </outline>
</glyph>
<glyph name="ampersand" format="2">
  <advance width="580"/>
  <unicode hex="0026"/>
  <outline>
    <contour>
      <point x="485" y="0" type="curve"/>
      <point x="555" y="0" type="line"/>
      <point x="555" y="17" type="line"/>
      <point x="491" y="27" type="line"/>
      <point x="383" y="140"/>
      <point x="245" y="297"/>
      <point x="173" y="393" type="curve" smooth="yes"/>
      <point x="147" y="428"/>
      <point x="135" y="457"/>
      <point x="135" y="488" type="curve" smooth="yes"/>
      <point x="135" y="524"/>
      <point x="162" y="553"/>
      <point x="210" y="581" type="curve" smooth="yes"/>
      <point x="234" y="595"/>
      <point x="309" y="585"/>
      <point x="311" y="533" type="curve" smooth="yes"/>
      <point x="315" y="442" type="line"/>
      <point x="331" y="442" type="line"/>
      <point x="334" y="474"/>
      <point x="337" y="523"/>
      <point x="337" y="541" type="curve" smooth="yes"/>
      <point x="337" y="589"/>
      <point x="291" y="611"/>
      <point x="219" y="611" type="curve" smooth="yes"/>
      <point x="204" y="611"/>
      <point x="132" y="557"/>
      <point x="114" y="523" type="curve"/>
      <point x="110" y="513"/>
      <point x="108" y="498"/>
      <point x="108" y="484" type="curve" smooth="yes"/>
      <point x="108" y="443"/>
      <point x="127" y="411"/>
      <point x="151" y="380" type="curve" smooth="yes"/>
      <point x="195" y="323"/>
      <point x="425" y="52"/>
    </contour>
    <contour>
      <point x="201" y="-9" type="curve" smooth="yes"/>
      <point x="223" y="-9"/>
      <point x="289" y="8"/>
      <point x="305" y="31" type="curve" smooth="yes"/>
      <point x="360" y="110"/>
      <point x="453" y="273"/>
      <point x="501" y="353" type="curve"/>
      <point x="472" y="353" type="line"/>
      <point x="429" y="272"/>
      <point x="300" y="42"/>
      <point x="269" y="28" type="curve" smooth="yes"/>
      <point x="247" y="18"/>
      <point x="220" y="13"/>
      <point x="196" y="13" type="curve" smooth="yes"/>
      <point x="117" y="13"/>
      <point x="66" y="68"/>
      <point x="66" y="158" type="curve" smooth="yes"/>
      <point x="66" y="237"/>
      <point x="111" y="294"/>
      <point x="193" y="343" type="curve"/>
      <point x="180" y="360" type="line"/>
      <point x="91" y="308"/>
      <point x="40" y="240"/>
      <point x="40" y="155" type="curve" smooth="yes"/>
      <point x="40" y="53"/>
      <point x="100" y="-9"/>
    </contour>
    <contour>
      <point x="466" y="325" type="line"/>
      <point x="537" y="336" type="line"/>
      <point x="537" y="353" type="line"/>
      <point x="371" y="353" type="line"/>
      <point x="372" y="336" type="line"/>
    </contour>
  </outline>
</glyph>
<glyph name="quotesingle" format="2">
  <advance width="132"/>
  <unicode hex="0027"/>
  <outline>
    <contour>
      <point x="54" y="495" type="line"/>
      <point x="76" y="495" type="line"/>
      <point x="80" y="552"/>
      <point x="84" y="613"/>
      <point x="87" y="666" type="curve" smooth="yes"/>
      <point x="87" y="669"/>
      <point x="79" y="679"/>
      <point x="76" y="679" type="curve" smooth="yes"/>
      <point x="66" y="679"/>
      <point x="57" y="677"/>
      <point x="45" y="674" type="curve"/>
    </contour>
  </outline>
</glyph>
<glyph name="parenleft" format="2">
  <advance width="217"/>
  <unicode hex="0028"/>
  <outline>
    <contour>
      <point x="165" y="-112" type="curve"/>
      <point x="177" y="-103" type="line"/>
      <point x="107" y="4"/>
      <point x="70" y="147"/>
      <point x="70" y="284" type="curve" smooth="yes"/>
      <point x="70" y="421"/>
      <point x="107" y="564"/>
      <point x="177" y="670" type="curve"/>
      <point x="165" y="680" type="line"/>
      <point x="89" y="580"/>
      <point x="46" y="430"/>
      <point x="46" y="284" type="curve" smooth="yes"/>
      <point x="46" y="138"/>
      <point x="89" y="-12"/>
    </contour>
  </outline>
</glyph>
<glyph name="parenright" format="2">
  <advance width="217"/>
  <unicode hex="0029"/>
  <outline>
    <contour>
      <point x="52" y="-112" type="line"/>
      <point x="128" y="-12"/>
      <point x="171" y="138"/>
      <point x="171" y="284" type="curve" smooth="yes"/>
      <point x="171" y="430"/>
      <point x="128" y="580"/>
      <point x="52" y="680" type="curve"/>
      <point x="40" y="671" type="line"/>
      <point x="110" y="564"/>
      <point x="147" y="421"/>
      <point x="147" y="284" type="curve" smooth="yes"/>
      <point x="147" y="147"/>
      <point x="110" y="4"/>
      <point x="40" y="-102" type="curve"/>
    </contour>
  </outline>
</glyph>
<glyph name="asterisk" format="2">
  <advance width="303"/>
  <unicode hex="002A"/>
  <outline>
    <contour>
      <point x="155" y="400" type="line"/>
      <point x="175" y="403" type="line"/>
      <point x="169" y="521" type="line"/>
      <point x="260" y="459" type="line"/>
      <point x="271" y="461" type="line"/>
      <point x="278" y="479" type="line"/>
      <point x="176" y="533" type="line"/>
      <point x="279" y="584" type="line"/>
      <point x="270" y="603" type="line"/>
      <point x="258" y="605" type="line"/>
      <point x="169" y="545" type="line"/>
      <point x="176" y="659" type="line"/>
      <point x="168" y="667" type="line"/>
      <point x="148" y="665" type="line"/>
      <point x="155" y="545" type="line"/>
      <point x="65" y="605" type="line"/>
      <point x="51" y="603" type="line"/>
      <point x="45" y="584" type="line"/>
      <point x="148" y="533" type="line"/>
      <point x="44" y="479" type="line"/>
      <point x="51" y="461" type="line"/>
      <point x="64" y="459" type="line"/>
      <point x="155" y="521" type="line"/>
      <point x="148" y="410" type="line"/>
    </contour>
  </outline>
</glyph>
<glyph name="plus" format="2">
  <advance width="632"/>
  <unicode hex="002B"/>
  <outline>
    <contour>
      <point x="299" y="33" type="line"/>
      <point x="325" y="33" type="line"/>
      <point x="325" y="474" type="line"/>
      <point x="299" y="474" type="line"/>
    </contour>
    <contour>
      <point x="110" y="242" type="line"/>
      <point x="522" y="242" type="line"/>
      <point x="522" y="266" type="line"/>
      <point x="110" y="266" type="line"/>
    </contour>
  </outline>
</glyph>
<glyph name="comma" format="2">
  <advance width="185"/>
  <unicode hex="002C"/>
  <outline>
    <contour>
      <point x="77" y="-103" type="line"/>
      <point x="103" y="-60"/>
      <point x="125" y="-9"/>
      <point x="125" y="24" type="curve" smooth="yes"/>
      <point x="125" y="71" type="line"/>
      <point x="125" y="76"/>
      <point x="114" y="85"/>
      <point x="110" y="85" type="curve" smooth="yes"/>
      <point x="105" y="85"/>
      <point x="93" y="82"/>
      <point x="85" y="79" type="curve"/>
      <point x="84" y="10" type="line" smooth="yes"/>
      <point x="84" y="5"/>
      <point x="92" y="0"/>
      <point x="97" y="-4" type="curve"/>
      <point x="90" y="-29"/>
      <point x="74" y="-70"/>
      <point x="63" y="-94" type="curve"/>
    </contour>
  </outline>
</glyph>
<glyph name="hyphen" format="2">
  <advance width="328"/>
  <unicode hex="002D"/>
  <outline>
    <contour>
      <point x="50" y="236" type="line"/>
      <point x="278" y="236" type="line"/>
      <point x="278" y="252" type="line"/>
      <point x="50" y="252" type="line"/>
    </contour>
  </outline>
</glyph>
<glyph name="period" format="2">
  <advance width="153"/>
  <unicode hex="002E"/>
  <outline>
    <contour>
      <point x="72" y="-9" type="curve" smooth="yes"/>
      <point x="75" y="-9"/>
      <point x="84" y="-6"/>
      <point x="93" y="-4" type="curve"/>
      <point x="97" y="64" type="line" smooth="yes"/>
      <point x="97" y="68"/>
      <point x="86" y="78"/>
      <point x="82" y="78" type="curve" smooth="yes"/>
      <point x="77" y="78"/>
      <point x="66" y="76"/>
      <point x="56" y="73" type="curve"/>
      <point x="57" y="5" type="line"/>
      <point x="58" y="0"/>
      <point x="68" y="-9"/>
    </contour>
  </outline>
</glyph>
<glyph name="slash" format="2">
  <advance width="343"/>
  <unicode hex="002F"/>
  <outline>
    <contour>
      <point x="55" y="-118" type="line"/>
      <point x="79" y="-118" type="line"/>
      <point x="288" y="687" type="line"/>
      <point x="264" y="687" type="line"/>
    </contour>
  </outline>
</glyph>
<glyph name="zero" format="2">
  <advance width="458"/>
  <unicode hex="0030"/>
  <outline>
    <contour>
      <point x="230" y="-9" type="curve" smooth="yes"/>
      <point x="360" y="-9"/>
      <point x="403" y="121"/>
      <point x="403" y="230" type="curve" smooth="yes"/>
      <point x="403" y="381"/>
      <point x="346" y="468"/>
      <point x="228" y="468" type="curve" smooth="yes"/>
      <point x="98" y="468"/>
      <point x="55" y="339"/>
      <point x="55" y="230" type="curve" smooth="yes"/>
      <point x="55" y="80"/>
      <point x="110" y="-9"/>
    </contour>
    <contour>
      <point x="229" y="15" type="curve" smooth="yes"/>
      <point x="146" y="15"/>
      <point x="84" y="76"/>
      <point x="84" y="233" type="curve" smooth="yes"/>
      <point x="84" y="328"/>
      <point x="111" y="390"/>
      <point x="158" y="427" type="curve" smooth="yes"/>
      <point x="164" y="432"/>
      <point x="201" y="444"/>
      <point x="229" y="444" type="curve" smooth="yes"/>
      <point x="312" y="444"/>
      <point x="374" y="384"/>
      <point x="374" y="233" type="curve" smooth="yes"/>
      <point x="374" y="134"/>
      <point x="347" y="71"/>
      <point x="300" y="32" type="curve" smooth="yes"/>
      <point x="294" y="27"/>
      <point x="257" y="15"/>
    </contour>
  </outline>
</glyph>
<glyph name="one" format="2">
  <advance width="261"/>
  <unicode hex="0031"/>
  <outline>
    <contour>
      <point x="52" y="0" type="line"/>
      <point x="231" y="0" type="line"/>
      <point x="231" y="20" type="line"/>
      <point x="159" y="25" type="line"/>
      <point x="159" y="463" type="line"/>
      <point x="142" y="468" type="line"/>
      <point x="47" y="443" type="line"/>
      <point x="47" y="422" type="line"/>
      <point x="130" y="435" type="line"/>
      <point x="130" y="25" type="line"/>
      <point x="52" y="20" type="line"/>
    </contour>
  </outline>
</glyph>
<glyph name="two" format="2">
  <advance width="398"/>
  <unicode hex="0032"/>
  <outline>
    <contour>
      <point x="53" y="0" type="line"/>
      <point x="351" y="0" type="line"/>
      <point x="351" y="117" type="line"/>
      <point x="334" y="117" type="line"/>
      <point x="325" y="28" type="line"/>
      <point x="83" y="28" type="line"/>
      <point x="83" y="32" type="line"/>
      <point x="262" y="247" type="line" smooth="yes"/>
      <point x="302" y="296"/>
      <point x="318" y="342"/>
      <point x="318" y="379" type="curve" smooth="yes"/>
      <point x="318" y="434"/>
      <point x="285" y="468"/>
      <point x="223" y="468" type="curve" smooth="yes"/>
      <point x="195" y="468"/>
      <point x="111" y="455"/>
      <point x="80" y="449" type="curve"/>
      <point x="82" y="352" type="line"/>
      <point x="100" y="352" type="line"/>
      <point x="107" y="426" type="line"/>
      <point x="137" y="434"/>
      <point x="215" y="444"/>
      <point x="233" y="444" type="curve" smooth="yes"/>
      <point x="269" y="444"/>
      <point x="289" y="416"/>
      <point x="289" y="374" type="curve" smooth="yes"/>
      <point x="289" y="352"/>
      <point x="283" y="316"/>
      <point x="248" y="272" type="curve" smooth="yes"/>
      <point x="47" y="25" type="line"/>
    </contour>
  </outline>
</glyph>
<glyph name="three" format="2">
  <advance width="355"/>
  <unicode hex="0033"/>
  <outline>
    <contour>
      <point x="61" y="-80" type="line"/>
      <point x="191" y="-54"/>
      <point x="305" y="33"/>
      <point x="305" y="130" type="curve" smooth="yes"/>
      <point x="305" y="195"/>
      <point x="268" y="234"/>
      <point x="184" y="238" type="curve"/>
      <point x="184" y="241" type="line"/>
      <point x="233" y="265"/>
      <point x="279" y="306"/>
      <point x="279" y="379" type="curve" smooth="yes"/>
      <point x="279" y="434"/>
      <point x="246" y="468"/>
      <point x="184" y="468" type="curve" smooth="yes"/>
      <point x="157" y="468"/>
      <point x="75" y="455"/>
      <point x="45" y="449" type="curve"/>
      <point x="47" y="352" type="line"/>
      <point x="65" y="352" type="line"/>
      <point x="72" y="426" type="line"/>
      <point x="101" y="434"/>
      <point x="177" y="444"/>
      <point x="194" y="444" type="curve" smooth="yes"/>
      <point x="199" y="444"/>
      <point x="250" y="445"/>
      <point x="250" y="374" type="curve" smooth="yes"/>
      <point x="250" y="302"/>
      <point x="210" y="262"/>
      <point x="111" y="235" type="curve"/>
      <point x="111" y="215" type="line"/>
      <point x="174" y="215" type="line" smooth="yes"/>
      <point x="236" y="215"/>
      <point x="276" y="188"/>
      <point x="276" y="130" type="curve" smooth="yes"/>
      <point x="276" y="27"/>
      <point x="156" y="-33"/>
      <point x="61" y="-59" type="curve"/>
    </contour>
  </outline>
</glyph>
<glyph name="four" format="2">
  <advance width="427"/>
  <unicode hex="0034"/>
  <outline>
    <contour>
      <point x="282" y="-79" type="line"/>
      <point x="311" y="-79" type="line"/>
      <point x="311" y="65" type="line"/>
      <point x="397" y="65" type="line"/>
      <point x="397" y="91" type="line"/>
      <point x="311" y="91" type="line"/>
      <point x="311" y="262" type="line"/>
      <point x="303" y="265" type="line"/>
      <point x="282" y="259" type="line"/>
      <point x="282" y="91" type="line"/>
      <point x="69" y="91" type="line"/>
      <point x="68" y="95" type="line"/>
      <point x="114" y="186"/>
      <point x="199" y="361"/>
      <point x="238" y="450" type="curve"/>
      <point x="238" y="459" type="line"/>
      <point x="214" y="469" type="line"/>
      <point x="183" y="387"/>
      <point x="98" y="212"/>
      <point x="35" y="82" type="curve"/>
      <point x="37" y="65" type="line"/>
      <point x="282" y="65" type="line"/>
    </contour>
  </outline>
</glyph>
<glyph name="five" format="2">
  <advance width="351"/>
  <unicode hex="0035"/>
  <outline>
    <contour>
      <point x="58" y="-80" type="line"/>
      <point x="189" y="-56"/>
      <point x="301" y="17"/>
      <point x="301" y="144" type="curve" smooth="yes"/>
      <point x="301" y="211"/>
      <point x="266" y="273"/>
      <point x="181" y="273" type="curve" smooth="yes"/>
      <point x="169" y="273"/>
      <point x="96" y="246"/>
      <point x="81" y="241" type="curve"/>
      <point x="97" y="427" type="line"/>
      <point x="278" y="427" type="line"/>
      <point x="275" y="503" type="line"/>
      <point x="258" y="503" type="line"/>
      <point x="254" y="455" type="line"/>
      <point x="75" y="455" type="line"/>
      <point x="55" y="228" type="line"/>
      <point x="66" y="214" type="line"/>
      <point x="106" y="227"/>
      <point x="169" y="248"/>
      <point x="182" y="248" type="curve" smooth="yes"/>
      <point x="225" y="248"/>
      <point x="272" y="223"/>
      <point x="272" y="140" type="curve" smooth="yes"/>
      <point x="272" y="18"/>
      <point x="154" y="-35"/>
      <point x="58" y="-59" type="curve"/>
    </contour>
  </outline>
</glyph>
<glyph name="seven" format="2">
  <advance width="357"/>
  <unicode hex="0037"/>
  <outline>
    <contour>
      <point x="86" y="-81" type="curve" smooth="yes"/>
      <point x="89" y="-81"/>
      <point x="94" y="-78"/>
      <point x="96" y="-76" type="curve"/>
      <point x="332" y="439" type="line"/>
      <point x="328" y="455" type="line"/>
      <point x="30" y="454" type="line"/>
      <point x="32" y="342" type="line"/>
      <point x="50" y="342" type="line"/>
      <point x="58" y="427" type="line"/>
      <point x="297" y="427" type="line"/>
      <point x="298" y="421" type="line"/>
      <point x="64" y="-71" type="line"/>
      <point x="69" y="-74"/>
      <point x="83" y="-81"/>
    </contour>
  </outline>
</glyph>
<glyph name="eight" format="2">
  <advance width="409"/>
  <unicode hex="0038"/>
  <outline>
    <contour>
      <point x="207" y="-9" type="curve" smooth="yes"/>
      <point x="240" y="-9"/>
      <point x="321" y="43"/>
      <point x="334" y="78" type="curve" smooth="yes"/>
      <point x="340" y="95"/>
      <point x="347" y="116"/>
      <point x="347" y="137" type="curve" smooth="yes"/>
      <point x="347" y="210"/>
      <point x="297" y="245"/>
      <point x="242" y="277" type="curve"/>
      <point x="242" y="278" type="line"/>
      <point x="296" y="314"/>
      <point x="327" y="366"/>
      <point x="327" y="420" type="curve" smooth="yes"/>
      <point x="327" y="486"/>
      <point x="284" y="543"/>
      <point x="204" y="543" type="curve" smooth="yes"/>
      <point x="180" y="543"/>
      <point x="113" y="501"/>
      <point x="90" y="459" type="curve"/>
      <point x="85" y="447"/>
      <point x="83" y="435"/>
      <point x="83" y="422" type="curve" smooth="yes"/>
      <point x="83" y="359"/>
      <point x="119" y="325"/>
      <point x="162" y="297" type="curve"/>
      <point x="162" y="296" type="line"/>
      <point x="95" y="256"/>
      <point x="56" y="199"/>
      <point x="56" y="133" type="curve" smooth="yes"/>
      <point x="56" y="53"/>
      <point x="113" y="-9"/>
    </contour>
    <contour>
      <point x="201" y="13" type="curve" smooth="yes"/>
      <point x="135" y="13"/>
      <point x="83" y="60"/>
      <point x="83" y="134" type="curve" smooth="yes"/>
      <point x="83" y="198.406"/>
      <point x="118.883" y="248.459"/>
      <point x="183.003" y="285.007" type="curve"/>
      <point x="248.108" y="248.205"/>
      <point x="321" y="218.779"/>
      <point x="321" y="133" type="curve" smooth="yes"/>
      <point x="321" y="52"/>
      <point x="234" y="13"/>
    </contour>
    <contour>
      <point x="220.838" y="288.396" type="curve"/>
      <point x="162.533" y="320.78"/>
      <point x="106" y="352"/>
      <point x="106" y="428" type="curve" smooth="yes"/>
      <point x="106" y="483"/>
      <point x="189" y="522"/>
      <point x="206" y="522" type="curve" smooth="yes"/>
      <point x="271" y="522"/>
      <point x="301" y="477"/>
      <point x="301" y="420" type="curve" smooth="yes"/>
      <point x="301" y="357.994"/>
      <point x="260.638" y="313.823"/>
    </contour>
  </outline>
</glyph>
<glyph name="nine" format="2">
  <advance width="409"/>
  <unicode hex="0039"/>
  <outline>
    <contour>
      <point x="106" y="-80" type="line"/>
      <point x="278" y="-47"/>
      <point x="351" y="86"/>
      <point x="351" y="253" type="curve" smooth="yes"/>
      <point x="351" y="421"/>
      <point x="262" y="468"/>
      <point x="197" y="468" type="curve" smooth="yes"/>
      <point x="167" y="468"/>
      <point x="120" y="444"/>
      <point x="94" y="415" type="curve"/>
      <point x="73" y="385"/>
      <point x="60" y="339"/>
      <point x="60" y="294" type="curve" smooth="yes"/>
      <point x="60" y="202"/>
      <point x="105" y="150"/>
      <point x="206" y="150" type="curve" smooth="yes"/>
      <point x="217" y="150"/>
      <point x="288" y="176"/>
      <point x="317" y="187" type="curve"/>
      <point x="319" y="186" type="line"/>
      <point x="302" y="62"/>
      <point x="238" y="-21"/>
      <point x="106" y="-59" type="curve"/>
    </contour>
    <contour>
      <point x="209" y="174" type="curve" smooth="yes"/>
      <point x="128" y="174"/>
      <point x="89" y="207"/>
      <point x="89" y="302" type="curve" smooth="yes"/>
      <point x="89" y="422"/>
      <point x="159" y="445"/>
      <point x="195" y="445" type="curve" smooth="yes"/>
      <point x="299" y="440"/>
      <point x="336" y="326"/>
      <point x="320" y="211" type="curve"/>
      <point x="297" y="202"/>
      <point x="219" y="174"/>
    </contour>
  </outline>
</glyph>
<glyph name="less" format="2">
  <advance width="581"/>
  <unicode hex="003C"/>
  <outline>
    <contour>
      <point x="486" y="36" type="line"/>
      <point x="486" y="66" type="line"/>
      <point x="122" y="237" type="line"/>
      <point x="486" y="408" type="line"/>
      <point x="486" y="438" type="line"/>
      <point x="95" y="252" type="line"/>
      <point x="95" y="222" type="line"/>
    </contour>
  </outline>
</glyph>
<glyph name="equal" format="2">
  <advance width="612"/>
  <unicode hex="003D"/>
  <outline>
    <contour>
      <point x="110" y="312" type="line"/>
      <point x="502" y="312" type="line"/>
      <point x="502" y="336" type="line"/>
      <point x="110" y="336" type="line"/>
    </contour>
    <contour>
      <point x="110" y="172" type="line"/>
      <point x="502" y="172" type="line"/>
      <point x="502" y="196" type="line"/>
      <point x="110" y="196" type="line"/>
    </contour>
  </outline>
</glyph>
<glyph name="greater" format="2">
  <advance width="581"/>
  <unicode hex="003E"/>
  <outline>
    <contour>
      <point x="95" y="36" type="line"/>
      <point x="486" y="222" type="line"/>
      <point x="486" y="252" type="line"/>
      <point x="95" y="438" type="line"/>
      <point x="95" y="408" type="line"/>
      <point x="459" y="237" type="line"/>
      <point x="95" y="66" type="line"/>
    </contour>
  </outline>
</glyph>
<glyph name="question" format="2">
  <advance width="389"/>
  <unicode hex="003F"/>
  <outline>
    <contour>
      <point x="156" y="144" type="curve" smooth="yes"/>
      <point x="158" y="144"/>
      <point x="164" y="145"/>
      <point x="169" y="146" type="curve"/>
      <point x="175" y="247"/>
      <point x="185" y="261"/>
      <point x="239" y="313" type="curve" smooth="yes"/>
      <point x="287" y="359"/>
      <point x="338" y="415"/>
      <point x="338" y="487" type="curve" smooth="yes"/>
      <point x="338" y="571"/>
      <point x="300" y="599"/>
      <point x="215" y="599" type="curve" smooth="yes"/>
      <point x="177" y="599"/>
      <point x="129" y="594"/>
      <point x="73" y="588" type="curve"/>
      <point x="96" y="562" type="line"/>
      <point x="144" y="567"/>
      <point x="205" y="574"/>
      <point x="232" y="574" type="curve" smooth="yes"/>
      <point x="286" y="574"/>
      <point x="307" y="534"/>
      <point x="307" y="489" type="curve" smooth="yes"/>
      <point x="307" y="418"/>
      <point x="260" y="373"/>
      <point x="214" y="327" type="curve" smooth="yes"/>
      <point x="177" y="290"/>
      <point x="146" y="256"/>
      <point x="148" y="214" type="curve" smooth="yes"/>
      <point x="151" y="149" type="line" smooth="yes"/>
      <point x="151" y="148"/>
      <point x="155" y="144"/>
    </contour>
    <contour>
      <point x="149" y="-9" type="curve" smooth="yes"/>
      <point x="157" y="-9"/>
      <point x="166" y="-8"/>
      <point x="176" y="-5" type="curve"/>
      <point x="171" y="68" type="line"/>
      <point x="149" y="68" type="line"/>
      <point x="139" y="2" type="line" smooth="yes"/>
      <point x="139" y="0"/>
      <point x="147" y="-9"/>
    </contour>
    <contour>
      <point x="87" y="437" type="line"/>
      <point x="104" y="437" type="line"/>
      <point x="105" y="588" type="line"/>
      <point x="74" y="588" type="line"/>
    </contour>
  </outline>
</glyph>
<glyph name="at" format="2">
  <advance width="742"/>
  <unicode hex="0040"/>
  <outline>
    <contour>
      <point x="352" y="-162" type="curve" smooth="yes"/>
      <point x="383" y="-162"/>
      <point x="415" y="-158"/>
      <point x="446" y="-150" type="curve"/>
      <point x="443" y="-131" type="line"/>
      <point x="420" y="-135"/>
      <point x="397" y="-137"/>
      <point x="373" y="-137" type="curve" smooth="yes"/>
      <point x="170" y="-137"/>
      <point x="75" y="5"/>
      <point x="75" y="210" type="curve" smooth="yes"/>
      <point x="75" y="355"/>
      <point x="120" y="462"/>
      <point x="172" y="514" type="curve"/>
      <point x="236" y="568"/>
      <point x="300" y="593"/>
      <point x="389" y="593" type="curve" smooth="yes"/>
      <point x="583" y="593"/>
      <point x="668" y="475"/>
      <point x="668" y="276" type="curve" smooth="yes"/>
      <point x="668" y="149"/>
      <point x="619" y="61"/>
      <point x="587" y="19" type="curve"/>
      <point x="492" y="22" type="line"/>
      <point x="492" y="432" type="line"/>
      <point x="447" y="439"/>
      <point x="378" y="450"/>
      <point x="357" y="450" type="curve" smooth="yes"/>
      <point x="338" y="450"/>
      <point x="275" y="419"/>
      <point x="236" y="359" type="curve"/>
      <point x="218" y="324"/>
      <point x="202" y="269"/>
      <point x="202" y="195" type="curve" smooth="yes"/>
      <point x="202" y="94"/>
      <point x="235" y="-10"/>
      <point x="364" y="-10" type="curve" smooth="yes"/>
      <point x="372" y="-10"/>
      <point x="427" y="38"/>
      <point x="465" y="69" type="curve"/>
      <point x="463" y="7" type="line" smooth="yes"/>
      <point x="463" y="3"/>
      <point x="480" y="-10"/>
      <point x="483" y="-10" type="curve" smooth="yes"/>
      <point x="490" y="-10"/>
      <point x="548" y="-7"/>
      <point x="604" y="2" type="curve"/>
      <point x="663" y="77"/>
      <point x="696" y="180"/>
      <point x="696" y="288" type="curve" smooth="yes"/>
      <point x="696" y="493"/>
      <point x="596" y="620"/>
      <point x="388" y="620" type="curve" smooth="yes"/>
      <point x="159" y="620"/>
      <point x="46" y="445"/>
      <point x="46" y="229" type="curve" smooth="yes"/>
      <point x="46" y="6"/>
      <point x="143" y="-162"/>
    </contour>
    <contour>
      <point x="357" y="17" type="curve" smooth="yes"/>
      <point x="287" y="17"/>
      <point x="231" y="58"/>
      <point x="231" y="207" type="curve" smooth="yes"/>
      <point x="231" y="398"/>
      <point x="344" y="425"/>
      <point x="363" y="425" type="curve" smooth="yes"/>
      <point x="383" y="425"/>
      <point x="427" y="416"/>
      <point x="463" y="409" type="curve"/>
      <point x="463" y="98" type="line"/>
      <point x="427" y="68"/>
      <point x="368" y="17"/>
    </contour>
  </outline>
</glyph>
<glyph name="A" format="2">
  <advance width="538"/>
  <unicode hex="0041"/>
  <anchor x="265" y="0" name="bottom"/>
  <anchor x="432" y="0" name="ogonek"/>
  <anchor x="267" y="591" name="top"/>
  <outline>
    <contour>
      <point x="22" y="0" type="line"/>
      <point x="170" y="0" type="line"/>
      <point x="170" y="18" type="line"/>
      <point x="109" y="27" type="line"/>
      <point x="161" y="212" type="line"/>
      <point x="372" y="212" type="line"/>
      <point x="425" y="27" type="line"/>
      <point x="365" y="18" type="line"/>
      <point x="365" y="0" type="line"/>
      <point x="513" y="0" type="line"/>
      <point x="513" y="17" type="line"/>
      <point x="456" y="25" type="line"/>
      <point x="293" y="593" type="line"/>
      <point x="293" y="593"/>
      <point x="282" y="601"/>
      <point x="279" y="601" type="curve" smooth="yes"/>
      <point x="274" y="601"/>
      <point x="243" y="596"/>
      <point x="243" y="596" type="curve"/>
      <point x="79" y="25" type="line"/>
      <point x="22" y="17" type="line"/>
    </contour>
    <contour>
      <point x="168" y="239" type="line"/>
      <point x="262" y="570" type="line"/>
      <point x="271" y="570" type="line"/>
      <point x="365" y="239" type="line"/>
    </contour>
  </outline>
</glyph>
<glyph name="B" format="2">
  <advance width="480"/>
  <unicode hex="0042"/>
  <outline>
    <contour>
      <point x="47" y="0" type="line"/>
      <point x="258" y="0" type="line" smooth="yes"/>
      <point x="351" y="0"/>
      <point x="435" y="26"/>
      <point x="435" y="164" type="curve" smooth="yes"/>
      <point x="435" y="240"/>
      <point x="393" y="290"/>
      <point x="315" y="304" type="curve"/>
      <point x="315" y="309" type="line"/>
      <point x="340" y="319"/>
      <point x="395" y="352"/>
      <point x="395" y="447" type="curve" smooth="yes"/>
      <point x="395" y="559"/>
      <point x="344" y="591"/>
      <point x="251" y="591" type="curve" smooth="yes"/>
      <point x="47" y="591" type="line"/>
      <point x="47" y="574" type="line"/>
      <point x="104" y="566" type="line"/>
      <point x="104" y="25" type="line"/>
      <point x="47" y="17" type="line"/>
    </contour>
    <contour>
      <point x="267" y="27" type="curve" smooth="yes"/>
      <point x="134" y="27" type="line"/>
      <point x="134" y="288" type="line"/>
      <point x="277" y="288" type="line" smooth="yes"/>
      <point x="307" y="288"/>
      <point x="405" y="274"/>
      <point x="405" y="165" type="curve" smooth="yes"/>
      <point x="405" y="63"/>
      <point x="362" y="27"/>
    </contour>
    <contour>
      <point x="134" y="315" type="line"/>
      <point x="134" y="564" type="line"/>
      <point x="259" y="564" type="line" smooth="yes"/>
      <point x="343" y="564"/>
      <point x="365" y="517"/>
      <point x="365" y="442" type="curve" smooth="yes"/>
      <point x="365" y="346"/>
      <point x="306" y="315"/>
      <point x="248" y="315" type="curve" smooth="yes"/>
    </contour>
  </outline>
</glyph>
<glyph name="C" format="2">
  <advance width="431"/>
  <unicode hex="0043"/>
  <anchor x="255" y="0" name="bottom"/>
  <anchor x="261" y="591" name="top"/>
  <outline>
    <contour>
      <point x="272" y="-10" type="curve" smooth="yes"/>
      <point x="324" y="-10"/>
      <point x="377" y="-4"/>
      <point x="378" y="-4" type="curve"/>
      <point x="379" y="132" type="line"/>
      <point x="361" y="132" type="line"/>
      <point x="350" y="15" type="line"/>
      <point x="279" y="15" type="line" smooth="yes"/>
      <point x="156" y="15"/>
      <point x="85" y="96"/>
      <point x="85" y="301" type="curve" smooth="yes"/>
      <point x="85" y="424"/>
      <point x="121" y="482"/>
      <point x="160" y="517" type="curve" smooth="yes"/>
      <point x="202" y="555"/>
      <point x="236" y="572"/>
      <point x="254" y="572" type="curve" smooth="yes"/>
      <point x="279" y="572"/>
      <point x="333" y="567"/>
      <point x="346" y="564" type="curve"/>
      <point x="353" y="461" type="line"/>
      <point x="372" y="461" type="line"/>
      <point x="378" y="587" type="line"/>
      <point x="350" y="592"/>
      <point x="279" y="601"/>
      <point x="250" y="601" type="curve" smooth="yes"/>
      <point x="221" y="601"/>
      <point x="136" y="549"/>
      <point x="90" y="475" type="curve"/>
      <point x="66" y="426"/>
      <point x="55" y="358"/>
      <point x="55" y="280" type="curve" smooth="yes"/>
      <point x="55" y="106"/>
      <point x="125" y="-10"/>
    </contour>
  </outline>
</glyph>
<glyph name="D" format="2">
  <advance width="512"/>
  <unicode hex="0044"/>
  <anchor x="256" y="0" name="bottom"/>
  <anchor x="144" y="308" name="center"/>
  <anchor x="254" y="591" name="top"/>
  <outline>
    <contour>
      <point x="47" y="0" type="line"/>
      <point x="256" y="0" type="line" smooth="yes"/>
      <point x="381" y="0"/>
      <point x="457" y="94"/>
      <point x="457" y="310" type="curve" smooth="yes"/>
      <point x="457" y="525"/>
      <point x="352" y="591"/>
      <point x="256" y="591" type="curve" smooth="yes"/>
      <point x="47" y="591" type="line"/>
      <point x="47" y="574" type="line"/>
      <point x="104" y="566" type="line"/>
      <point x="104" y="25" type="line"/>
      <point x="47" y="17" type="line"/>
    </contour>
    <contour>
      <point x="262" y="27" type="curve" smooth="yes"/>
      <point x="134" y="27" type="line"/>
      <point x="134" y="564" type="line"/>
      <point x="262" y="564" type="line" smooth="yes"/>
      <point x="348" y="564"/>
      <point x="427" y="488"/>
      <point x="427" y="308" type="curve" smooth="yes"/>
      <point x="427" y="87"/>
      <point x="349" y="27"/>
    </contour>
  </outline>
</glyph>
<glyph name="E" format="2">
  <advance width="437"/>
  <unicode hex="0045"/>
  <anchor x="248" y="0" name="bottom"/>
  <anchor x="371" y="0" name="ogonek"/>
  <anchor x="232" y="591" name="top"/>
  <outline>
    <contour>
      <point x="47" y="0" type="line"/>
      <point x="392" y="0" type="line"/>
      <point x="389" y="122" type="line"/>
      <point x="370" y="122" type="line"/>
      <point x="360" y="27" type="line"/>
      <point x="134" y="27" type="line"/>
      <point x="134" y="300" type="line"/>
      <point x="297" y="302" type="line"/>
      <point x="297" y="325" type="line"/>
      <point x="134" y="327" type="line"/>
      <point x="134" y="564" type="line"/>
      <point x="352" y="564" type="line"/>
      <point x="359" y="469" type="line"/>
      <point x="378" y="469" type="line"/>
      <point x="384" y="591" type="line"/>
      <point x="47" y="591" type="line"/>
      <point x="47" y="574" type="line"/>
      <point x="104" y="566" type="line"/>
      <point x="104" y="25" type="line"/>
      <point x="47" y="17" type="line"/>
    </contour>
  </outline>
</glyph>
<glyph name="F" format="2">
  <advance width="406"/>
  <unicode hex="0046"/>
  <outline>
    <contour>
      <point x="47" y="0" type="line"/>
      <point x="209" y="0" type="line"/>
      <point x="209" y="18" type="line"/>
      <point x="134" y="27" type="line"/>
      <point x="134" y="284" type="line"/>
      <point x="283" y="286" type="line"/>
      <point x="283" y="309" type="line"/>
      <point x="134" y="311" type="line"/>
      <point x="134" y="564" type="line"/>
      <point x="344" y="564" type="line"/>
      <point x="351" y="461" type="line"/>
      <point x="370" y="461" type="line"/>
      <point x="376" y="591" type="line"/>
      <point x="47" y="591" type="line"/>
      <point x="47" y="574" type="line"/>
      <point x="104" y="566" type="line"/>
      <point x="104" y="25" type="line"/>
      <point x="47" y="17" type="line"/>
    </contour>
  </outline>
</glyph>
<glyph name="G" format="2">
  <advance width="479"/>
  <unicode hex="0047"/>
  <anchor x="261" y="0" name="bottom"/>
  <anchor x="264" y="591" name="top"/>
  <outline>
    <contour>
      <point x="267" y="-10" type="curve" smooth="yes"/>
      <point x="290" y="-9"/>
      <point x="386" y="9"/>
      <point x="402" y="15" type="curve"/>
      <point x="402" y="262" type="line"/>
      <point x="459" y="267" type="line"/>
      <point x="459" y="287" type="line"/>
      <point x="281" y="287" type="line"/>
      <point x="281" y="266" type="line"/>
      <point x="372" y="259" type="line"/>
      <point x="372" y="31" type="line"/>
      <point x="270" y="16" type="line"/>
      <point x="167" y="15"/>
      <point x="85" y="70"/>
      <point x="85" y="301" type="curve" smooth="yes"/>
      <point x="85" y="424"/>
      <point x="121" y="482"/>
      <point x="160" y="517" type="curve" smooth="yes"/>
      <point x="202" y="555"/>
      <point x="236" y="572"/>
      <point x="254" y="572" type="curve" smooth="yes"/>
      <point x="288" y="572"/>
      <point x="349" y="564"/>
      <point x="369" y="560" type="curve"/>
      <point x="376" y="461" type="line"/>
      <point x="395" y="461" type="line"/>
      <point x="401" y="583" type="line"/>
      <point x="372" y="589"/>
      <point x="283" y="601"/>
      <point x="250" y="601" type="curve" smooth="yes"/>
      <point x="221" y="601"/>
      <point x="136" y="549"/>
      <point x="90" y="475" type="curve"/>
      <point x="66" y="426"/>
      <point x="55" y="358"/>
      <point x="55" y="280" type="curve" smooth="yes"/>
      <point x="55" y="95"/>
      <point x="127" y="-15"/>
    </contour>
  </outline>
</glyph>
<glyph name="H" format="2">
  <advance width="545"/>
  <unicode hex="0048"/>
  <anchor x="274" y="0" name="bottom"/>
  <anchor x="270" y="441" name="center"/>
  <anchor x="271" y="591" name="top"/>
  <outline>
    <contour>
      <point x="47" y="0" type="line"/>
      <point x="195" y="0" type="line"/>
      <point x="195" y="18" type="line"/>
      <point x="134" y="27" type="line"/>
      <point x="134" y="292" type="line"/>
      <point x="411" y="292" type="line"/>
      <point x="411" y="27" type="line"/>
      <point x="350" y="18" type="line"/>
      <point x="350" y="0" type="line"/>
      <point x="498" y="0" type="line"/>
      <point x="498" y="17" type="line"/>
      <point x="441" y="25" type="line"/>
      <point x="441" y="566" type="line"/>
      <point x="498" y="574" type="line"/>
      <point x="498" y="591" type="line"/>
      <point x="350" y="591" type="line"/>
      <point x="350" y="573" type="line"/>
      <point x="411" y="564" type="line"/>
      <point x="411" y="319" type="line"/>
      <point x="134" y="319" type="line"/>
      <point x="134" y="564" type="line"/>
      <point x="195" y="573" type="line"/>
      <point x="195" y="591" type="line"/>
      <point x="47" y="591" type="line"/>
      <point x="47" y="574" type="line"/>
      <point x="104" y="566" type="line"/>
      <point x="104" y="25" type="line"/>
      <point x="47" y="17" type="line"/>
    </contour>
  </outline>
</glyph>
<glyph name="I" format="2">
  <advance width="242"/>
  <unicode hex="0049"/>
  <anchor x="118" y="0" name="bottom"/>
  <anchor x="170" y="0" name="ogonek"/>
  <anchor x="120" y="591" name="top"/>
  <outline>
    <contour>
      <point x="47" y="0" type="line"/>
      <point x="195" y="0" type="line"/>
      <point x="195" y="18" type="line"/>
      <point x="134" y="27" type="line"/>
      <point x="134" y="564" type="line"/>
      <point x="195" y="573" type="line"/>
      <point x="195" y="591" type="line"/>
      <point x="47" y="591" type="line"/>
      <point x="47" y="574" type="line"/>
      <point x="104" y="566" type="line"/>
      <point x="104" y="25" type="line"/>
      <point x="47" y="17" type="line"/>
    </contour>
  </outline>
</glyph>
<glyph name="J" format="2">
  <advance width="232"/>
  <unicode hex="004A"/>
  <anchor x="120" y="591" name="top"/>
  <outline>
    <contour>
      <point x="51" y="-115" type="curve" smooth="yes"/>
      <point x="82" y="-115"/>
      <point x="135" y="-53"/>
      <point x="135" y="19" type="curve" smooth="yes"/>
      <point x="135" y="564" type="line"/>
      <point x="196" y="573" type="line"/>
      <point x="196" y="591" type="line"/>
      <point x="48" y="591" type="line"/>
      <point x="48" y="574" type="line"/>
      <point x="105" y="566" type="line"/>
      <point x="105" y="17" type="line" smooth="yes"/>
      <point x="105" y="-53"/>
      <point x="56" y="-87"/>
      <point x="51" y="-87" type="curve" smooth="yes"/>
      <point x="41" y="-87"/>
      <point x="-1" y="-87"/>
      <point x="-15" y="-87" type="curve"/>
      <point x="-15" y="-106" type="line"/>
      <point x="3" y="-109"/>
      <point x="40" y="-115"/>
    </contour>
  </outline>
</glyph>
<glyph name="K" format="2">
  <advance width="512"/>
  <unicode hex="004B"/>
  <anchor x="254" y="0" name="bottom"/>
  <outline>
    <contour>
      <point x="407" y="0" type="curve"/>
      <point x="482" y="0" type="line"/>
      <point x="482" y="20" type="line"/>
      <point x="426" y="25" type="line"/>
      <point x="384" y="86"/>
      <point x="279" y="233"/>
      <point x="225" y="311" type="curve"/>
      <point x="407" y="566" type="line"/>
      <point x="463" y="574" type="line"/>
      <point x="463" y="591" type="line"/>
      <point x="315" y="591" type="line"/>
      <point x="315" y="573" type="line"/>
      <point x="371" y="564" type="line"/>
      <point x="195" y="317" type="line"/>
      <point x="195" y="302" type="line"/>
      <point x="264" y="203"/>
      <point x="370" y="54"/>
    </contour>
    <contour>
      <point x="47" y="0" type="line"/>
      <point x="195" y="0" type="line"/>
      <point x="195" y="18" type="line"/>
      <point x="134" y="27" type="line"/>
      <point x="134" y="564" type="line"/>
      <point x="195" y="573" type="line"/>
      <point x="195" y="591" type="line"/>
      <point x="47" y="591" type="line"/>
      <point x="47" y="574" type="line"/>
      <point x="104" y="566" type="line"/>
      <point x="104" y="25" type="line"/>
      <point x="47" y="17" type="line"/>
    </contour>
  </outline>
</glyph>
<glyph name="L" format="2">
  <advance width="402"/>
  <unicode hex="004C"/>
  <anchor x="230" y="0" name="bottom"/>
  <anchor x="161" y="305" name="center"/>
  <anchor x="120" y="591" name="top"/>
  <anchor x="312" y="448" name="topright"/>
  <outline>
    <contour>
      <point x="47" y="0" type="line"/>
      <point x="372" y="0" type="line"/>
      <point x="369" y="142" type="line"/>
      <point x="350" y="142" type="line"/>
      <point x="340" y="27" type="line"/>
      <point x="134" y="27" type="line"/>
      <point x="134" y="564" type="line"/>
      <point x="205" y="573" type="line"/>
      <point x="205" y="591" type="line"/>
      <point x="47" y="591" type="line"/>
      <point x="47" y="574" type="line"/>
      <point x="104" y="566" type="line"/>
      <point x="104" y="25" type="line"/>
      <point x="47" y="17" type="line"/>
    </contour>
  </outline>
</glyph>
<glyph name="M" format="2">
  <advance width="657"/>
  <unicode hex="004D"/>
  <outline>
    <contour>
      <point x="44" y="0" type="line"/>
      <point x="192" y="0" type="line"/>
      <point x="192" y="18" type="line"/>
      <point x="131" y="27" type="line"/>
      <point x="148" y="542" type="line"/>
      <point x="154" y="542" type="line"/>
      <point x="154" y="542"/>
      <point x="205" y="373"/>
      <point x="227" y="304" type="curve" smooth="yes"/>
      <point x="309" y="49" type="line"/>
      <point x="309" y="49"/>
      <point x="319" y="41"/>
      <point x="323" y="41" type="curve" smooth="yes"/>
      <point x="329" y="41"/>
      <point x="355" y="46"/>
      <point x="355" y="46" type="curve"/>
      <point x="438" y="304" type="line" smooth="yes"/>
      <point x="462" y="379"/>
      <point x="510" y="542"/>
      <point x="510" y="542" type="curve"/>
      <point x="516" y="542" type="line"/>
      <point x="534" y="27" type="line"/>
      <point x="473" y="18" type="line"/>
      <point x="473" y="0" type="line"/>
      <point x="621" y="0" type="line"/>
      <point x="621" y="17" type="line"/>
      <point x="564" y="25" type="line"/>
      <point x="545" y="566" type="line"/>
      <point x="602" y="574" type="line"/>
      <point x="602" y="591" type="line"/>
      <point x="497" y="591" type="line"/>
      <point x="337" y="68" type="line"/>
      <point x="331" y="68" type="line"/>
      <point x="167" y="591" type="line"/>
      <point x="64" y="591" type="line"/>
      <point x="64" y="574" type="line"/>
      <point x="121" y="566" type="line"/>
      <point x="101" y="25" type="line"/>
      <point x="44" y="17" type="line"/>
    </contour>
  </outline>
</glyph>
<glyph name="N" format="2">
  <advance width="532"/>
  <unicode hex="004E"/>
  <anchor x="271" y="0" name="bottom"/>
  <anchor x="267" y="591" name="top"/>
  <outline>
    <contour>
      <point x="399" y="-10" type="curve" smooth="yes"/>
      <point x="403" y="-10"/>
      <point x="422" y="-7"/>
      <point x="435" y="-5" type="curve"/>
      <point x="435" y="566" type="line"/>
      <point x="492" y="574" type="line"/>
      <point x="492" y="591" type="line"/>
      <point x="344" y="591" type="line"/>
      <point x="344" y="573" type="line"/>
      <point x="405" y="564" type="line"/>
      <point x="405" y="544" type="line"/>
      <point x="408" y="18" type="line"/>
      <point x="402" y="18" type="line"/>
      <point x="392" y="47"/>
      <point x="373" y="95"/>
      <point x="360" y="123" type="curve" smooth="yes"/>
      <point x="143" y="591" type="line"/>
      <point x="47" y="591" type="line"/>
      <point x="47" y="574" type="line"/>
      <point x="104" y="566" type="line"/>
      <point x="104" y="25" type="line"/>
      <point x="47" y="17" type="line"/>
      <point x="47" y="0" type="line"/>
      <point x="195" y="0" type="line"/>
      <point x="195" y="18" type="line"/>
      <point x="134" y="27" type="line"/>
      <point x="134" y="46" type="line"/>
      <point x="131" y="542" type="line"/>
      <point x="137" y="542" type="line"/>
      <point x="147" y="516"/>
      <point x="165" y="472"/>
      <point x="176" y="448" type="curve" smooth="yes"/>
      <point x="385" y="-2" type="line"/>
      <point x="390" y="-5"/>
      <point x="397" y="-10"/>
    </contour>
  </outline>
</glyph>
<glyph name="P" format="2">
  <advance width="465"/>
  <unicode hex="0050"/>
  <outline>
    <contour>
      <point x="47" y="0" type="line"/>
      <point x="209" y="0" type="line"/>
      <point x="209" y="18" type="line"/>
      <point x="134" y="27" type="line"/>
      <point x="134" y="236" type="line"/>
      <point x="270" y="236" type="line" smooth="yes"/>
      <point x="374" y="236"/>
      <point x="425" y="325"/>
      <point x="425" y="423" type="curve" smooth="yes"/>
      <point x="425" y="564"/>
      <point x="354" y="591"/>
      <point x="273" y="591" type="curve" smooth="yes"/>
      <point x="47" y="591" type="line"/>
      <point x="47" y="574" type="line"/>
      <point x="104" y="566" type="line"/>
      <point x="104" y="25" type="line"/>
      <point x="47" y="17" type="line"/>
    </contour>
    <contour>
      <point x="134" y="263" type="line"/>
      <point x="134" y="564" type="line"/>
      <point x="282" y="564" type="line" smooth="yes"/>
      <point x="360" y="564"/>
      <point x="395" y="528"/>
      <point x="395" y="422" type="curve" smooth="yes"/>
      <point x="395" y="311"/>
      <point x="339" y="263"/>
      <point x="280" y="263" type="curve" smooth="yes"/>
    </contour>
  </outline>
</glyph>
<glyph name="R" format="2">
  <advance width="503"/>
  <unicode hex="0052"/>
  <anchor x="259" y="0" name="bottom"/>
  <anchor x="237" y="591" name="top"/>
  <outline>
    <contour>
      <point x="47" y="0" type="line"/>
      <point x="195" y="0" type="line"/>
      <point x="195" y="18" type="line"/>
      <point x="134" y="27" type="line"/>
      <point x="134" y="260" type="line"/>
      <point x="256" y="260" type="line"/>
      <point x="307" y="167"/>
      <point x="369" y="52"/>
      <point x="397" y="0" type="curve"/>
      <point x="473" y="0" type="line"/>
      <point x="473" y="20" type="line"/>
      <point x="418" y="25" type="line"/>
      <point x="396" y="62"/>
      <point x="326" y="189"/>
      <point x="288" y="262" type="curve"/>
      <point x="288" y="265" type="line"/>
      <point x="373" y="279"/>
      <point x="415" y="351"/>
      <point x="415" y="429" type="curve" smooth="yes"/>
      <point x="415" y="565"/>
      <point x="344" y="591"/>
      <point x="263" y="591" type="curve" smooth="yes"/>
      <point x="47" y="591" type="line"/>
      <point x="47" y="574" type="line"/>
      <point x="104" y="566" type="line"/>
      <point x="104" y="25" type="line"/>
      <point x="47" y="17" type="line"/>
    </contour>
    <contour>
      <point x="134" y="287" type="line"/>
      <point x="134" y="564" type="line"/>
      <point x="272" y="564" type="line" smooth="yes"/>
      <point x="349" y="564"/>
      <point x="385" y="529"/>
      <point x="385" y="428" type="curve" smooth="yes"/>
      <point x="385" y="304"/>
      <point x="297" y="287"/>
      <point x="270" y="287" type="curve" smooth="yes"/>
    </contour>
  </outline>
</glyph>
<glyph name="T" format="2">
  <advance width="424"/>
  <unicode hex="0054"/>
  <anchor x="212" y="0" name="bottom"/>
  <anchor x="212" y="308" name="center"/>
  <anchor x="212" y="591" name="top"/>
  <outline>
    <contour>
      <point x="130" y="0" type="line"/>
      <point x="294" y="0" type="line"/>
      <point x="294" y="18" type="line"/>
      <point x="227" y="27" type="line"/>
      <point x="227" y="564" type="line"/>
      <point x="367" y="564" type="line"/>
      <point x="374" y="451" type="line"/>
      <point x="393" y="451" type="line"/>
      <point x="399" y="591" type="line"/>
      <point x="25" y="591" type="line"/>
      <point x="31" y="451" type="line"/>
      <point x="50" y="451" type="line"/>
      <point x="57" y="564" type="line"/>
      <point x="197" y="564" type="line"/>
      <point x="197" y="25" type="line"/>
      <point x="130" y="17" type="line"/>
    </contour>
  </outline>
</glyph>
<glyph name="U" format="2">
  <advance width="528"/>
  <unicode hex="0055"/>
  <anchor x="279" y="0" name="bottom"/>
  <anchor x="460" y="0" name="ogonek"/>
  <anchor x="257" y="591" name="top"/>
  <outline>
    <contour>
      <point x="213" y="-10" type="curve" smooth="yes"/>
      <point x="248" y="-10"/>
      <point x="362" y="34"/>
      <point x="394" y="45" type="curve"/>
      <point x="402" y="0" type="line"/>
      <point x="481" y="0" type="line"/>
      <point x="481" y="17" type="line"/>
      <point x="424" y="25" type="line"/>
      <point x="424" y="566" type="line"/>
      <point x="481" y="574" type="line"/>
      <point x="481" y="591" type="line"/>
      <point x="333" y="591" type="line"/>
      <point x="333" y="573" type="line"/>
      <point x="394" y="564" type="line"/>
      <point x="394" y="71" type="line"/>
      <point x="336" y="50"/>
      <point x="253" y="19"/>
      <point x="206" y="19" type="curve" smooth="yes"/>
      <point x="154" y="19"/>
      <point x="127" y="50"/>
      <point x="127" y="128" type="curve" smooth="yes"/>
      <point x="127" y="564" type="line"/>
      <point x="188" y="573" type="line"/>
      <point x="188" y="591" type="line"/>
      <point x="40" y="591" type="line"/>
      <point x="40" y="574" type="line"/>
      <point x="97" y="566" type="line"/>
      <point x="97" y="136" type="line" smooth="yes"/>
      <point x="97" y="32"/>
      <point x="132" y="-10"/>
    </contour>
  </outline>
</glyph>
<glyph name="V" format="2">
  <advance width="503"/>
  <unicode hex="0056"/>
  <outline>
    <contour>
      <point x="239" y="-10" type="curve" smooth="yes"/>
      <point x="244" y="-10"/>
      <point x="275" y="-5"/>
      <point x="275" y="-5" type="curve"/>
      <point x="325" y="185"/>
      <point x="374" y="376"/>
      <point x="424" y="566" type="curve"/>
      <point x="481" y="574" type="line"/>
      <point x="481" y="591" type="line"/>
      <point x="333" y="591" type="line"/>
      <point x="333" y="573" type="line"/>
      <point x="395" y="564" type="line"/>
      <point x="348" y="384"/>
      <point x="302" y="201"/>
      <point x="255" y="21" type="curve"/>
      <point x="247" y="21" type="line"/>
      <point x="247" y="21"/>
      <point x="217" y="141"/>
      <point x="200" y="208" type="curve"/>
      <point x="108" y="564" type="line"/>
      <point x="168" y="573" type="line"/>
      <point x="168" y="591" type="line"/>
      <point x="20" y="591" type="line"/>
      <point x="20" y="574" type="line"/>
      <point x="77" y="566" type="line"/>
      <point x="225" y="-2" type="line"/>
      <point x="225" y="-2"/>
      <point x="236" y="-10"/>
    </contour>
  </outline>
</glyph>
<glyph name="W" format="2">
  <advance width="740"/>
  <unicode hex="0057"/>
  <anchor x="369" y="591" name="top"/>
  <outline>
    <contour>
      <point x="234" y="-10" type="curve" smooth="yes"/>
      <point x="239" y="-10"/>
      <point x="270" y="-5"/>
      <point x="270" y="-5" type="curve"/>
      <point x="366" y="388" type="line"/>
      <point x="372" y="388" type="line"/>
      <point x="467" y="-2" type="line"/>
      <point x="467" y="-2"/>
      <point x="478" y="-10"/>
      <point x="481" y="-10" type="curve" smooth="yes"/>
      <point x="486" y="-10"/>
      <point x="517" y="-5"/>
      <point x="517" y="-5" type="curve"/>
      <point x="565" y="185"/>
      <point x="613" y="376"/>
      <point x="661" y="566" type="curve"/>
      <point x="718" y="573" type="line"/>
      <point x="718" y="591" type="line"/>
      <point x="563" y="591" type="line"/>
      <point x="563" y="574" type="line"/>
      <point x="632" y="564" type="line"/>
      <point x="587" y="384"/>
      <point x="542" y="201"/>
      <point x="497" y="21" type="curve"/>
      <point x="489" y="21" type="line"/>
      <point x="489" y="21"/>
      <point x="449" y="186"/>
      <point x="435" y="243" type="curve" smooth="yes"/>
      <point x="355" y="564" type="line"/>
      <point x="425" y="573" type="line"/>
      <point x="425" y="591" type="line"/>
      <point x="276" y="591" type="line"/>
      <point x="276" y="574" type="line"/>
      <point x="324" y="566" type="line"/>
      <point x="356" y="444" type="line"/>
      <point x="321" y="304"/>
      <point x="285" y="161"/>
      <point x="250" y="21" type="curve"/>
      <point x="242" y="21" type="line"/>
      <point x="242" y="21"/>
      <point x="202" y="188"/>
      <point x="188" y="243" type="curve" smooth="yes"/>
      <point x="108" y="564" type="line"/>
      <point x="163" y="573" type="line"/>
      <point x="163" y="591" type="line"/>
      <point x="20" y="591" type="line"/>
      <point x="20" y="574" type="line"/>
      <point x="77" y="566" type="line"/>
      <point x="220" y="-2" type="line"/>
      <point x="220" y="-2"/>
      <point x="231" y="-10"/>
    </contour>
  </outline>
</glyph>
<glyph name="X" format="2">
  <advance width="545"/>
  <unicode hex="0058"/>
  <outline>
    <contour>
      <point x="16" y="0" type="line"/>
      <point x="169" y="0" type="line"/>
      <point x="169" y="18" type="line"/>
      <point x="105" y="27" type="line"/>
      <point x="270" y="291" type="line"/>
      <point x="272" y="291" type="line"/>
      <point x="436" y="27" type="line"/>
      <point x="374" y="18" type="line"/>
      <point x="374" y="0" type="line"/>
      <point x="527" y="0" type="line"/>
      <point x="527" y="17" type="line"/>
      <point x="472" y="25" type="line"/>
      <point x="288" y="319" type="line"/>
      <point x="443" y="566" type="line"/>
      <point x="502" y="574" type="line"/>
      <point x="502" y="591" type="line"/>
      <point x="349" y="591" type="line"/>
      <point x="349" y="573" type="line"/>
      <point x="410" y="564" type="line"/>
      <point x="274" y="345" type="line"/>
      <point x="272" y="345" type="line"/>
      <point x="136" y="564" type="line"/>
      <point x="194" y="573" type="line"/>
      <point x="194" y="591" type="line"/>
      <point x="41" y="591" type="line"/>
      <point x="41" y="574" type="line"/>
      <point x="100" y="566" type="line"/>
      <point x="255" y="318" type="line"/>
      <point x="72" y="25" type="line"/>
      <point x="16" y="17" type="line"/>
    </contour>
  </outline>
</glyph>
<glyph name="Y" format="2">
  <advance width="503"/>
  <unicode hex="0059"/>
  <anchor x="251" y="0" name="bottom"/>
  <anchor x="255" y="591" name="top"/>
  <outline>
    <contour>
      <point x="179" y="0" type="line"/>
      <point x="327" y="0" type="line"/>
      <point x="327" y="18" type="line"/>
      <point x="266" y="27" type="line"/>
      <point x="266" y="239" type="line"/>
      <point x="319" y="348"/>
      <point x="373" y="457"/>
      <point x="426" y="566" type="curve"/>
      <point x="482" y="574" type="line"/>
      <point x="482" y="591" type="line"/>
      <point x="334" y="591" type="line"/>
      <point x="334" y="573" type="line"/>
      <point x="395" y="564" type="line"/>
      <point x="349" y="467"/>
      <point x="302" y="370"/>
      <point x="256" y="273" type="curve"/>
      <point x="249" y="273" type="line"/>
      <point x="203" y="370"/>
      <point x="156" y="467"/>
      <point x="110" y="564" type="curve"/>
      <point x="169" y="573" type="line"/>
      <point x="169" y="591" type="line"/>
      <point x="21" y="591" type="line"/>
      <point x="21" y="574" type="line"/>
      <point x="77" y="566" type="line"/>
      <point x="236" y="239" type="line"/>
      <point x="236" y="25" type="line"/>
      <point x="179" y="17" type="line"/>
    </contour>
  </outline>
</glyph>
<glyph name="Z" format="2">
  <advance width="445"/>
  <unicode hex="005A"/>
  <anchor x="223" y="0" name="bottom"/>
  <anchor x="223" y="591" name="top"/>
  <outline>
    <contour>
      <point x="50" y="0" type="line"/>
      <point x="395" y="0" type="line"/>
      <point x="392" y="122" type="line"/>
      <point x="373" y="122" type="line"/>
      <point x="363" y="27" type="line"/>
      <point x="87" y="27" type="line"/>
      <point x="384" y="571" type="line"/>
      <point x="384" y="591" type="line"/>
      <point x="64" y="591" type="line"/>
      <point x="70" y="469" type="line"/>
      <point x="89" y="469" type="line"/>
      <point x="96" y="564" type="line"/>
      <point x="345" y="564" type="line"/>
      <point x="50" y="20" type="line"/>
    </contour>
  </outline>
</glyph>
<glyph name="bracketleft" format="2">
  <advance width="213"/>
  <unicode hex="005B"/>
  <outline>
    <contour>
      <point x="168" y="-107" type="line"/>
      <point x="170" y="-92" type="line"/>
      <point x="96" y="-80" type="line"/>
      <point x="96" y="648" type="line"/>
      <point x="170" y="659" type="line"/>
      <point x="168" y="675" type="line"/>
      <point x="70" y="669" type="line"/>
      <point x="70" y="-101" type="line"/>
    </contour>
  </outline>
</glyph>
<glyph name="backslash" format="2">
  <advance width="285"/>
  <unicode hex="005C"/>
  <outline>
    <contour>
      <point x="235" y="-118" type="line"/>
      <point x="259" y="-118" type="line"/>
      <point x="50" y="687" type="line"/>
      <point x="26" y="687" type="line"/>
    </contour>
  </outline>
</glyph>
<glyph name="bracketright" format="2">
  <advance width="213"/>
  <unicode hex="005D"/>
  <outline>
    <contour>
      <point x="45" y="-107" type="line"/>
      <point x="143" y="-101" type="line"/>
      <point x="143" y="669" type="line"/>
      <point x="45" y="675" type="line"/>
      <point x="43" y="660" type="line"/>
      <point x="117" y="648" type="line"/>
      <point x="117" y="-80" type="line"/>
      <point x="43" y="-91" type="line"/>
    </contour>
  </outline>
</glyph>
<glyph name="asciicircum" format="2">
  <advance width="488"/>
  <unicode hex="005E"/>
  <outline>
    <contour>
      <point x="77" y="266" type="line"/>
      <point x="244" y="584" type="line"/>
      <point x="411" y="266" type="line"/>
      <point x="428" y="275" type="line"/>
      <point x="257" y="603" type="line"/>
      <point x="231" y="603" type="line"/>
      <point x="60" y="275" type="line"/>
    </contour>
  </outline>
</glyph>
<glyph name="underscore" format="2">
  <advance width="414"/>
  <unicode hex="005F"/>
  <outline>
    <contour>
      <point x="35" y="-90" type="line"/>
      <point x="379" y="-90" type="line"/>
      <point x="379" y="-72" type="line"/>
      <point x="35" y="-72" type="line"/>
    </contour>
  </outline>
</glyph>
<glyph name="grave" format="2">
  <advance width="137"/>
  <unicode hex="0060"/>
  <outline>
    <contour>
      <point x="127" y="537" type="line"/>
      <point x="137" y="549" type="line"/>
      <point x="17" y="648" type="line"/>
      <point x="1" y="634" type="line"/>
      <point x="0" y="620" type="line"/>
    </contour>
  </outline>
</glyph>
<glyph name="a" format="2">
  <advance width="433"/>
  <unicode hex="0061"/>
  <anchor x="229" y="0" name="bottom"/>
  <anchor x="381" y="2" name="ogonek"/>
  <anchor x="222" y="440" name="top"/>
  <outline>
    <contour>
      <point x="216" y="-10" type="curve" smooth="yes"/>
      <point x="224" y="-10"/>
      <point x="279" y="38"/>
      <point x="317" y="69" type="curve"/>
      <point x="315" y="7" type="line" smooth="yes"/>
      <point x="315" y="3"/>
      <point x="332" y="-10"/>
      <point x="335" y="-10" type="curve" smooth="yes"/>
      <point x="341" y="-10"/>
      <point x="377" y="-3"/>
      <point x="402" y="2" type="curve"/>
      <point x="402" y="19" type="line"/>
      <point x="344" y="19" type="line"/>
      <point x="344" y="432" type="line"/>
      <point x="299" y="439"/>
      <point x="230" y="450"/>
      <point x="209" y="450" type="curve" smooth="yes"/>
      <point x="190" y="450"/>
      <point x="127" y="419"/>
      <point x="87" y="360" type="curve"/>
      <point x="70" y="326"/>
      <point x="54" y="269"/>
      <point x="54" y="195" type="curve" smooth="yes"/>
      <point x="54" y="94"/>
      <point x="87" y="-10"/>
    </contour>
    <contour>
      <point x="209" y="17" type="curve" smooth="yes"/>
      <point x="140" y="17"/>
      <point x="83" y="59"/>
      <point x="83" y="202" type="curve" smooth="yes"/>
      <point x="83" y="306"/>
      <point x="109" y="380"/>
      <point x="195" y="419" type="curve" smooth="yes"/>
      <point x="221" y="431"/>
      <point x="273" y="419"/>
      <point x="315" y="409" type="curve"/>
      <point x="315" y="98" type="line"/>
      <point x="279" y="68"/>
      <point x="220" y="17"/>
    </contour>
  </outline>
</glyph>
<glyph name="b" format="2">
  <advance width="435"/>
  <unicode hex="0062"/>
  <outline>
    <contour>
      <point x="225" y="-10" type="curve" smooth="yes"/>
      <point x="244" y="-10"/>
      <point x="307" y="21"/>
      <point x="347" y="80" type="curve"/>
      <point x="364" y="114"/>
      <point x="380" y="171"/>
      <point x="380" y="245" type="curve" smooth="yes"/>
      <point x="380" y="346"/>
      <point x="347" y="450"/>
      <point x="218" y="450" type="curve" smooth="yes"/>
      <point x="210" y="450"/>
      <point x="158" y="405"/>
      <point x="120" y="374" type="curve"/>
      <point x="118" y="375" type="line"/>
      <point x="119" y="619" type="line" smooth="yes"/>
      <point x="119" y="623"/>
      <point x="102" y="636"/>
      <point x="99" y="636" type="curve" smooth="yes"/>
      <point x="91" y="636"/>
      <point x="49" y="628"/>
      <point x="32" y="624" type="curve"/>
      <point x="32" y="607" type="line"/>
      <point x="90" y="607" type="line"/>
      <point x="90" y="8" type="line"/>
      <point x="133" y="1"/>
      <point x="204" y="-10"/>
    </contour>
    <contour>
      <point x="239" y="21" type="curve" smooth="yes"/>
      <point x="213" y="9"/>
      <point x="154" y="23"/>
      <point x="119" y="31" type="curve"/>
      <point x="119" y="342" type="line"/>
      <point x="155" y="372"/>
      <point x="214" y="423"/>
      <point x="225" y="423" type="curve" smooth="yes"/>
      <point x="294" y="423"/>
      <point x="351" y="381"/>
      <point x="351" y="238" type="curve" smooth="yes"/>
      <point x="351" y="134"/>
      <point x="325" y="61"/>
    </contour>
  </outline>
</glyph>
<glyph name="c" format="2">
  <advance width="322"/>
  <unicode hex="0063"/>
  <anchor x="188" y="0" name="bottom"/>
  <anchor x="189" y="440" name="top"/>
  <outline>
    <contour>
      <point x="213" y="-10" type="curve" smooth="yes"/>
      <point x="225" y="-10"/>
      <point x="280" y="-2"/>
      <point x="296" y="1" type="curve"/>
      <point x="296" y="18" type="line"/>
      <point x="221" y="15" type="line"/>
      <point x="138" y="15"/>
      <point x="83" y="59"/>
      <point x="83" y="202" type="curve" smooth="yes"/>
      <point x="83" y="323"/>
      <point x="114" y="363"/>
      <point x="149" y="392" type="curve" smooth="yes"/>
      <point x="173" y="412"/>
      <point x="198" y="425"/>
      <point x="213" y="425" type="curve" smooth="yes"/>
      <point x="226" y="425"/>
      <point x="247" y="422"/>
      <point x="266" y="418" type="curve"/>
      <point x="273" y="332" type="line"/>
      <point x="292" y="332" type="line"/>
      <point x="294" y="440" type="line"/>
      <point x="266" y="445"/>
      <point x="222" y="450"/>
      <point x="209" y="450" type="curve" smooth="yes"/>
      <point x="190" y="450"/>
      <point x="125" y="419"/>
      <point x="86" y="360" type="curve"/>
      <point x="67" y="325"/>
      <point x="54" y="269"/>
      <point x="54" y="195" type="curve" smooth="yes"/>
      <point x="54" y="65"/>
      <point x="109" y="-10"/>
    </contour>
  </outline>
</glyph>
<glyph name="d" format="2">
  <advance width="438"/>
  <unicode hex="0064"/>
  <anchor x="218" y="0" name="bottom"/>
  <anchor x="301" y="525" name="center"/>
  <anchor x="208" y="750" name="top"/>
  <anchor x="416" y="440" name="topright"/>
  <outline>
    <contour>
      <point x="216" y="-10" type="curve" smooth="yes"/>
      <point x="223" y="-10"/>
      <point x="277" y="36"/>
      <point x="315" y="67" type="curve"/>
      <point x="315" y="7" type="line" smooth="yes"/>
      <point x="315" y="3"/>
      <point x="332" y="-10"/>
      <point x="335" y="-10" type="curve" smooth="yes"/>
      <point x="343" y="-10"/>
      <point x="402" y="2"/>
      <point x="402" y="2" type="curve"/>
      <point x="402" y="19" type="line"/>
      <point x="344" y="19" type="line"/>
      <point x="344" y="430" type="line"/>
      <point x="347" y="620" type="line" smooth="yes"/>
      <point x="347" y="624"/>
      <point x="330" y="637"/>
      <point x="327" y="637" type="curve" smooth="yes"/>
      <point x="318" y="637"/>
      <point x="257" y="625"/>
      <point x="257" y="625" type="curve"/>
      <point x="257" y="608" type="line"/>
      <point x="315" y="608" type="line"/>
      <point x="315" y="437" type="line"/>
      <point x="277" y="442"/>
      <point x="227" y="450"/>
      <point x="209" y="450" type="curve" smooth="yes"/>
      <point x="190" y="450"/>
      <point x="127" y="419"/>
      <point x="87" y="360" type="curve"/>
      <point x="70" y="326"/>
      <point x="54" y="269"/>
      <point x="54" y="195" type="curve" smooth="yes"/>
      <point x="54" y="94"/>
      <point x="87" y="-10"/>
    </contour>
    <contour>
      <point x="209" y="17" type="curve" smooth="yes"/>
      <point x="140" y="17"/>
      <point x="83" y="59"/>
      <point x="83" y="202" type="curve" smooth="yes"/>
      <point x="83" y="306"/>
      <point x="109" y="380"/>
      <point x="195" y="419" type="curve" smooth="yes"/>
      <point x="221" y="431"/>
      <point x="273" y="419"/>
      <point x="315" y="408" type="curve"/>
      <point x="315" y="98" type="line"/>
      <point x="278" y="66"/>
      <point x="219" y="17"/>
    </contour>
  </outline>
</glyph>
<glyph name="e" format="2">
  <advance width="384"/>
  <unicode hex="0065"/>
  <anchor x="221" y="0" name="bottom"/>
  <anchor x="312" y="8" name="ogonek"/>
  <anchor x="206" y="440" name="top"/>
  <outline>
    <contour>
      <point x="213" y="-10" type="curve" smooth="yes"/>
      <point x="242" y="-10"/>
      <point x="296" y="1"/>
      <point x="333" y="8" type="curve"/>
      <point x="333" y="26" type="line"/>
      <point x="304" y="23"/>
      <point x="229" y="15"/>
      <point x="221" y="15" type="curve" smooth="yes"/>
      <point x="138" y="15"/>
      <point x="83" y="61"/>
      <point x="83" y="213" type="curve"/>
      <point x="350" y="238" type="line"/>
      <point x="348" y="394"/>
      <point x="300" y="450"/>
      <point x="209" y="450" type="curve" smooth="yes"/>
      <point x="190" y="450"/>
      <point x="125" y="419"/>
      <point x="86" y="360" type="curve"/>
      <point x="67" y="325"/>
      <point x="54" y="269"/>
      <point x="54" y="205" type="curve" smooth="yes"/>
      <point x="54" y="69"/>
      <point x="103" y="-10"/>
    </contour>
    <contour>
      <point x="84" y="238" type="line"/>
      <point x="88" y="323"/>
      <point x="113" y="362"/>
      <point x="148" y="391" type="curve" smooth="yes"/>
      <point x="172" y="411"/>
      <point x="198" y="425"/>
      <point x="213" y="425" type="curve" smooth="yes"/>
      <point x="289" y="425"/>
      <point x="317" y="358"/>
      <point x="320" y="260" type="curve"/>
    </contour>
  </outline>
</glyph>
<glyph name="f" format="2">
  <advance width="190"/>
  <unicode hex="0066"/>
  <anchor x="127" y="611" name="top"/>
  <outline>
    <contour>
      <point x="88" y="-10" type="curve" smooth="yes"/>
      <point x="97" y="-10"/>
      <point x="155" y="2"/>
      <point x="155" y="2" type="curve"/>
      <point x="155" y="19" type="line"/>
      <point x="97" y="19" type="line"/>
      <point x="97" y="415" type="line"/>
      <point x="192" y="415" type="line"/>
      <point x="192" y="440" type="line"/>
      <point x="97" y="440" type="line"/>
      <point x="97" y="515" type="line" smooth="yes"/>
      <point x="97" y="586"/>
      <point x="127" y="611"/>
      <point x="131" y="611" type="curve" smooth="yes"/>
      <point x="155" y="611"/>
      <point x="235" y="600"/>
      <point x="235" y="600" type="curve"/>
      <point x="235" y="600"/>
      <point x="245" y="616"/>
      <point x="245" y="619" type="curve" smooth="yes"/>
      <point x="245" y="623"/>
      <point x="235" y="631"/>
      <point x="235" y="631" type="curve"/>
      <point x="235" y="631"/>
      <point x="170" y="637"/>
      <point x="137" y="637" type="curve" smooth="yes"/>
      <point x="98" y="637"/>
      <point x="68" y="580"/>
      <point x="68" y="513" type="curve" smooth="yes"/>
      <point x="68" y="442" type="line"/>
      <point x="20" y="435" type="line"/>
      <point x="20" y="415" type="line"/>
      <point x="68" y="415" type="line"/>
      <point x="68" y="7" type="line" smooth="yes"/>
      <point x="68" y="3"/>
      <point x="85" y="-10"/>
    </contour>
  </outline>
</glyph>
<glyph name="g" format="2">
  <advance width="387"/>
  <unicode hex="0067"/>
  <anchor x="215" y="440" name="top"/>
  <outline>
    <contour>
      <point x="262" y="-175" type="curve" smooth="yes"/>
      <point x="304" y="-175"/>
      <point x="331" y="-110"/>
      <point x="331" y="-52" type="curve" smooth="yes"/>
      <point x="331" y="434" type="line"/>
      <point x="287" y="441"/>
      <point x="224" y="450"/>
      <point x="203" y="450" type="curve" smooth="yes"/>
      <point x="182" y="450"/>
      <point x="121" y="422"/>
      <point x="83" y="361" type="curve"/>
      <point x="67" y="326"/>
      <point x="54" y="285"/>
      <point x="54" y="212" type="curve" smooth="yes"/>
      <point x="54" y="120"/>
      <point x="86" y="33"/>
      <point x="191" y="26" type="curve"/>
      <point x="47" y="-110" type="line"/>
      <point x="44" y="-139" type="line"/>
      <point x="88" y="-152"/>
      <point x="181" y="-175"/>
    </contour>
    <contour>
      <point x="265" y="-151" type="curve" smooth="yes"/>
      <point x="189" y="-151"/>
      <point x="98" y="-129"/>
      <point x="74" y="-122" type="curve"/>
      <point x="74" y="-119" type="line"/>
      <point x="110" y="-83"/>
      <point x="247" y="46"/>
      <point x="300" y="95" type="curve"/>
      <point x="302" y="93" type="line"/>
      <point x="302" y="-46" type="line" smooth="yes"/>
      <point x="302" y="-124"/>
      <point x="267" y="-151"/>
    </contour>
    <contour>
      <point x="209" y="51" type="curve" smooth="yes"/>
      <point x="144" y="51"/>
      <point x="83" y="77"/>
      <point x="83" y="219" type="curve" smooth="yes"/>
      <point x="83" y="367"/>
      <point x="149" y="403"/>
      <point x="185" y="418" type="curve" smooth="yes"/>
      <point x="209" y="428"/>
      <point x="246" y="422"/>
      <point x="302" y="411" type="curve"/>
      <point x="302" y="130" type="line"/>
      <point x="266" y="96"/>
      <point x="216" y="51"/>
    </contour>
  </outline>
</glyph>
<glyph name="h" format="2">
  <advance width="454"/>
  <unicode hex="0068"/>
  <anchor x="248" y="0" name="bottom"/>
  <anchor x="130" y="525" name="center"/>
  <anchor x="93" y="601" name="top"/>
  <outline>
    <contour>
      <point x="109" y="-10" type="curve" smooth="yes"/>
      <point x="118" y="-10"/>
      <point x="176" y="2"/>
      <point x="176" y="2" type="curve"/>
      <point x="176" y="19" type="line"/>
      <point x="118" y="19" type="line"/>
      <point x="118" y="342" type="line"/>
      <point x="155" y="372"/>
      <point x="221" y="423"/>
      <point x="226" y="423" type="curve" smooth="yes"/>
      <point x="285" y="423"/>
      <point x="339" y="413"/>
      <point x="339" y="290" type="curve" smooth="yes"/>
      <point x="339" y="7" type="line" smooth="yes"/>
      <point x="339" y="3"/>
      <point x="354" y="-10"/>
      <point x="359" y="-10" type="curve" smooth="yes"/>
      <point x="368" y="-10"/>
      <point x="426" y="2"/>
      <point x="426" y="2" type="curve"/>
      <point x="426" y="19" type="line"/>
      <point x="368" y="19" type="line"/>
      <point x="368" y="276" type="line" smooth="yes"/>
      <point x="368" y="411"/>
      <point x="331" y="450"/>
      <point x="220" y="450" type="curve" smooth="yes"/>
      <point x="215" y="450"/>
      <point x="148" y="397"/>
      <point x="118" y="373" type="curve"/>
      <point x="116" y="374" type="line"/>
      <point x="118" y="620" type="line" smooth="yes"/>
      <point x="118" y="624"/>
      <point x="101" y="637"/>
      <point x="98" y="637" type="curve" smooth="yes"/>
      <point x="89" y="637"/>
      <point x="31" y="625"/>
      <point x="31" y="625" type="curve"/>
      <point x="31" y="608" type="line"/>
      <point x="89" y="608" type="line"/>
      <point x="89" y="7" type="line" smooth="yes"/>
      <point x="89" y="3"/>
      <point x="106" y="-10"/>
    </contour>
  </outline>
</glyph>
<glyph name="j" format="2">
  <advance width="165"/>
  <unicode hex="006A"/>
  <outline>
    <contour>
      <point x="39" y="-175" type="curve" smooth="yes"/>
      <point x="73" y="-175"/>
      <point x="108" y="-118"/>
      <point x="108" y="-51" type="curve" smooth="yes"/>
      <point x="108" y="433" type="line" smooth="yes"/>
      <point x="108" y="437"/>
      <point x="91" y="450"/>
      <point x="88" y="450" type="curve" smooth="yes"/>
      <point x="81" y="450"/>
      <point x="46" y="443"/>
      <point x="21" y="438" type="curve"/>
      <point x="21" y="421" type="line"/>
      <point x="79" y="421" type="line"/>
      <point x="79" y="-53" type="line" smooth="yes"/>
      <point x="79" y="-116"/>
      <point x="48" y="-149"/>
      <point x="41" y="-149" type="curve" smooth="yes"/>
      <point x="32" y="-149"/>
      <point x="-14" y="-149"/>
      <point x="-27" y="-149" type="curve"/>
      <point x="-27" y="-166" type="line"/>
      <point x="-9" y="-169"/>
      <point x="28" y="-175"/>
    </contour>
    <contour>
      <point x="81" y="551" type="line"/>
      <point x="105" y="551" type="line"/>
      <point x="111" y="607" type="line"/>
      <point x="103" y="617" type="line"/>
      <point x="75" y="614" type="line"/>
    </contour>
  </outline>
</glyph>
<glyph name="k" format="2">
  <advance width="440"/>
  <unicode hex="006B"/>
  <anchor x="227" y="0" name="bottom"/>
  <outline>
    <contour>
      <point x="358" y="-10" type="curve" smooth="yes"/>
      <point x="363" y="-10"/>
      <point x="394" y="-3"/>
      <point x="416" y="2" type="curve"/>
      <point x="416" y="19" type="line"/>
      <point x="356" y="19" type="line"/>
      <point x="190" y="239" type="line"/>
      <point x="388" y="427" type="line"/>
      <point x="388" y="430"/>
      <point x="380" y="450"/>
      <point x="376" y="450" type="curve" smooth="yes"/>
      <point x="369" y="450"/>
      <point x="315" y="445"/>
      <point x="276" y="442" type="curve"/>
      <point x="276" y="422" type="line"/>
      <point x="346" y="422" type="line"/>
      <point x="157" y="243" type="line"/>
      <point x="157" y="236" type="line"/>
      <point x="329" y="7" type="line" smooth="yes"/>
      <point x="335" y="-1"/>
      <point x="352" y="-10"/>
    </contour>
    <contour>
      <point x="109" y="-10" type="curve" smooth="yes"/>
      <point x="116" y="-10"/>
      <point x="151" y="-3"/>
      <point x="176" y="2" type="curve"/>
      <point x="176" y="19" type="line"/>
      <point x="118" y="19" type="line"/>
      <point x="118" y="620" type="line" smooth="yes"/>
      <point x="118" y="624"/>
      <point x="101" y="637"/>
      <point x="98" y="637" type="curve" smooth="yes"/>
      <point x="91" y="637"/>
      <point x="56" y="630"/>
      <point x="31" y="625" type="curve"/>
      <point x="31" y="608" type="line"/>
      <point x="89" y="608" type="line"/>
      <point x="89" y="7" type="line" smooth="yes"/>
      <point x="89" y="3"/>
      <point x="106" y="-10"/>
    </contour>
  </outline>
</glyph>
<glyph name="l" format="2">
  <advance width="212"/>
  <unicode hex="006C"/>
  <anchor x="109" y="0" name="bottom"/>
  <anchor x="103" y="338" name="center"/>
  <anchor x="104" y="591" name="top"/>
  <anchor x="190" y="440" name="topright"/>
  <outline>
    <contour>
      <point x="109" y="-10" type="curve" smooth="yes"/>
      <point x="118" y="-10"/>
      <point x="176" y="2"/>
      <point x="176" y="2" type="curve"/>
      <point x="176" y="19" type="line"/>
      <point x="118" y="19" type="line"/>
      <point x="118" y="620" type="line" smooth="yes"/>
      <point x="118" y="624"/>
      <point x="101" y="637"/>
      <point x="98" y="637" type="curve" smooth="yes"/>
      <point x="89" y="637"/>
      <point x="31" y="625"/>
      <point x="31" y="625" type="curve"/>
      <point x="31" y="608" type="line"/>
      <point x="89" y="608" type="line"/>
      <point x="89" y="7" type="line" smooth="yes"/>
      <point x="89" y="3"/>
      <point x="106" y="-10"/>
    </contour>
  </outline>
</glyph>
<glyph name="m" format="2">
  <advance width="680"/>
  <unicode hex="006D"/>
  <outline>
    <contour>
      <point x="109" y="-11" type="curve" smooth="yes"/>
      <point x="118" y="-11"/>
      <point x="176" y="1"/>
      <point x="176" y="1" type="curve"/>
      <point x="176" y="18" type="line"/>
      <point x="118" y="18" type="line"/>
      <point x="118" y="342" type="line"/>
      <point x="118" y="342"/>
      <point x="213" y="423"/>
      <point x="224" y="423" type="curve" smooth="yes"/>
      <point x="279" y="423"/>
      <point x="327" y="415"/>
      <point x="327" y="310" type="curve" smooth="yes"/>
      <point x="327" y="6" type="line" smooth="yes"/>
      <point x="327" y="2"/>
      <point x="341" y="-11"/>
      <point x="347" y="-11" type="curve" smooth="yes"/>
      <point x="356" y="-11"/>
      <point x="414" y="1"/>
      <point x="414" y="1" type="curve"/>
      <point x="414" y="18" type="line"/>
      <point x="356" y="18" type="line"/>
      <point x="356" y="342" type="line"/>
      <point x="356" y="342"/>
      <point x="451" y="423"/>
      <point x="462" y="423" type="curve" smooth="yes"/>
      <point x="516" y="423"/>
      <point x="565" y="413"/>
      <point x="565" y="290" type="curve" smooth="yes"/>
      <point x="565" y="6" type="line" smooth="yes"/>
      <point x="565" y="2"/>
      <point x="579" y="-11"/>
      <point x="585" y="-11" type="curve" smooth="yes"/>
      <point x="594" y="-11"/>
      <point x="652" y="1"/>
      <point x="652" y="1" type="curve"/>
      <point x="652" y="18" type="line"/>
      <point x="594" y="18" type="line"/>
      <point x="594" y="276" type="line" smooth="yes"/>
      <point x="594" y="411"/>
      <point x="558" y="450"/>
      <point x="452" y="450" type="curve" smooth="yes"/>
      <point x="447" y="450"/>
      <point x="376" y="392"/>
      <point x="352" y="371" type="curve"/>
      <point x="336" y="425"/>
      <point x="294" y="450"/>
      <point x="218" y="450" type="curve" smooth="yes"/>
      <point x="213" y="450"/>
      <point x="141" y="394"/>
      <point x="116" y="371" type="curve"/>
      <point x="118" y="433" type="line" smooth="yes"/>
      <point x="118" y="437"/>
      <point x="101" y="450"/>
      <point x="98" y="450" type="curve" smooth="yes"/>
      <point x="89" y="450"/>
      <point x="31" y="438"/>
      <point x="31" y="438" type="curve"/>
      <point x="31" y="421" type="line"/>
      <point x="89" y="421" type="line"/>
      <point x="89" y="6" type="line" smooth="yes"/>
      <point x="89" y="2"/>
      <point x="106" y="-11"/>
    </contour>
  </outline>
</glyph>
<glyph name="n" format="2">
  <advance width="454"/>
  <unicode hex="006E"/>
  <anchor x="245" y="0" name="bottom"/>
  <anchor x="225" y="440" name="top"/>
  <anchor x="-19" y="448" name="topleft"/>
  <outline>
    <contour>
      <point x="109" y="-10" type="curve" smooth="yes"/>
      <point x="118" y="-10"/>
      <point x="176" y="2"/>
      <point x="176" y="2" type="curve"/>
      <point x="176" y="19" type="line"/>
      <point x="118" y="19" type="line"/>
      <point x="118" y="342" type="line"/>
      <point x="158" y="376"/>
      <point x="218" y="423"/>
      <point x="226" y="423" type="curve" smooth="yes"/>
      <point x="285" y="423"/>
      <point x="339" y="413"/>
      <point x="339" y="290" type="curve" smooth="yes"/>
      <point x="339" y="7" type="line" smooth="yes"/>
      <point x="339" y="3"/>
      <point x="354" y="-10"/>
      <point x="359" y="-10" type="curve" smooth="yes"/>
      <point x="368" y="-10"/>
      <point x="426" y="2"/>
      <point x="426" y="2" type="curve"/>
      <point x="426" y="19" type="line"/>
      <point x="368" y="19" type="line"/>
      <point x="368" y="276" type="line" smooth="yes"/>
      <point x="368" y="411"/>
      <point x="331" y="450"/>
      <point x="220" y="450" type="curve" smooth="yes"/>
      <point x="213" y="450"/>
      <point x="145" y="394"/>
      <point x="116" y="371" type="curve"/>
      <point x="118" y="433" type="line" smooth="yes"/>
      <point x="118" y="437"/>
      <point x="101" y="450"/>
      <point x="98" y="450" type="curve" smooth="yes"/>
      <point x="89" y="450"/>
      <point x="31" y="438"/>
      <point x="31" y="438" type="curve"/>
      <point x="31" y="421" type="line"/>
      <point x="89" y="421" type="line"/>
      <point x="89" y="7" type="line" smooth="yes"/>
      <point x="89" y="3"/>
      <point x="106" y="-10"/>
    </contour>
  </outline>
</glyph>
<glyph name="o" format="2">
  <advance width="439"/>
  <unicode hex="006F"/>
  <anchor x="214" y="0" name="bottom"/>
  <anchor x="225" y="217" name="center"/>
  <anchor x="234" y="0" name="ogonek"/>
  <anchor x="224" y="440" name="top"/>
  <anchor x="274" y="440" name="topright"/>
  <outline>
    <contour>
      <point x="225" y="-10" type="curve" smooth="yes"/>
      <point x="247" y="-10"/>
      <point x="318" y="33"/>
      <point x="345" y="67" type="curve"/>
      <point x="369" y="99"/>
      <point x="385" y="168"/>
      <point x="385" y="235" type="curve" smooth="yes"/>
      <point x="385" y="379"/>
      <point x="321" y="450"/>
      <point x="209" y="450" type="curve" smooth="yes"/>
      <point x="190" y="450"/>
      <point x="125" y="419"/>
      <point x="86" y="360" type="curve"/>
      <point x="67" y="325"/>
      <point x="54" y="269"/>
      <point x="54" y="205" type="curve" smooth="yes"/>
      <point x="54" y="56"/>
      <point x="121" y="-10"/>
    </contour>
    <contour>
      <point x="221" y="16" type="curve" smooth="yes"/>
      <point x="119" y="19"/>
      <point x="83" y="101"/>
      <point x="83" y="205" type="curve" smooth="yes"/>
      <point x="83" y="302"/>
      <point x="101" y="352"/>
      <point x="148" y="391" type="curve" smooth="yes"/>
      <point x="172" y="411"/>
      <point x="198" y="425"/>
      <point x="213" y="425" type="curve" smooth="yes"/>
      <point x="304" y="425"/>
      <point x="356" y="355"/>
      <point x="356" y="235" type="curve" smooth="yes"/>
      <point x="356" y="157"/>
      <point x="338" y="99"/>
      <point x="318" y="76" type="curve"/>
      <point x="298" y="53"/>
      <point x="247" y="16"/>
    </contour>
  </outline>
</glyph>
<glyph name="p" format="2">
  <advance width="433"/>
  <unicode hex="0070"/>
  <outline>
    <contour>
      <point x="106" y="-176" type="curve" smooth="yes"/>
      <point x="114" y="-176"/>
      <point x="162" y="-168"/>
      <point x="176" y="-164" type="curve"/>
      <point x="176" y="-147" type="line"/>
      <point x="118" y="-147" type="line"/>
      <point x="118" y="3" type="line"/>
      <point x="159" y="-3"/>
      <point x="207" y="-10"/>
      <point x="224" y="-10" type="curve" smooth="yes"/>
      <point x="243" y="-10"/>
      <point x="306" y="21"/>
      <point x="346" y="80" type="curve"/>
      <point x="363" y="114"/>
      <point x="379" y="171"/>
      <point x="379" y="245" type="curve" smooth="yes"/>
      <point x="379" y="346"/>
      <point x="346" y="450"/>
      <point x="217" y="450" type="curve" smooth="yes"/>
      <point x="209" y="450"/>
      <point x="154" y="402"/>
      <point x="116" y="370" type="curve"/>
      <point x="118" y="433" type="line" smooth="yes"/>
      <point x="118" y="437"/>
      <point x="101" y="450"/>
      <point x="98" y="450" type="curve" smooth="yes"/>
      <point x="91" y="450"/>
      <point x="46" y="442"/>
      <point x="31" y="438" type="curve"/>
      <point x="31" y="421" type="line"/>
      <point x="89" y="421" type="line"/>
      <point x="89" y="11" type="line"/>
      <point x="86" y="-159" type="line" smooth="yes"/>
      <point x="86" y="-163"/>
      <point x="103" y="-176"/>
    </contour>
    <contour>
      <point x="238" y="21" type="curve" smooth="yes"/>
      <point x="212" y="9"/>
      <point x="153" y="23"/>
      <point x="118" y="31" type="curve"/>
      <point x="116" y="340" type="line"/>
      <point x="153" y="370"/>
      <point x="213" y="423"/>
      <point x="224" y="423" type="curve" smooth="yes"/>
      <point x="293" y="423"/>
      <point x="350" y="381"/>
      <point x="350" y="238" type="curve" smooth="yes"/>
      <point x="350" y="134"/>
      <point x="324" y="61"/>
    </contour>
  </outline>
</glyph>
<glyph name="q" format="2">
  <advance width="414"/>
  <unicode hex="0071"/>
  <outline>
    <contour>
      <point x="335" y="-175" type="curve" smooth="yes"/>
      <point x="342" y="-175"/>
      <point x="377" y="-168"/>
      <point x="402" y="-163" type="curve"/>
      <point x="402" y="-146" type="line"/>
      <point x="344" y="-146" type="line"/>
      <point x="344" y="432" type="line"/>
      <point x="299" y="439"/>
      <point x="230" y="450"/>
      <point x="209" y="450" type="curve" smooth="yes"/>
      <point x="190" y="450"/>
      <point x="127" y="419"/>
      <point x="87" y="360" type="curve"/>
      <point x="70" y="326"/>
      <point x="54" y="269"/>
      <point x="54" y="195" type="curve" smooth="yes"/>
      <point x="54" y="94"/>
      <point x="87" y="-10"/>
      <point x="216" y="-10" type="curve" smooth="yes"/>
      <point x="224" y="-10"/>
      <point x="277" y="36"/>
      <point x="315" y="67" type="curve"/>
      <point x="317" y="66" type="line"/>
      <point x="315" y="-158" type="line" smooth="yes"/>
      <point x="315" y="-162"/>
      <point x="332" y="-175"/>
    </contour>
    <contour>
      <point x="209" y="17" type="curve" smooth="yes"/>
      <point x="140" y="17"/>
      <point x="83" y="59"/>
      <point x="83" y="202" type="curve" smooth="yes"/>
      <point x="83" y="306"/>
      <point x="109" y="380"/>
      <point x="195" y="419" type="curve" smooth="yes"/>
      <point x="221" y="431"/>
      <point x="273" y="419"/>
      <point x="315" y="409" type="curve"/>
      <point x="317" y="100" type="line"/>
      <point x="281" y="70"/>
      <point x="220" y="17"/>
    </contour>
  </outline>
</glyph>
<glyph name="r" format="2">
  <advance width="284"/>
  <unicode hex="0072"/>
  <anchor x="187" y="0" name="bottom"/>
  <anchor x="154" y="440" name="top"/>
  <outline>
    <contour>
      <point x="109" y="-10" type="curve" smooth="yes"/>
      <point x="116" y="-10"/>
      <point x="157" y="-3"/>
      <point x="186" y="2" type="curve"/>
      <point x="186" y="19" type="line"/>
      <point x="118" y="19" type="line"/>
      <point x="118" y="342" type="line"/>
      <point x="155" y="378"/>
      <point x="206" y="426"/>
      <point x="213" y="426" type="curve" smooth="yes"/>
      <point x="230" y="426"/>
      <point x="247" y="421"/>
      <point x="260" y="417" type="curve"/>
      <point x="264" y="421"/>
      <point x="270" y="430"/>
      <point x="270" y="433" type="curve" smooth="yes"/>
      <point x="270" y="437"/>
      <point x="267" y="443"/>
      <point x="266" y="445" type="curve"/>
      <point x="258" y="449"/>
      <point x="227" y="454"/>
      <point x="205" y="454" type="curve" smooth="yes"/>
      <point x="200" y="454"/>
      <point x="135" y="391"/>
      <point x="116" y="371" type="curve"/>
      <point x="118" y="433" type="line"/>
      <point x="118" y="437"/>
      <point x="101" y="450"/>
      <point x="98" y="450" type="curve" smooth="yes"/>
      <point x="91" y="450"/>
      <point x="56" y="443"/>
      <point x="31" y="438" type="curve"/>
      <point x="31" y="421" type="line"/>
      <point x="89" y="421" type="line"/>
      <point x="89" y="7" type="line" smooth="yes"/>
      <point x="89" y="3"/>
      <point x="106" y="-10"/>
    </contour>
  </outline>
</glyph>
<glyph name="t" format="2">
  <advance width="264"/>
  <unicode hex="0074"/>
  <anchor x="169" y="0" name="bottom"/>
  <anchor x="130" y="238" name="center"/>
  <anchor x="171" y="440" name="topright"/>
  <outline>
    <contour>
      <point x="132" y="-10" type="curve" smooth="yes"/>
      <point x="143" y="-10"/>
      <point x="208" y="-4"/>
      <point x="231" y="-1" type="curve"/>
      <point x="231" y="16" type="line"/>
      <point x="146" y="18" type="line" smooth="yes"/>
      <point x="130" y="18"/>
      <point x="124" y="24"/>
      <point x="124" y="46" type="curve" smooth="yes"/>
      <point x="124" y="415" type="line"/>
      <point x="227" y="415" type="line"/>
      <point x="227" y="440" type="line"/>
      <point x="124" y="440" type="line"/>
      <point x="124" y="510" type="line"/>
      <point x="119" y="514"/>
      <point x="114" y="517"/>
      <point x="108" y="517" type="curve"/>
      <point x="93" y="443" type="line"/>
      <point x="29" y="434" type="line"/>
      <point x="29" y="415" type="line"/>
      <point x="95" y="415" type="line"/>
      <point x="95" y="31" type="line" smooth="yes"/>
      <point x="95" y="20"/>
      <point x="121" y="-10"/>
    </contour>
  </outline>
</glyph>
<glyph name="u" format="2">
  <advance width="453"/>
  <unicode hex="0075"/>
  <anchor x="224" y="0" name="bottom"/>
  <anchor x="403" y="2" name="ogonek"/>
  <anchor x="216" y="440" name="top"/>
  <anchor x="303" y="440" name="topright"/>
  <outline>
    <contour>
      <point x="237" y="-10" type="curve" smooth="yes"/>
      <point x="242" y="-10"/>
      <point x="314" y="46"/>
      <point x="339" y="69" type="curve"/>
      <point x="337" y="7" type="line" smooth="yes"/>
      <point x="337" y="3"/>
      <point x="354" y="-10"/>
      <point x="357" y="-10" type="curve" smooth="yes"/>
      <point x="366" y="-10"/>
      <point x="424" y="2"/>
      <point x="424" y="2" type="curve"/>
      <point x="424" y="19" type="line"/>
      <point x="366" y="19" type="line"/>
      <point x="366" y="433" type="line" smooth="yes"/>
      <point x="366" y="437"/>
      <point x="349" y="450"/>
      <point x="346" y="450" type="curve" smooth="yes"/>
      <point x="337" y="450"/>
      <point x="279" y="438"/>
      <point x="279" y="438" type="curve"/>
      <point x="279" y="421" type="line"/>
      <point x="337" y="421" type="line"/>
      <point x="337" y="98" type="line"/>
      <point x="337" y="98"/>
      <point x="242" y="17"/>
      <point x="231" y="17" type="curve" smooth="yes"/>
      <point x="172" y="17"/>
      <point x="118" y="27"/>
      <point x="118" y="150" type="curve" smooth="yes"/>
      <point x="118" y="433" type="line" smooth="yes"/>
      <point x="118" y="437"/>
      <point x="103" y="450"/>
      <point x="98" y="450" type="curve" smooth="yes"/>
      <point x="89" y="450"/>
      <point x="31" y="438"/>
      <point x="31" y="438" type="curve"/>
      <point x="31" y="421" type="line"/>
      <point x="89" y="421" type="line"/>
      <point x="89" y="164" type="line" smooth="yes"/>
      <point x="89" y="29"/>
      <point x="126" y="-10"/>
    </contour>
  </outline>
</glyph>
<glyph name="v" format="2">
  <advance width="398"/>
  <unicode hex="0076"/>
  <outline>
    <contour>
      <point x="199" y="-11" type="curve" smooth="yes"/>
      <point x="200" y="-11"/>
      <point x="214" y="-8"/>
      <point x="224" y="-6" type="curve"/>
      <point x="366" y="430" type="line"/>
      <point x="366" y="433"/>
      <point x="356" y="450"/>
      <point x="352" y="450" type="curve" smooth="yes"/>
      <point x="345" y="450"/>
      <point x="292" y="445"/>
      <point x="254" y="441" type="curve"/>
      <point x="254" y="421" type="line"/>
      <point x="334" y="421" type="line"/>
      <point x="210" y="28" type="line"/>
      <point x="208" y="28" type="line"/>
      <point x="185" y="118" type="line"/>
      <point x="94" y="433" type="line" smooth="yes"/>
      <point x="93" y="437"/>
      <point x="80" y="450"/>
      <point x="75" y="450" type="curve" smooth="yes"/>
      <point x="68" y="450"/>
      <point x="34" y="443"/>
      <point x="9" y="438" type="curve"/>
      <point x="9" y="421" type="line"/>
      <point x="68" y="421" type="line"/>
      <point x="192" y="-4" type="line"/>
      <point x="194" y="-7"/>
      <point x="197" y="-11"/>
    </contour>
  </outline>
</glyph>
<glyph name="w" format="2">
  <advance width="585"/>
  <unicode hex="0077"/>
  <anchor x="294" y="440" name="top"/>
  <outline>
    <contour>
      <point x="194" y="-11" type="curve" smooth="yes"/>
      <point x="195" y="-11"/>
      <point x="209" y="-8"/>
      <point x="219" y="-6" type="curve"/>
      <point x="309" y="278" type="line"/>
      <point x="312" y="278" type="line"/>
      <point x="387" y="-4" type="line"/>
      <point x="389" y="-7"/>
      <point x="392" y="-11"/>
      <point x="394" y="-11" type="curve" smooth="yes"/>
      <point x="395" y="-11"/>
      <point x="409" y="-8"/>
      <point x="419" y="-6" type="curve"/>
      <point x="553" y="430" type="line"/>
      <point x="553" y="433"/>
      <point x="543" y="450"/>
      <point x="539" y="450" type="curve" smooth="yes"/>
      <point x="532" y="450"/>
      <point x="478" y="445"/>
      <point x="438" y="441" type="curve"/>
      <point x="438" y="421" type="line"/>
      <point x="521" y="421" type="line"/>
      <point x="405" y="28" type="line"/>
      <point x="403" y="28" type="line"/>
      <point x="383" y="118" type="line"/>
      <point x="299" y="433" type="line" smooth="yes"/>
      <point x="298" y="437"/>
      <point x="285" y="450"/>
      <point x="280" y="450" type="curve" smooth="yes"/>
      <point x="274" y="450"/>
      <point x="242" y="443"/>
      <point x="219" y="438" type="curve"/>
      <point x="219" y="421" type="line"/>
      <point x="273" y="421" type="line"/>
      <point x="299" y="324" type="line"/>
      <point x="205" y="28" type="line"/>
      <point x="203" y="28" type="line"/>
      <point x="182" y="118" type="line"/>
      <point x="94" y="433" type="line" smooth="yes"/>
      <point x="93" y="437"/>
      <point x="80" y="450"/>
      <point x="75" y="450" type="curve" smooth="yes"/>
      <point x="68" y="450"/>
      <point x="34" y="443"/>
      <point x="9" y="438" type="curve"/>
      <point x="9" y="421" type="line"/>
      <point x="68" y="421" type="line"/>
      <point x="187" y="-4" type="line"/>
      <point x="189" y="-7"/>
      <point x="192" y="-11"/>
    </contour>
  </outline>
</glyph>
<glyph name="x" format="2">
  <advance width="391"/>
  <unicode hex="0078"/>
  <outline>
    <contour>
      <point x="28" y="-10" type="curve" smooth="yes"/>
      <point x="37" y="-10"/>
      <point x="122" y="-1"/>
      <point x="122" y="-1" type="curve"/>
      <point x="122" y="19" type="line"/>
      <point x="48" y="19" type="line"/>
      <point x="196" y="208" type="line"/>
      <point x="324" y="7" type="line" smooth="yes"/>
      <point x="326" y="3"/>
      <point x="338" y="-10"/>
      <point x="344" y="-10" type="curve" smooth="yes"/>
      <point x="350" y="-10"/>
      <point x="392" y="2"/>
      <point x="392" y="2" type="curve"/>
      <point x="392" y="19" type="line"/>
      <point x="350" y="19" type="line"/>
      <point x="215" y="229" type="line"/>
      <point x="369" y="426" type="line"/>
      <point x="369" y="429"/>
      <point x="359" y="451"/>
      <point x="355" y="451" type="curve" smooth="yes"/>
      <point x="346" y="451"/>
      <point x="261" y="442"/>
      <point x="261" y="442" type="curve"/>
      <point x="261" y="422" type="line"/>
      <point x="333" y="422" type="line"/>
      <point x="201" y="252" type="line"/>
      <point x="84" y="434" type="line" smooth="yes"/>
      <point x="82" y="438"/>
      <point x="70" y="451"/>
      <point x="66" y="451" type="curve" smooth="yes"/>
      <point x="60" y="451"/>
      <point x="15" y="439"/>
      <point x="15" y="439" type="curve"/>
      <point x="15" y="422" type="line"/>
      <point x="57" y="422" type="line"/>
      <point x="181" y="230" type="line"/>
      <point x="14" y="18" type="line"/>
      <point x="14" y="15"/>
      <point x="24" y="-10"/>
    </contour>
  </outline>
</glyph>
<glyph name="y" format="2">
  <advance width="397"/>
  <unicode hex="0079"/>
  <anchor x="338" y="0" name="bottom"/>
  <anchor x="203" y="440" name="top"/>
  <outline>
    <contour>
      <point x="171" y="-176" type="curve" smooth="yes"/>
      <point x="178" y="-176"/>
      <point x="213" y="-169"/>
      <point x="238" y="-164" type="curve"/>
      <point x="239" y="-147" type="line"/>
      <point x="181" y="-147" type="line"/>
      <point x="225" y="-6" type="line"/>
      <point x="367" y="430" type="line"/>
      <point x="367" y="433"/>
      <point x="356" y="450"/>
      <point x="352" y="450" type="curve" smooth="yes"/>
      <point x="345" y="450"/>
      <point x="292" y="445"/>
      <point x="254" y="441" type="curve"/>
      <point x="254" y="421" type="line"/>
      <point x="334" y="421" type="line"/>
      <point x="210" y="25" type="line"/>
      <point x="205" y="25" type="line"/>
      <point x="183" y="110" type="line"/>
      <point x="95" y="433" type="line" smooth="yes"/>
      <point x="94" y="437"/>
      <point x="80" y="450"/>
      <point x="75" y="450" type="curve" smooth="yes"/>
      <point x="68" y="450"/>
      <point x="34" y="443"/>
      <point x="9" y="438" type="curve"/>
      <point x="9" y="421" type="line"/>
      <point x="68" y="421" type="line"/>
      <point x="186" y="-8" type="line"/>
      <point x="187" y="-9"/>
      <point x="189" y="-11"/>
      <point x="190" y="-11" type="curve" smooth="yes"/>
      <point x="192" y="-11"/>
      <point x="195" y="-10"/>
      <point x="197" y="-10" type="curve"/>
      <point x="151" y="-151" type="line" smooth="yes"/>
      <point x="150" y="-155"/>
      <point x="168" y="-176"/>
    </contour>
  </outline>
</glyph>
<glyph name="z" format="2">
  <advance width="359"/>
  <unicode hex="007A"/>
  <anchor x="190" y="0" name="bottom"/>
  <anchor x="178" y="440" name="top"/>
  <outline>
    <contour>
      <point x="55" y="0" type="curve"/>
      <point x="319" y="0" type="line"/>
      <point x="316" y="107" type="line"/>
      <point x="299" y="107" type="line"/>
      <point x="290" y="26" type="line"/>
      <point x="77" y="26" type="line"/>
      <point x="77" y="30" type="line"/>
      <point x="149" y="153"/>
      <point x="236" y="291"/>
      <point x="306" y="416" type="curve"/>
      <point x="302" y="425"/>
      <point x="295" y="435"/>
      <point x="292" y="440" type="curve"/>
      <point x="49" y="440" type="line"/>
      <point x="55" y="342" type="line"/>
      <point x="72" y="342" type="line"/>
      <point x="78" y="414" type="line"/>
      <point x="271" y="414" type="line"/>
      <point x="273" y="412" type="line"/>
      <point x="190" y="275"/>
      <point x="118" y="150"/>
      <point x="42" y="25" type="curve"/>
      <point x="42" y="20"/>
      <point x="51" y="6"/>
    </contour>
  </outline>
</glyph>
<glyph name="braceleft" format="2">
  <advance width="260"/>
  <unicode hex="007B"/>
  <outline>
    <contour>
      <point x="214" y="-107" type="line"/>
      <point x="216" y="-92" type="line"/>
      <point x="142" y="-80" type="line"/>
      <point x="142" y="225" type="line"/>
      <point x="68" y="284" type="line"/>
      <point x="142" y="343" type="line"/>
      <point x="142" y="648" type="line"/>
      <point x="216" y="659" type="line"/>
      <point x="214" y="675" type="line"/>
      <point x="116" y="669" type="line"/>
      <point x="116" y="352" type="line"/>
      <point x="43" y="292" type="line"/>
      <point x="43" y="276" type="line"/>
      <point x="116" y="216" type="line"/>
      <point x="116" y="-101" type="line"/>
    </contour>
  </outline>
</glyph>
<glyph name="bar" format="2">
  <advance width="180"/>
  <unicode hex="007C"/>
  <outline>
    <contour>
      <point x="80" y="-191" type="line"/>
      <point x="100" y="-191" type="line"/>
      <point x="100" y="668" type="line"/>
      <point x="80" y="668" type="line"/>
    </contour>
  </outline>
</glyph>
<glyph name="braceright" format="2">
  <advance width="260"/>
  <unicode hex="007D"/>
  <outline>
    <contour>
      <point x="46" y="-107" type="line"/>
      <point x="144" y="-101" type="line"/>
      <point x="144" y="216" type="line"/>
      <point x="217" y="276" type="line"/>
      <point x="217" y="292" type="line"/>
      <point x="144" y="352" type="line"/>
      <point x="144" y="669" type="line"/>
      <point x="46" y="675" type="line"/>
      <point x="44" y="660" type="line"/>
      <point x="118" y="648" type="line"/>
      <point x="118" y="343" type="line"/>
      <point x="192" y="284" type="line"/>
      <point x="118" y="225" type="line"/>
      <point x="118" y="-80" type="line"/>
      <point x="44" y="-91" type="line"/>
    </contour>
  </outline>
</glyph>
<glyph name="asciitilde" format="2">
  <advance width="508"/>
  <unicode hex="007E"/>
  <outline>
    <contour>
      <point x="345" y="296" type="curve" smooth="yes"/>
      <point x="361" y="296"/>
      <point x="389" y="318"/>
      <point x="413" y="338" type="curve"/>
      <point x="402" y="353" type="line"/>
      <point x="384" y="340"/>
      <point x="361" y="324"/>
      <point x="342" y="324" type="curve" smooth="yes"/>
      <point x="301" y="324"/>
      <point x="214" y="361"/>
      <point x="163" y="361" type="curve" smooth="yes"/>
      <point x="147" y="361"/>
      <point x="119" y="339"/>
      <point x="95" y="319" type="curve"/>
      <point x="106" y="304" type="line"/>
      <point x="124" y="317"/>
      <point x="147" y="333"/>
      <point x="166" y="333" type="curve" smooth="yes"/>
      <point x="207" y="333"/>
      <point x="294" y="296"/>
    </contour>
  </outline>
</glyph>
<glyph name="exclamdown" format="2">
  <advance width="221"/>
  <unicode hex="00A1"/>
  <outline>
    <contour>
      <point x="104" y="-176" type="curve" smooth="yes"/>
      <point x="107" y="-176"/>
      <point x="117" y="-174"/>
      <point x="126" y="-172" type="curve"/>
      <point x="121" y="306" type="line" smooth="yes"/>
      <point x="121" y="307"/>
      <point x="117" y="311"/>
      <point x="116" y="311" type="curve" smooth="yes"/>
      <point x="113" y="311"/>
      <point x="108" y="310"/>
      <point x="103" y="309" type="curve"/>
      <point x="97" y="-169" type="line" smooth="yes"/>
      <point x="97" y="-170"/>
      <point x="103" y="-176"/>
    </contour>
    <contour>
      <point x="98" y="360" type="line"/>
      <point x="123" y="360" type="line"/>
      <point x="129" y="424" type="line" smooth="yes"/>
      <point x="129" y="426"/>
      <point x="123" y="435"/>
      <point x="120" y="435" type="curve" smooth="yes"/>
      <point x="110" y="435"/>
      <point x="101" y="433"/>
      <point x="92" y="431" type="curve"/>
    </contour>
  </outline>
</glyph>
<glyph name="cent" format="2">
  <advance width="347"/>
  <unicode hex="00A2"/>
  <anchor x="188" y="41" name="bottom"/>
  <anchor x="189" y="481" name="top"/>
  <outline>
    <contour>
      <point x="190" y="470" type="line"/>
      <point x="211" y="470" type="line"/>
      <point x="211" y="577" type="line"/>
      <point x="190" y="577" type="line"/>
    </contour>
    <contour>
      <point x="190" y="-52" type="line"/>
      <point x="211" y="-52" type="line"/>
      <point x="211" y="55" type="line"/>
      <point x="190" y="55" type="line"/>
    </contour>
    <component base="c" yOffset="41"/>
  </outline>
</glyph>
<glyph name="sterling" format="2">
  <advance width="472"/>
  <unicode hex="00A3"/>
  <outline>
    <contour>
      <point x="79" y="-6" type="line"/>
      <point x="106" y="-1"/>
      <point x="134" y="0"/>
      <point x="178" y="0" type="curve" smooth="yes"/>
      <point x="411" y="0" type="line"/>
      <point x="409" y="128" type="line"/>
      <point x="390" y="129" type="line"/>
      <point x="380.657" y="19.433" type="line"/>
      <point x="137" y="28" type="line"/>
      <point x="167" y="53"/>
      <point x="162" y="175"/>
      <point x="160" y="289" type="curve" smooth="yes"/>
      <point x="157" y="467"/>
      <point x="152" y="531"/>
      <point x="219" y="531" type="curve" smooth="yes"/>
      <point x="242" y="531"/>
      <point x="317" y="529"/>
      <point x="366" y="526" type="curve"/>
      <point x="371" y="412" type="line"/>
      <point x="389" y="412" type="line"/>
      <point x="395" y="545" type="line"/>
      <point x="342" y="549"/>
      <point x="280" y="552"/>
      <point x="246" y="552" type="curve" smooth="yes"/>
      <point x="116" y="552"/>
      <point x="131" y="484"/>
      <point x="132" y="288" type="curve" smooth="yes"/>
      <point x="133" y="79"/>
      <point x="143" y="35"/>
      <point x="71" y="16" type="curve"/>
    </contour>
    <contour>
      <point x="68" y="278" type="line"/>
      <point x="286" y="278" type="line"/>
      <point x="289" y="301" type="line"/>
      <point x="71" y="301" type="line"/>
    </contour>
  </outline>
</glyph>
<glyph name="currency" format="2">
  <advance width="617"/>
  <unicode hex="00A4"/>
  <outline>
    <contour>
      <point x="112" y="151" type="line"/>
      <point x="186.004" y="222.229" type="line"/>
      <point x="215.829" y="196.348"/>
      <point x="256.728" y="180"/>
      <point x="309" y="180" type="curve" smooth="yes"/>
      <point x="359.818" y="180"/>
      <point x="400.394" y="196.557"/>
      <point x="430.517" y="222.69" type="curve"/>
      <point x="505" y="151" type="line"/>
      <point x="522" y="171" type="line"/>
      <point x="448.506" y="240.819" type="line"/>
      <point x="479.379" y="276.893"/>
      <point x="495" y="324.694"/>
      <point x="495" y="372" type="curve" smooth="yes"/>
      <point x="495" y="415.311"/>
      <point x="482.262" y="458.197"/>
      <point x="456.396" y="491.856" type="curve"/>
      <point x="522" y="555" type="line"/>
      <point x="505" y="574" type="line"/>
      <point x="438.923" y="511.227" type="line"/>
      <point x="408.735" y="539.761"/>
      <point x="366.211" y="558"/>
      <point x="311" y="558" type="curve" smooth="yes"/>
      <point x="255.59" y="558"/>
      <point x="212.357" y="538.315"/>
      <point x="181.574" y="507.905" type="curve"/>
      <point x="112" y="574" type="line"/>
      <point x="95" y="555" type="line"/>
      <point x="164.412" y="488.191" type="line"/>
      <point x="138.234" y="453.207"/>
      <point x="125" y="408.999"/>
      <point x="125" y="365" type="curve" smooth="yes"/>
      <point x="125" y="319.745"/>
      <point x="139.208" y="274.726"/>
      <point x="168.084" y="240.43" type="curve"/>
      <point x="95" y="171" type="line"/>
    </contour>
    <contour>
      <point x="310" y="206" type="curve" smooth="yes"/>
      <point x="206" y="206"/>
      <point x="155" y="287"/>
      <point x="155" y="368" type="curve" smooth="yes"/>
      <point x="155" y="450"/>
      <point x="207" y="532"/>
      <point x="310" y="532" type="curve" smooth="yes"/>
      <point x="411" y="532"/>
      <point x="461" y="451"/>
      <point x="461" y="370" type="curve" smooth="yes"/>
      <point x="461" y="288"/>
      <point x="410" y="206"/>
    </contour>
  </outline>
</glyph>
<glyph name="yen" format="2">
  <advance width="542"/>
  <unicode hex="00A5"/>
  <outline>
    <contour>
      <point x="182" y="0" type="line"/>
      <point x="361" y="0" type="line"/>
      <point x="361" y="21" type="line"/>
      <point x="283" y="27" type="line"/>
      <point x="283" y="199" type="line"/>
      <point x="446" y="199" type="line"/>
      <point x="451" y="222" type="line"/>
      <point x="283" y="222" type="line"/>
      <point x="283" y="232" type="line"/>
      <point x="326" y="315" type="line"/>
      <point x="446" y="315" type="line"/>
      <point x="451" y="338" type="line"/>
      <point x="338" y="338" type="line"/>
      <point x="432" y="521" type="line"/>
      <point x="497" y="529" type="line"/>
      <point x="497" y="547" type="line"/>
      <point x="336" y="547" type="line"/>
      <point x="336" y="528" type="line"/>
      <point x="399" y="521" type="line"/>
      <point x="268" y="256" type="line"/>
      <point x="263" y="256" type="line"/>
      <point x="130" y="520" type="line"/>
      <point x="189" y="526" type="line"/>
      <point x="189" y="547" type="line"/>
      <point x="45" y="547" type="line"/>
      <point x="45" y="529" type="line"/>
      <point x="100" y="521" type="line"/>
      <point x="195" y="338" type="line"/>
      <point x="86" y="338" type="line"/>
      <point x="81" y="315" type="line"/>
      <point x="207" y="315" type="line"/>
      <point x="255" y="222" type="line"/>
      <point x="86" y="222" type="line"/>
      <point x="81" y="199" type="line"/>
      <point x="255" y="199" type="line"/>
      <point x="255" y="26" type="line"/>
      <point x="182" y="19" type="line"/>
    </contour>
  </outline>
</glyph>
<glyph name="brokenbar" format="2">
  <advance width="180"/>
  <unicode hex="00A6"/>
  <outline>
    <contour>
      <point x="80" y="308" type="line"/>
      <point x="100" y="308" type="line"/>
      <point x="100" y="668" type="line"/>
      <point x="80" y="668" type="line"/>
    </contour>
    <contour>
      <point x="80" y="-191" type="line"/>
      <point x="100" y="-191" type="line"/>
      <point x="100" y="184" type="line"/>
      <point x="80" y="184" type="line"/>
    </contour>
  </outline>
</glyph>
<glyph name="section" format="2">
  <advance width="438"/>
  <unicode hex="00A7"/>
  <outline>
    <contour>
      <point x="260" y="-74" type="curve" smooth="yes"/>
      <point x="288" y="-74"/>
      <point x="337" y="-26"/>
      <point x="351" y="9" type="curve" smooth="yes"/>
      <point x="354" y="16"/>
      <point x="356" y="27"/>
      <point x="356" y="36" type="curve" smooth="yes"/>
      <point x="356" y="74"/>
      <point x="332" y="105"/>
      <point x="301" y="133" type="curve"/>
      <point x="319" y="153"/>
      <point x="339" y="181"/>
      <point x="348" y="201" type="curve"/>
      <point x="352" y="212"/>
      <point x="354" y="227"/>
      <point x="354" y="241" type="curve" smooth="yes"/>
      <point x="354" y="304"/>
      <point x="294" y="346"/>
      <point x="237" y="384" type="curve" smooth="yes"/>
      <point x="185" y="417"/>
      <point x="136" y="448"/>
      <point x="136" y="486" type="curve" smooth="yes"/>
      <point x="136" y="526"/>
      <point x="220" y="576"/>
      <point x="232" y="576" type="curve" smooth="yes"/>
      <point x="248" y="576"/>
      <point x="293" y="569"/>
      <point x="326" y="563" type="curve"/>
      <point x="328" y="460" type="line"/>
      <point x="345" y="460" type="line"/>
      <point x="355" y="588" type="line"/>
      <point x="306" y="593"/>
      <point x="250" y="601"/>
      <point x="234" y="601" type="curve" smooth="yes"/>
      <point x="208" y="601"/>
      <point x="133" y="546"/>
      <point x="115" y="507" type="curve"/>
      <point x="113" y="501"/>
      <point x="112" y="494"/>
      <point x="112" y="487" type="curve" smooth="yes"/>
      <point x="112" y="444"/>
      <point x="151" y="412"/>
      <point x="196" y="382" type="curve"/>
      <point x="167" y="363"/>
      <point x="125" y="325"/>
      <point x="118" y="308" type="curve"/>
      <point x="116" y="301"/>
      <point x="114" y="291"/>
      <point x="114" y="284" type="curve" smooth="yes"/>
      <point x="114" y="239"/>
      <point x="158" y="204"/>
      <point x="206" y="171" type="curve" smooth="yes"/>
      <point x="266" y="129"/>
      <point x="333" y="89"/>
      <point x="333" y="36" type="curve" smooth="yes"/>
      <point x="333" y="-4"/>
      <point x="275" y="-54"/>
      <point x="254" y="-54" type="curve" smooth="yes"/>
      <point x="222" y="-54"/>
      <point x="172" y="-50"/>
      <point x="127" y="-44" type="curve"/>
      <point x="123" y="79" type="line"/>
      <point x="106" y="79" type="line"/>
      <point x="95" y="-65" type="line"/>
      <point x="150" y="-70"/>
      <point x="216" y="-74"/>
    </contour>
    <contour>
      <point x="286" y="145" type="curve"/>
      <point x="222" y="195"/>
      <point x="138" y="234"/>
      <point x="138" y="283" type="curve" smooth="yes"/>
      <point x="138" y="317"/>
      <point x="190" y="353"/>
      <point x="216" y="369" type="curve"/>
      <point x="272" y="332"/>
      <point x="331" y="294"/>
      <point x="331" y="238" type="curve" smooth="yes"/>
      <point x="331" y="206"/>
      <point x="308" y="170"/>
    </contour>
  </outline>
</glyph>
<glyph name="dieresis" format="2">
  <advance width="165"/>
  <unicode hex="00A8"/>
  <outline>
    <contour>
      <point x="132" y="535" type="line"/>
      <point x="157" y="535" type="line"/>
      <point x="165" y="596" type="line"/>
      <point x="155" y="607" type="line"/>
      <point x="126" y="604" type="line"/>
    </contour>
    <contour>
      <point x="6" y="535" type="line"/>
      <point x="31" y="535" type="line"/>
      <point x="39" y="596" type="line"/>
      <point x="29" y="607" type="line"/>
      <point x="0" y="604" type="line"/>
    </contour>
  </outline>
</glyph>
<glyph name="copyright" format="2">
  <advance width="771"/>
  <unicode hex="00A9"/>
  <outline>
    <contour>
      <point x="385" y="118" type="curve" smooth="yes"/>
      <point x="581" y="118"/>
      <point x="681" y="277"/>
      <point x="681" y="434" type="curve" smooth="yes"/>
      <point x="681" y="590"/>
      <point x="583" y="745"/>
      <point x="385" y="745" type="curve" smooth="yes"/>
      <point x="190" y="745"/>
      <point x="90" y="585"/>
      <point x="90" y="427" type="curve" smooth="yes"/>
      <point x="90" y="272"/>
      <point x="186" y="118"/>
    </contour>
    <contour>
      <point x="374" y="257" type="curve" smooth="yes"/>
      <point x="386" y="257"/>
      <point x="423" y="261"/>
      <point x="452" y="267" type="curve"/>
      <point x="452" y="285" type="line"/>
      <point x="376" y="281" type="line"/>
      <point x="302" y="281"/>
      <point x="283" y="373"/>
      <point x="283" y="461" type="curve" smooth="yes"/>
      <point x="283" y="558"/>
      <point x="345" y="599"/>
      <point x="364" y="599" type="curve" smooth="yes"/>
      <point x="380" y="599"/>
      <point x="412" y="594"/>
      <point x="433" y="590" type="curve"/>
      <point x="437" y="514" type="line"/>
      <point x="454" y="514" type="line"/>
      <point x="462" y="613" type="line"/>
      <point x="432" y="617"/>
      <point x="373" y="622"/>
      <point x="359" y="622" type="curve" smooth="yes"/>
      <point x="339" y="622"/>
      <point x="289" y="580"/>
      <point x="271" y="540" type="curve"/>
      <point x="261" y="513"/>
      <point x="256" y="482"/>
      <point x="256" y="451" type="curve" smooth="yes"/>
      <point x="256" y="348"/>
      <point x="287" y="257"/>
    </contour>
    <contour>
      <point x="385" y="139" type="curve" smooth="yes"/>
      <point x="203" y="139"/>
      <point x="113" y="283"/>
      <point x="113" y="428" type="curve" smooth="yes"/>
      <point x="113" y="575"/>
      <point x="206" y="724"/>
      <point x="385" y="724" type="curve" smooth="yes"/>
      <point x="567" y="724"/>
      <point x="657" y="579"/>
      <point x="657" y="434" type="curve" smooth="yes"/>
      <point x="657" y="287"/>
      <point x="565" y="139"/>
    </contour>
  </outline>
</glyph>
<glyph name="ordfeminine" format="2">
  <advance width="377"/>
  <unicode hex="00AA"/>
  <outline>
    <contour>
      <point x="175" y="320" type="curve" smooth="yes"/>
      <point x="181" y="320"/>
      <point x="227" y="359"/>
      <point x="257" y="383" type="curve"/>
      <point x="256" y="333" type="line" smooth="yes"/>
      <point x="256" y="330"/>
      <point x="269" y="320"/>
      <point x="272" y="320" type="curve" smooth="yes"/>
      <point x="279" y="320"/>
      <point x="331" y="329"/>
      <point x="331" y="329" type="curve"/>
      <point x="331" y="343" type="line"/>
      <point x="285" y="343" type="line"/>
      <point x="285" y="672" type="line"/>
      <point x="249" y="677"/>
      <point x="186" y="686"/>
      <point x="169" y="686" type="curve" smooth="yes"/>
      <point x="154" y="686"/>
      <point x="104" y="659"/>
      <point x="72" y="614" type="curve"/>
      <point x="57" y="587"/>
      <point x="46" y="540"/>
      <point x="46" y="485" type="curve" smooth="yes"/>
      <point x="46" y="404"/>
      <point x="72" y="320"/>
    </contour>
    <contour>
      <point x="173" y="346" type="curve" smooth="yes"/>
      <point x="127" y="346"/>
      <point x="75" y="367"/>
      <point x="75" y="491" type="curve" smooth="yes"/>
      <point x="75" y="638"/>
      <point x="157" y="660"/>
      <point x="177" y="660" type="curve" smooth="yes"/>
      <point x="193" y="660"/>
      <point x="227" y="654"/>
      <point x="256" y="648" type="curve"/>
      <point x="256" y="411" type="line"/>
      <point x="227" y="386"/>
      <point x="182" y="346"/>
    </contour>
  </outline>
</glyph>
<glyph name="guillemetleft" format="2">
  <advance width="407"/>
  <unicode hex="00AB"/>
  <outline>
    <contour>
      <point x="327" y="54" type="line"/>
      <point x="342" y="66" type="line"/>
      <point x="228" y="226" type="line"/>
      <point x="228" y="237" type="line"/>
      <point x="342" y="397" type="line"/>
      <point x="327" y="409" type="line"/>
      <point x="195" y="240" type="line"/>
      <point x="195" y="223" type="line"/>
    </contour>
    <contour>
      <point x="177" y="54" type="line"/>
      <point x="192" y="66" type="line"/>
      <point x="78" y="226" type="line"/>
      <point x="78" y="237" type="line"/>
      <point x="192" y="397" type="line"/>
      <point x="177" y="409" type="line"/>
      <point x="45" y="240" type="line"/>
      <point x="45" y="223" type="line"/>
    </contour>
  </outline>
</glyph>
<glyph name="logicalnot" format="2">
  <advance width="478"/>
  <unicode hex="00AC"/>
  <outline>
    <contour>
      <point x="30" y="291" type="line"/>
      <point x="438" y="291" type="line"/>
      <point x="438" y="314" type="line"/>
      <point x="30" y="314" type="line"/>
    </contour>
    <contour>
      <point x="415" y="159" type="line"/>
      <point x="438" y="159" type="line"/>
      <point x="438" y="314" type="line"/>
      <point x="415" y="314" type="line"/>
    </contour>
  </outline>
</glyph>
<glyph name="registered" format="2">
  <advance width="595"/>
  <unicode hex="00AE"/>
  <outline>
    <contour>
      <point x="298" y="283" type="curve" smooth="yes"/>
      <point x="406" y="283"/>
      <point x="515" y="365"/>
      <point x="515" y="509" type="curve" smooth="yes"/>
      <point x="515" y="646"/>
      <point x="430" y="744"/>
      <point x="297" y="744" type="curve" smooth="yes"/>
      <point x="189" y="744"/>
      <point x="80" y="660"/>
      <point x="80" y="517" type="curve" smooth="yes"/>
      <point x="80" y="379"/>
      <point x="165" y="283"/>
    </contour>
    <contour>
      <point x="297" y="305" type="curve" smooth="yes"/>
      <point x="180" y="305"/>
      <point x="104" y="390"/>
      <point x="104" y="515" type="curve" smooth="yes"/>
      <point x="104" y="646"/>
      <point x="201" y="722"/>
      <point x="298" y="722" type="curve" smooth="yes"/>
      <point x="416" y="722"/>
      <point x="491" y="637"/>
      <point x="491" y="510" type="curve" smooth="yes"/>
      <point x="491" y="378"/>
      <point x="394" y="305"/>
    </contour>
    <contour>
      <point x="212" y="383" type="line"/>
      <point x="286" y="383" type="line"/>
      <point x="286" y="395" type="line"/>
      <point x="259" y="398" type="line"/>
      <point x="259" y="501" type="line"/>
      <point x="299" y="501" type="line"/>
      <point x="359" y="383" type="line"/>
      <point x="402" y="383" type="line"/>
      <point x="402" y="395" type="line"/>
      <point x="373" y="399" type="line"/>
      <point x="321" y="501" type="line"/>
      <point x="321" y="505" type="line"/>
      <point x="352" y="516"/>
      <point x="369" y="552"/>
      <point x="369" y="589" type="curve" smooth="yes"/>
      <point x="369" y="636"/>
      <point x="350" y="658"/>
      <point x="305" y="658" type="curve" smooth="yes"/>
      <point x="210" y="658" type="line"/>
      <point x="210" y="645" type="line"/>
      <point x="237" y="641" type="line"/>
      <point x="237" y="398" type="line"/>
      <point x="212" y="394" type="line"/>
    </contour>
    <contour>
      <point x="259" y="519" type="line"/>
      <point x="259" y="639" type="line"/>
      <point x="314" y="641" type="line"/>
      <point x="342" y="641"/>
      <point x="347" y="618"/>
      <point x="347" y="585" type="curve" smooth="yes"/>
      <point x="347" y="548"/>
      <point x="334" y="519"/>
      <point x="304" y="519" type="curve" smooth="yes"/>
    </contour>
  </outline>
</glyph>
<glyph name="macron" format="2">
  <advance width="218"/>
  <unicode hex="00AF"/>
  <outline>
    <contour>
      <point x="0" y="547" type="line"/>
      <point x="218" y="547" type="line"/>
      <point x="218" y="569" type="line"/>
      <point x="0" y="569" type="line"/>
    </contour>
  </outline>
</glyph>
<glyph name="degree" format="2">
  <advance width="310"/>
  <unicode hex="00B0"/>
  <outline>
    <contour>
      <point x="153" y="389" type="curve" smooth="yes"/>
      <point x="224" y="389"/>
      <point x="260" y="444"/>
      <point x="260" y="498" type="curve" smooth="yes"/>
      <point x="260" y="550"/>
      <point x="226" y="602"/>
      <point x="157" y="602" type="curve" smooth="yes"/>
      <point x="86" y="602"/>
      <point x="50" y="547"/>
      <point x="50" y="493" type="curve" smooth="yes"/>
      <point x="50" y="441"/>
      <point x="84" y="389"/>
    </contour>
    <contour>
      <point x="155" y="407" type="curve" smooth="yes"/>
      <point x="100" y="407"/>
      <point x="72" y="451"/>
      <point x="72" y="496" type="curve" smooth="yes"/>
      <point x="72" y="540"/>
      <point x="100" y="584"/>
      <point x="155" y="584" type="curve" smooth="yes"/>
      <point x="210" y="584"/>
      <point x="237" y="540"/>
      <point x="237" y="496" type="curve" smooth="yes"/>
      <point x="237" y="451"/>
      <point x="210" y="407"/>
    </contour>
  </outline>
</glyph>
<glyph name="plusminus" format="2">
  <advance width="589"/>
  <unicode hex="00B1"/>
  <outline>
    <contour>
      <point x="277" y="114" type="line"/>
      <point x="303" y="114" type="line"/>
      <point x="303" y="515" type="line"/>
      <point x="277" y="515" type="line"/>
    </contour>
    <contour>
      <point x="102" y="13" type="line"/>
      <point x="494" y="13" type="line"/>
      <point x="494" y="37" type="line"/>
      <point x="102" y="37" type="line"/>
    </contour>
    <contour>
      <point x="95" y="303" type="line"/>
      <point x="487" y="303" type="line"/>
      <point x="487" y="327" type="line"/>
      <point x="95" y="327" type="line"/>
    </contour>
  </outline>
</glyph>
<glyph name="twosuperior" format="2">
  <advance width="361"/>
  <unicode hex="00B2"/>
  <outline>
    <contour>
      <point x="69" y="363" type="line"/>
      <point x="301" y="363" type="line"/>
      <point x="281" y="388" type="line"/>
      <point x="108" y="388" type="line"/>
      <point x="108" y="394" type="line"/>
      <point x="249" y="557" type="line" smooth="yes"/>
      <point x="273" y="585"/>
      <point x="284" y="614"/>
      <point x="284" y="637" type="curve" smooth="yes"/>
      <point x="284" y="685"/>
      <point x="258" y="711"/>
      <point x="208" y="711" type="curve" smooth="yes"/>
      <point x="183" y="711"/>
      <point x="130" y="703"/>
      <point x="81" y="696" type="curve"/>
      <point x="96" y="675" type="line"/>
      <point x="130" y="679"/>
      <point x="205" y="689"/>
      <point x="215" y="689" type="curve" smooth="yes"/>
      <point x="239" y="689"/>
      <point x="256" y="671"/>
      <point x="256" y="639" type="curve" smooth="yes"/>
      <point x="256" y="622"/>
      <point x="250" y="599"/>
      <point x="236" y="582" type="curve" smooth="yes"/>
      <point x="64" y="383" type="line"/>
    </contour>
    <contour>
      <point x="272" y="363" type="line"/>
      <point x="301" y="363" type="line"/>
      <point x="299" y="479" type="line"/>
      <point x="280" y="479" type="line"/>
    </contour>
    <contour>
      <point x="85" y="593" type="line"/>
      <point x="102" y="593" type="line"/>
      <point x="108" y="696" type="line"/>
      <point x="81" y="696" type="line"/>
    </contour>
  </outline>
</glyph>
<glyph name="threesuperior" format="2">
  <advance width="363"/>
  <unicode hex="00B3"/>
  <outline>
    <contour>
      <point x="175" y="355" type="curve" smooth="yes"/>
      <point x="225" y="355"/>
      <point x="284" y="420"/>
      <point x="284" y="479" type="curve" smooth="yes"/>
      <point x="284" y="520"/>
      <point x="256" y="549"/>
      <point x="210" y="552" type="curve"/>
      <point x="208" y="562" type="line"/>
      <point x="146" y="532" type="line"/>
      <point x="199" y="532" type="line" smooth="yes"/>
      <point x="246" y="532"/>
      <point x="254" y="510"/>
      <point x="258" y="483" type="curve" smooth="yes"/>
      <point x="263" y="450"/>
      <point x="235" y="404"/>
      <point x="200" y="383" type="curve" smooth="yes"/>
      <point x="184" y="374"/>
      <point x="133" y="381"/>
      <point x="95" y="383" type="curve"/>
      <point x="92" y="362" type="line"/>
      <point x="126" y="357"/>
      <point x="166" y="355"/>
    </contour>
    <contour>
      <point x="91" y="605" type="line"/>
      <point x="108" y="605" type="line"/>
      <point x="116" y="708" type="line"/>
      <point x="89" y="708" type="line"/>
    </contour>
    <contour>
      <point x="146" y="532" type="line"/>
      <point x="233" y="551"/>
      <point x="268" y="603"/>
      <point x="268" y="649" type="curve" smooth="yes"/>
      <point x="268" y="690"/>
      <point x="242" y="718"/>
      <point x="191" y="718" type="curve" smooth="yes"/>
      <point x="176" y="718"/>
      <point x="134" y="713"/>
      <point x="99" y="708" type="curve"/>
      <point x="112" y="687" type="line"/>
      <point x="128" y="690"/>
      <point x="182" y="697"/>
      <point x="192" y="697" type="curve" smooth="yes"/>
      <point x="226" y="697"/>
      <point x="241" y="678"/>
      <point x="241" y="646" type="curve" smooth="yes"/>
      <point x="241" y="605"/>
      <point x="207" y="567"/>
      <point x="147" y="552" type="curve"/>
    </contour>
  </outline>
</glyph>
<glyph name="acute" format="2">
  <advance width="137"/>
  <unicode hex="00B4"/>
  <outline>
    <contour>
      <point x="10" y="537" type="line"/>
      <point x="137" y="620" type="line"/>
      <point x="136" y="634" type="line"/>
      <point x="120" y="648" type="line"/>
      <point x="0" y="549" type="line"/>
    </contour>
  </outline>
</glyph>
<glyph name="paragraph" format="2">
  <advance width="592"/>
  <unicode hex="00B6"/>
  <outline>
    <contour>
      <point x="246" y="0" type="line"/>
      <point x="349" y="0" type="line"/>
      <point x="349" y="591" type="line"/>
      <point x="228" y="591" type="line" smooth="yes"/>
      <point x="118" y="591"/>
      <point x="66" y="530"/>
      <point x="66" y="432" type="curve" smooth="yes"/>
      <point x="66" y="293"/>
      <point x="122" y="224"/>
      <point x="251" y="223" type="curve" smooth="yes"/>
      <point x="321" y="222" type="line"/>
      <point x="321" y="27" type="line"/>
      <point x="246" y="21" type="line"/>
    </contour>
    <contour>
      <point x="411" y="0" type="line"/>
      <point x="498" y="0" type="line"/>
      <point x="498" y="20" type="line"/>
      <point x="439" y="25" type="line"/>
      <point x="439" y="560" type="line"/>
      <point x="498" y="572" type="line"/>
      <point x="498" y="591" type="line"/>
      <point x="411" y="591" type="line"/>
    </contour>
  </outline>
</glyph>
<glyph name="cedilla" format="2">
  <advance width="111"/>
  <unicode hex="00B8"/>
  <anchor x="25" y="0" name="_bottom"/>
  <outline>
    <contour>
      <point x="11" y="-204" type="line"/>
      <point x="49" y="-190"/>
      <point x="87" y="-171"/>
      <point x="98" y="-159" type="curve"/>
      <point x="105" y="-150"/>
      <point x="111" y="-133"/>
      <point x="111" y="-120" type="curve" smooth="yes"/>
      <point x="111" y="-88"/>
      <point x="73" y="-61"/>
      <point x="30" y="-54" type="curve"/>
      <point x="35" y="8" type="line"/>
      <point x="19" y="10" type="line"/>
      <point x="0" y="-59" type="line"/>
      <point x="5" y="-73" type="line"/>
      <point x="53" y="-77"/>
      <point x="81" y="-96"/>
      <point x="81" y="-122" type="curve" smooth="yes"/>
      <point x="81" y="-153"/>
      <point x="55" y="-165"/>
      <point x="4" y="-187" type="curve"/>
    </contour>
  </outline>
</glyph>
<glyph name="onesuperior" format="2">
  <advance width="357"/>
  <unicode hex="00B9"/>
  <outline>
    <contour>
      <point x="184" y="363" type="line"/>
      <point x="213" y="363" type="line"/>
      <point x="213" y="696" type="line"/>
      <point x="184" y="686" type="line"/>
    </contour>
    <contour>
      <point x="99" y="363" type="line"/>
      <point x="292" y="363" type="line"/>
      <point x="292" y="382" type="line"/>
      <point x="192" y="391" type="line"/>
      <point x="99" y="382" type="line"/>
    </contour>
    <contour>
      <point x="86" y="661" type="line"/>
      <point x="196" y="678" type="line"/>
      <point x="213" y="696" type="line"/>
      <point x="192" y="712" type="line"/>
      <point x="86" y="682" type="line"/>
    </contour>
  </outline>
</glyph>
<glyph name="ordmasculine" format="2">
  <advance width="366"/>
  <unicode hex="00BA"/>
  <outline>
    <contour>
      <point x="189" y="317" type="curve" smooth="yes"/>
      <point x="207" y="317"/>
      <point x="266" y="351"/>
      <point x="288" y="378" type="curve"/>
      <point x="307" y="404"/>
      <point x="320" y="462"/>
      <point x="320" y="515" type="curve" smooth="yes"/>
      <point x="320" y="631"/>
      <point x="266" y="686"/>
      <point x="172" y="686" type="curve" smooth="yes"/>
      <point x="157" y="686"/>
      <point x="103" y="659"/>
      <point x="72" y="615" type="curve"/>
      <point x="57" y="586"/>
      <point x="46" y="539"/>
      <point x="46" y="487" type="curve" smooth="yes"/>
      <point x="46" y="368"/>
      <point x="102" y="317"/>
    </contour>
    <contour>
      <point x="184" y="341" type="curve" smooth="yes"/>
      <point x="103" y="341"/>
      <point x="75" y="407"/>
      <point x="75" y="489" type="curve" smooth="yes"/>
      <point x="75" y="565"/>
      <point x="91" y="607"/>
      <point x="126" y="636" type="curve" smooth="yes"/>
      <point x="145" y="652"/>
      <point x="166" y="662"/>
      <point x="178" y="662" type="curve" smooth="yes"/>
      <point x="250" y="662"/>
      <point x="291" y="609"/>
      <point x="291" y="513" type="curve" smooth="yes"/>
      <point x="291" y="451"/>
      <point x="278" y="407"/>
      <point x="262" y="389" type="curve"/>
      <point x="246" y="370"/>
      <point x="205" y="341"/>
    </contour>
  </outline>
</glyph>
<glyph name="guillemetright" format="2">
  <advance width="407"/>
  <unicode hex="00BB"/>
  <outline>
    <contour>
      <point x="230" y="54" type="line"/>
      <point x="362" y="223" type="line"/>
      <point x="362" y="240" type="line"/>
      <point x="230" y="409" type="line"/>
      <point x="215" y="397" type="line"/>
      <point x="329" y="237" type="line"/>
      <point x="329" y="226" type="line"/>
      <point x="215" y="66" type="line"/>
    </contour>
    <contour>
      <point x="80" y="54" type="line"/>
      <point x="212" y="223" type="line"/>
      <point x="212" y="240" type="line"/>
      <point x="80" y="409" type="line"/>
      <point x="65" y="397" type="line"/>
      <point x="179" y="237" type="line"/>
      <point x="179" y="226" type="line"/>
      <point x="65" y="66" type="line"/>
    </contour>
  </outline>
</glyph>
<glyph name="questiondown" format="2">
  <advance width="394"/>
  <unicode hex="00BF"/>
  <outline>
    <contour>
      <point x="195" y="-174" type="curve" smooth="yes"/>
      <point x="233" y="-174"/>
      <point x="281" y="-169"/>
      <point x="337" y="-163" type="curve"/>
      <point x="314" y="-137" type="line"/>
      <point x="266" y="-142"/>
      <point x="205" y="-149"/>
      <point x="178" y="-149" type="curve" smooth="yes"/>
      <point x="124" y="-149"/>
      <point x="103" y="-109"/>
      <point x="103" y="-64" type="curve" smooth="yes"/>
      <point x="103" y="7"/>
      <point x="150" y="52"/>
      <point x="196" y="98" type="curve" smooth="yes"/>
      <point x="233" y="135"/>
      <point x="264" y="169"/>
      <point x="262" y="211" type="curve" smooth="yes"/>
      <point x="259" y="276" type="line" smooth="yes"/>
      <point x="259" y="277"/>
      <point x="255" y="281"/>
      <point x="254" y="281" type="curve" smooth="yes"/>
      <point x="252" y="281"/>
      <point x="246" y="280"/>
      <point x="241" y="279" type="curve"/>
      <point x="235" y="178"/>
      <point x="225" y="164"/>
      <point x="171" y="112" type="curve" smooth="yes"/>
      <point x="123" y="66"/>
      <point x="72" y="10"/>
      <point x="72" y="-62" type="curve" smooth="yes"/>
      <point x="72" y="-146"/>
      <point x="110" y="-174"/>
    </contour>
    <contour>
      <point x="305" y="-163" type="line"/>
      <point x="336" y="-163" type="line"/>
      <point x="323" y="-12" type="line"/>
      <point x="306" y="-12" type="line"/>
    </contour>
    <contour>
      <point x="239" y="357" type="line"/>
      <point x="261" y="357" type="line"/>
      <point x="271" y="423" type="line" smooth="yes"/>
      <point x="271" y="425"/>
      <point x="263" y="434"/>
      <point x="261" y="434" type="curve" smooth="yes"/>
      <point x="253" y="434"/>
      <point x="244" y="433"/>
      <point x="234" y="430" type="curve"/>
    </contour>
  </outline>
</glyph>
<glyph name="AE" format="2">
  <advance width="753"/>
  <unicode hex="00C6"/>
  <anchor x="525" y="591" name="top"/>
  <outline>
    <contour>
      <point x="25" y="0" type="line"/>
      <point x="173" y="0" type="line"/>
      <point x="173" y="17" type="line"/>
      <point x="114" y="27" type="line"/>
      <point x="215" y="212" type="line"/>
      <point x="426" y="212" type="line"/>
      <point x="426" y="25" type="line"/>
      <point x="369" y="17" type="line"/>
      <point x="369" y="0" type="line"/>
      <point x="714" y="0" type="line"/>
      <point x="711" y="122" type="line"/>
      <point x="692" y="122" type="line"/>
      <point x="682" y="27" type="line"/>
      <point x="456" y="27" type="line"/>
      <point x="456" y="292" type="line"/>
      <point x="643" y="292" type="line"/>
      <point x="643" y="319" type="line"/>
      <point x="456" y="319" type="line"/>
      <point x="456" y="564" type="line"/>
      <point x="674" y="564" type="line"/>
      <point x="681" y="469" type="line"/>
      <point x="700" y="469" type="line"/>
      <point x="706" y="591" type="line"/>
      <point x="343" y="591" type="line"/>
      <point x="343" y="571" type="line"/>
      <point x="389" y="564" type="line"/>
      <point x="81" y="25" type="line"/>
      <point x="25" y="17" type="line"/>
    </contour>
    <contour>
      <point x="230" y="239" type="line"/>
      <point x="415" y="564" type="line"/>
      <point x="426" y="564" type="line"/>
      <point x="426" y="239" type="line"/>
    </contour>
  </outline>
</glyph>
<glyph name="multiply" format="2">
  <advance width="499"/>
  <unicode hex="00D7"/>
  <outline>
    <contour>
      <point x="108" y="80" type="line"/>
      <point x="250" y="218" type="line"/>
      <point x="391" y="80" type="line"/>
      <point x="409" y="99" type="line"/>
      <point x="269" y="237" type="line"/>
      <point x="409" y="374" type="line"/>
      <point x="389" y="394" type="line"/>
      <point x="250" y="256" type="line"/>
      <point x="110" y="394" type="line"/>
      <point x="90" y="374" type="line"/>
      <point x="230" y="237" type="line"/>
      <point x="90" y="99" type="line"/>
    </contour>
  </outline>
</glyph>
<glyph name="Thorn" format="2">
  <advance width="420"/>
  <unicode hex="00DE"/>
  <outline>
    <contour>
      <point x="47" y="0" type="line"/>
      <point x="195" y="0" type="line"/>
      <point x="195" y="18" type="line"/>
      <point x="134" y="27" type="line"/>
      <point x="134" y="564" type="line"/>
      <point x="195" y="573" type="line"/>
      <point x="195" y="591" type="line"/>
      <point x="47" y="591" type="line"/>
      <point x="47" y="574" type="line"/>
      <point x="104" y="566" type="line"/>
      <point x="104" y="25" type="line"/>
      <point x="47" y="17" type="line"/>
    </contour>
    <contour>
      <point x="118" y="147" type="line"/>
      <point x="235" y="147" type="line" smooth="yes"/>
      <point x="339" y="147"/>
      <point x="390" y="224"/>
      <point x="390" y="316" type="curve" smooth="yes"/>
      <point x="390" y="451"/>
      <point x="319" y="466"/>
      <point x="238" y="466" type="curve"/>
      <point x="118" y="466" type="line"/>
      <point x="118" y="439" type="line"/>
      <point x="247" y="439" type="line" smooth="yes"/>
      <point x="324" y="439"/>
      <point x="360" y="414"/>
      <point x="360" y="315" type="curve" smooth="yes"/>
      <point x="360" y="180"/>
      <point x="272" y="174"/>
      <point x="245" y="174" type="curve" smooth="yes"/>
      <point x="118" y="174" type="line"/>
    </contour>
  </outline>
</glyph>
<glyph name="germandbls" format="2">
  <advance width="391"/>
  <unicode hex="00DF"/>
  <outline>
    <contour>
      <point x="51" y="-175" type="curve" smooth="yes"/>
      <point x="78" y="-175"/>
      <point x="114" y="-121"/>
      <point x="114" y="-59" type="curve" smooth="yes"/>
      <point x="114" y="547" type="line" smooth="yes"/>
      <point x="114" y="574"/>
      <point x="145" y="609"/>
      <point x="150" y="610" type="curve" smooth="yes"/>
      <point x="167" y="614"/>
      <point x="196" y="610"/>
      <point x="219" y="606" type="curve" smooth="yes"/>
      <point x="254" y="598"/>
      <point x="290" y="578"/>
      <point x="290" y="537" type="curve" smooth="yes"/>
      <point x="290" y="481"/>
      <point x="215" y="425"/>
      <point x="215" y="347" type="curve" smooth="yes"/>
      <point x="215" y="253"/>
      <point x="349" y="193"/>
      <point x="349" y="131" type="curve" smooth="yes"/>
      <point x="349" y="81"/>
      <point x="276" y="14"/>
      <point x="255" y="14" type="curve" smooth="yes"/>
      <point x="233" y="14"/>
      <point x="168" y="21"/>
      <point x="105" y="30" type="curve"/>
      <point x="106" y="4" type="line"/>
      <point x="171" y="-2"/>
      <point x="221" y="-9"/>
      <point x="259" y="-9" type="curve" smooth="yes"/>
      <point x="289" y="-9"/>
      <point x="353" y="58"/>
      <point x="369" y="95" type="curve"/>
      <point x="372" y="107"/>
      <point x="376" y="115"/>
      <point x="376" y="129" type="curve" smooth="yes"/>
      <point x="376" y="208"/>
      <point x="242" y="264"/>
      <point x="242" y="348" type="curve" smooth="yes"/>
      <point x="242" y="416"/>
      <point x="315" y="479"/>
      <point x="315" y="540" type="curve" smooth="yes"/>
      <point x="315" y="614"/>
      <point x="230" y="637"/>
      <point x="160" y="637" type="curve" smooth="yes"/>
      <point x="123" y="637"/>
      <point x="86" y="570"/>
      <point x="86" y="542" type="curve" smooth="yes"/>
      <point x="86" y="-45" type="line" smooth="yes"/>
      <point x="86" y="-92"/>
      <point x="71" y="-143"/>
      <point x="56" y="-147" type="curve" smooth="yes"/>
      <point x="47" y="-149"/>
      <point x="-3" y="-149"/>
      <point x="-25" y="-149" type="curve"/>
      <point x="-25" y="-164" type="line"/>
      <point x="1" y="-169"/>
      <point x="45" y="-175"/>
    </contour>
  </outline>
</glyph>
<glyph name="ae" format="2">
  <advance width="631"/>
  <unicode hex="00E6"/>
  <anchor x="340" y="440" name="top"/>
  <outline>
    <contour>
      <point x="216" y="-10" type="curve" smooth="yes"/>
      <point x="224" y="-10"/>
      <point x="293" y="50"/>
      <point x="331" y="81" type="curve"/>
      <point x="329" y="110" type="line"/>
      <point x="293" y="80"/>
      <point x="220" y="17"/>
      <point x="209" y="17" type="curve" smooth="yes"/>
      <point x="140" y="17"/>
      <point x="83" y="59"/>
      <point x="83" y="202" type="curve" smooth="yes"/>
      <point x="83" y="306"/>
      <point x="109" y="381"/>
      <point x="195" y="420" type="curve" smooth="yes"/>
      <point x="221" y="432"/>
      <point x="266" y="420"/>
      <point x="374" y="397" type="curve"/>
      <point x="404" y="420" type="line"/>
      <point x="359" y="427"/>
      <point x="230" y="450"/>
      <point x="209" y="450" type="curve" smooth="yes"/>
      <point x="190" y="450"/>
      <point x="127" y="417"/>
      <point x="87" y="360" type="curve"/>
      <point x="70" y="326"/>
      <point x="54" y="269"/>
      <point x="54" y="195" type="curve" smooth="yes"/>
      <point x="54" y="94"/>
      <point x="87" y="-10"/>
    </contour>
    <contour>
      <point x="460" y="-10" type="curve" smooth="yes"/>
      <point x="489" y="-10"/>
      <point x="543" y="1"/>
      <point x="580" y="8" type="curve"/>
      <point x="580" y="26" type="line"/>
      <point x="551" y="23"/>
      <point x="476" y="15"/>
      <point x="468" y="15" type="curve" smooth="yes"/>
      <point x="385" y="15"/>
      <point x="330" y="61"/>
      <point x="330" y="213" type="curve"/>
      <point x="597" y="238" type="line"/>
      <point x="595" y="394"/>
      <point x="547" y="450"/>
      <point x="456" y="450" type="curve" smooth="yes"/>
      <point x="437" y="450"/>
      <point x="372" y="417"/>
      <point x="333" y="360" type="curve"/>
      <point x="314" y="325"/>
      <point x="301" y="269"/>
      <point x="301" y="205" type="curve" smooth="yes"/>
      <point x="301" y="69"/>
      <point x="350" y="-10"/>
    </contour>
    <contour>
      <point x="331" y="238" type="line"/>
      <point x="335" y="323"/>
      <point x="360" y="363"/>
      <point x="395" y="392" type="curve" smooth="yes"/>
      <point x="419" y="412"/>
      <point x="445" y="425"/>
      <point x="460" y="425" type="curve" smooth="yes"/>
      <point x="536" y="425"/>
      <point x="564" y="358"/>
      <point x="567" y="260" type="curve"/>
    </contour>
  </outline>
</glyph>
<glyph name="eth" format="2">
  <advance width="393"/>
  <unicode hex="00F0"/>
  <outline>
    <contour>
      <point x="161" y="-9" type="curve" smooth="yes"/>
      <point x="282" y="-9"/>
      <point x="322" y="141"/>
      <point x="322" y="283" type="curve" smooth="yes"/>
      <point x="322" y="476"/>
      <point x="276" y="596"/>
      <point x="99" y="597" type="curve"/>
      <point x="106" y="578" type="line"/>
      <point x="250" y="573"/>
      <point x="293" y="476"/>
      <point x="293" y="284" type="curve" smooth="yes"/>
      <point x="293" y="166"/>
      <point x="268" y="15"/>
      <point x="168" y="15" type="curve" smooth="yes"/>
      <point x="112" y="15"/>
      <point x="81" y="102"/>
      <point x="81" y="174" type="curve" smooth="yes"/>
      <point x="81" y="251"/>
      <point x="110" y="335"/>
      <point x="188" y="335" type="curve" smooth="yes"/>
      <point x="206" y="335"/>
      <point x="272" y="313"/>
      <point x="299" y="300" type="curve"/>
      <point x="301" y="317" type="line"/>
      <point x="265" y="338"/>
      <point x="204" y="359"/>
      <point x="193" y="359" type="curve" smooth="yes"/>
      <point x="102" y="359"/>
      <point x="53" y="275"/>
      <point x="53" y="182" type="curve" smooth="yes"/>
      <point x="53" y="133"/>
      <point x="60" y="95"/>
      <point x="79" y="55" type="curve"/>
      <point x="99" y="21"/>
      <point x="149" y="-9"/>
    </contour>
    <contour>
      <point x="146" y="447" type="line"/>
      <point x="361" y="555" type="line"/>
      <point x="365" y="562" type="line"/>
      <point x="354" y="575" type="line"/>
      <point x="135" y="466" type="line"/>
      <point x="131" y="458" type="line"/>
    </contour>
  </outline>
</glyph>
<glyph name="thorn" format="2">
  <advance width="434"/>
  <unicode hex="00FE"/>
  <outline>
    <contour>
      <point x="107" y="-176" type="curve" smooth="yes"/>
      <point x="115" y="-176"/>
      <point x="163" y="-168"/>
      <point x="177" y="-164" type="curve"/>
      <point x="177" y="-147" type="line"/>
      <point x="119" y="-147" type="line"/>
      <point x="119" y="3" type="line"/>
      <point x="160" y="-3"/>
      <point x="208" y="-10"/>
      <point x="225" y="-10" type="curve" smooth="yes"/>
      <point x="244" y="-10"/>
      <point x="307" y="23"/>
      <point x="347" y="80" type="curve"/>
      <point x="364" y="114"/>
      <point x="380" y="171"/>
      <point x="380" y="245" type="curve" smooth="yes"/>
      <point x="380" y="346"/>
      <point x="347" y="450"/>
      <point x="218" y="450" type="curve" smooth="yes"/>
      <point x="210" y="450"/>
      <point x="156" y="403"/>
      <point x="118" y="371" type="curve"/>
      <point x="118" y="620" type="line"/>
      <point x="118" y="624"/>
      <point x="101" y="637"/>
      <point x="98" y="637" type="curve" smooth="yes"/>
      <point x="91" y="637"/>
      <point x="56" y="630"/>
      <point x="31" y="625" type="curve"/>
      <point x="31" y="608" type="line"/>
      <point x="89" y="608" type="line"/>
      <point x="90" y="11" type="line"/>
      <point x="87" y="-159" type="line" smooth="yes"/>
      <point x="87" y="-163"/>
      <point x="104" y="-176"/>
    </contour>
    <contour>
      <point x="239" y="20" type="curve" smooth="yes"/>
      <point x="213" y="8"/>
      <point x="154" y="23"/>
      <point x="119" y="31" type="curve"/>
      <point x="118" y="341" type="line"/>
      <point x="156" y="371"/>
      <point x="214" y="423"/>
      <point x="225" y="423" type="curve" smooth="yes"/>
      <point x="294" y="423"/>
      <point x="351" y="381"/>
      <point x="351" y="238" type="curve" smooth="yes"/>
      <point x="351" y="134"/>
      <point x="325" y="60"/>
    </contour>
  </outline>
</glyph>
<glyph name="idotless" format="2">
  <advance width="212"/>
  <unicode hex="0131"/>
  <anchor x="108" y="0" name="bottom"/>
  <anchor x="97" y="440" name="top"/>
  <outline>
    <contour>
      <point x="109" y="-10" type="curve" smooth="yes"/>
      <point x="116" y="-10"/>
      <point x="151" y="-3"/>
      <point x="176" y="2" type="curve"/>
      <point x="176" y="19" type="line"/>
      <point x="118" y="19" type="line"/>
      <point x="118" y="433" type="line" smooth="yes"/>
      <point x="118" y="437"/>
      <point x="101" y="450"/>
      <point x="98" y="450" type="curve" smooth="yes"/>
      <point x="91" y="450"/>
      <point x="56" y="443"/>
      <point x="31" y="438" type="curve"/>
      <point x="31" y="421" type="line"/>
      <point x="89" y="421" type="line"/>
      <point x="89" y="7" type="line" smooth="yes"/>
      <point x="89" y="3"/>
      <point x="106" y="-10"/>
    </contour>
  </outline>
</glyph>
<glyph name="kgreenlandic" format="2">
  <advance width="446"/>
  <unicode hex="0138"/>
  <outline>
    <contour>
      <point x="358" y="-10" type="curve" smooth="yes"/>
      <point x="363" y="-10"/>
      <point x="394" y="-3"/>
      <point x="416" y="2" type="curve"/>
      <point x="416" y="19" type="line"/>
      <point x="356" y="19" type="line"/>
      <point x="185" y="212" type="line"/>
      <point x="388" y="427" type="line"/>
      <point x="388" y="430"/>
      <point x="380" y="450"/>
      <point x="376" y="450" type="curve" smooth="yes"/>
      <point x="369" y="450"/>
      <point x="315" y="445"/>
      <point x="276" y="442" type="curve"/>
      <point x="276" y="422" type="line"/>
      <point x="348" y="422" type="line"/>
      <point x="157" y="213" type="line"/>
      <point x="157" y="206" type="line"/>
      <point x="329" y="7" type="line" smooth="yes"/>
      <point x="336" y="-1"/>
      <point x="352" y="-10"/>
    </contour>
    <contour>
      <point x="109" y="-10" type="curve" smooth="yes"/>
      <point x="116" y="-10"/>
      <point x="151" y="-3"/>
      <point x="176" y="2" type="curve"/>
      <point x="176" y="19" type="line"/>
      <point x="118" y="19" type="line"/>
      <point x="118" y="433" type="line" smooth="yes"/>
      <point x="118" y="437"/>
      <point x="101" y="450"/>
      <point x="98" y="450" type="curve" smooth="yes"/>
      <point x="91" y="450"/>
      <point x="56" y="443"/>
      <point x="31" y="438" type="curve"/>
      <point x="31" y="421" type="line"/>
      <point x="89" y="421" type="line"/>
      <point x="89" y="7" type="line" smooth="yes"/>
      <point x="89" y="3"/>
      <point x="106" y="-10"/>
    </contour>
  </outline>
</glyph>
<glyph name="Eng" format="2">
  <advance width="532"/>
  <unicode hex="014A"/>
  <outline>
    <contour>
      <point x="408" y="-16" type="line"/>
      <point x="435" y="-5" type="line"/>
      <point x="435" y="566" type="line"/>
      <point x="492" y="574" type="line"/>
      <point x="492" y="591" type="line"/>
      <point x="344" y="591" type="line"/>
      <point x="344" y="573" type="line"/>
      <point x="405" y="564" type="line"/>
      <point x="405" y="544" type="line"/>
      <point x="408" y="58" type="line"/>
      <point x="402" y="58" type="line"/>
      <point x="402" y="58"/>
      <point x="386" y="100"/>
      <point x="367" y="138" type="curve" smooth="yes"/>
      <point x="143" y="591" type="line"/>
      <point x="47" y="591" type="line"/>
      <point x="47" y="574" type="line"/>
      <point x="104" y="566" type="line"/>
      <point x="104" y="25" type="line"/>
      <point x="47" y="17" type="line"/>
      <point x="47" y="0" type="line"/>
      <point x="195" y="0" type="line"/>
      <point x="195" y="18" type="line"/>
      <point x="134" y="27" type="line"/>
      <point x="134" y="46" type="line"/>
      <point x="131" y="542" type="line"/>
      <point x="137" y="542" type="line"/>
      <point x="137" y="542"/>
      <point x="169" y="481"/>
      <point x="185" y="448" type="curve" smooth="yes"/>
    </contour>
    <contour>
      <point x="351" y="-129" type="curve" smooth="yes"/>
      <point x="382" y="-129"/>
      <point x="435" y="-67"/>
      <point x="435" y="-5" type="curve"/>
      <point x="408" y="3" type="line"/>
      <point x="409" y="-67"/>
      <point x="358" y="-101"/>
      <point x="353" y="-101" type="curve" smooth="yes"/>
      <point x="343" y="-101"/>
      <point x="299" y="-101"/>
      <point x="285" y="-101" type="curve"/>
      <point x="285" y="-120" type="line"/>
      <point x="303" y="-123"/>
      <point x="340" y="-129"/>
    </contour>
  </outline>
</glyph>
<glyph name="eng" format="2">
  <advance width="422"/>
  <unicode hex="014B"/>
  <outline>
    <contour>
      <point x="299" y="-175" type="curve" smooth="yes"/>
      <point x="328" y="-175"/>
      <point x="368" y="-115"/>
      <point x="368" y="-53" type="curve" smooth="yes"/>
      <point x="368" y="276" type="line" smooth="yes"/>
      <point x="368" y="411"/>
      <point x="331" y="450"/>
      <point x="220" y="450" type="curve" smooth="yes"/>
      <point x="215" y="450"/>
      <point x="141" y="394"/>
      <point x="116" y="371" type="curve"/>
      <point x="118" y="433" type="line" smooth="yes"/>
      <point x="118" y="437"/>
      <point x="101" y="450"/>
      <point x="98" y="450" type="curve" smooth="yes"/>
      <point x="91" y="450"/>
      <point x="56" y="443"/>
      <point x="31" y="438" type="curve"/>
      <point x="31" y="421" type="line"/>
      <point x="89" y="421" type="line"/>
      <point x="89" y="7" type="line" smooth="yes"/>
      <point x="89" y="3"/>
      <point x="106" y="-10"/>
      <point x="109" y="-10" type="curve" smooth="yes"/>
      <point x="116" y="-10"/>
      <point x="151" y="-3"/>
      <point x="176" y="2" type="curve"/>
      <point x="176" y="19" type="line"/>
      <point x="118" y="19" type="line"/>
      <point x="118" y="342" type="line"/>
      <point x="160" y="377"/>
      <point x="218" y="423"/>
      <point x="226" y="423" type="curve" smooth="yes"/>
      <point x="285" y="423"/>
      <point x="339" y="413"/>
      <point x="339" y="290" type="curve" smooth="yes"/>
      <point x="339" y="-53" type="line" smooth="yes"/>
      <point x="339" y="-116"/>
      <point x="310" y="-146"/>
      <point x="303" y="-147" type="curve" smooth="yes"/>
      <point x="280" y="-150"/>
      <point x="256" y="-149"/>
      <point x="233" y="-149" type="curve"/>
      <point x="233" y="-166" type="line"/>
      <point x="251" y="-169"/>
      <point x="288" y="-175"/>
    </contour>
  </outline>
</glyph>
<glyph name="OE" format="2">
  <advance width="722"/>
  <unicode hex="0152"/>
  <outline>
    <contour>
      <point x="275" y="0" type="curve" smooth="yes"/>
      <point x="422" y="0" type="line"/>
      <point x="407" y="33" type="line"/>
      <point x="367" y="27"/>
      <point x="348" y="25"/>
      <point x="294" y="25" type="curve" smooth="yes"/>
      <point x="181" y="25"/>
      <point x="85" y="66"/>
      <point x="85" y="307" type="curve" smooth="yes"/>
      <point x="85" y="424"/>
      <point x="121" y="473"/>
      <point x="160" y="508" type="curve" smooth="yes"/>
      <point x="202" y="546"/>
      <point x="236" y="562"/>
      <point x="254" y="562" type="curve" smooth="yes"/>
      <point x="308" y="562"/>
      <point x="351" y="561"/>
      <point x="399" y="555" type="curve"/>
      <point x="409" y="591" type="line"/>
      <point x="250" y="591" type="line" smooth="yes"/>
      <point x="221" y="591"/>
      <point x="136" y="537"/>
      <point x="90" y="465" type="curve"/>
      <point x="66" y="416"/>
      <point x="55" y="363"/>
      <point x="55" y="285" type="curve" smooth="yes"/>
      <point x="55" y="107"/>
      <point x="128" y="0"/>
    </contour>
    <contour>
      <point x="389" y="0" type="line"/>
      <point x="677" y="0" type="line"/>
      <point x="674" y="122" type="line"/>
      <point x="655" y="122" type="line"/>
      <point x="645" y="27" type="line"/>
      <point x="419" y="27" type="line"/>
      <point x="419" y="292" type="line"/>
      <point x="606" y="292" type="line"/>
      <point x="606" y="319" type="line"/>
      <point x="419" y="319" type="line"/>
      <point x="419" y="564" type="line"/>
      <point x="637" y="564" type="line"/>
      <point x="644" y="469" type="line"/>
      <point x="663" y="469" type="line"/>
      <point x="669" y="591" type="line"/>
      <point x="389" y="591" type="line"/>
    </contour>
  </outline>
</glyph>
<glyph name="longs" format="2">
  <advance width="209"/>
  <unicode hex="017F"/>
  <outline>
    <contour>
      <point x="102" y="-10" type="curve" smooth="yes"/>
      <point x="109" y="-10"/>
      <point x="144" y="-3"/>
      <point x="169" y="2" type="curve"/>
      <point x="169" y="19" type="line"/>
      <point x="111" y="19" type="line"/>
      <point x="111" y="515" type="line" smooth="yes"/>
      <point x="111" y="586"/>
      <point x="141" y="611"/>
      <point x="145" y="611" type="curve" smooth="yes"/>
      <point x="163" y="611"/>
      <point x="215" y="605"/>
      <point x="249" y="600" type="curve"/>
      <point x="253" y="607"/>
      <point x="259" y="617"/>
      <point x="259" y="619" type="curve" smooth="yes"/>
      <point x="259" y="622"/>
      <point x="253" y="628"/>
      <point x="249" y="631" type="curve"/>
      <point x="221" y="634"/>
      <point x="175" y="637"/>
      <point x="151" y="637" type="curve" smooth="yes"/>
      <point x="112" y="637"/>
      <point x="82" y="580"/>
      <point x="82" y="513" type="curve" smooth="yes"/>
      <point x="82" y="442" type="line"/>
      <point x="35" y="433" type="line"/>
      <point x="35" y="415" type="line"/>
      <point x="82" y="415" type="line"/>
      <point x="82" y="7" type="line" smooth="yes"/>
      <point x="82" y="3"/>
      <point x="99" y="-10"/>
    </contour>
  </outline>
</glyph>
<glyph name="Schwa" format="2">
  <advance width="540"/>
  <unicode hex="018F"/>
  <outline>
    <contour>
      <point x="281" y="-10" type="curve" smooth="yes"/>
      <point x="333" y="-10"/>
      <point x="411" y="48"/>
      <point x="444" y="101" type="curve"/>
      <point x="468" y="149"/>
      <point x="485" y="225"/>
      <point x="485" y="305" type="curve" smooth="yes"/>
      <point x="485" y="488"/>
      <point x="412" y="601"/>
      <point x="265" y="601" type="curve" smooth="yes"/>
      <point x="223" y="601"/>
      <point x="147" y="596"/>
      <point x="77" y="585" type="curve"/>
      <point x="87" y="556" type="line"/>
      <point x="150" y="567"/>
      <point x="212" y="576"/>
      <point x="245" y="576" type="curve" smooth="yes"/>
      <point x="403" y="576"/>
      <point x="455" y="465"/>
      <point x="455" y="295" type="curve" smooth="yes"/>
      <point x="455" y="215"/>
      <point x="435" y="133"/>
      <point x="419" y="110" type="curve"/>
      <point x="387" y="60"/>
      <point x="318" y="20"/>
      <point x="284" y="20" type="curve" smooth="yes"/>
      <point x="192" y="20"/>
      <point x="110" y="58"/>
      <point x="97" y="252" type="curve"/>
      <point x="469" y="282" type="line"/>
      <point x="468" y="303" type="line"/>
      <point x="65" y="273" type="line"/>
      <point x="68" y="102"/>
      <point x="137" y="-10"/>
    </contour>
    <contour>
      <point x="86" y="449" type="line"/>
      <point x="105" y="449" type="line"/>
      <point x="111" y="585" type="line"/>
      <point x="77" y="585" type="line"/>
    </contour>
  </outline>
</glyph>
<glyph name="florin" format="2">
  <advance width="417"/>
  <unicode hex="0192"/>
  <outline>
    <contour>
      <point x="51" y="-175" type="curve" smooth="yes"/>
      <point x="73" y="-175"/>
      <point x="130" y="-108"/>
      <point x="135" y="-80" type="curve" smooth="yes"/>
      <point x="242" y="547" type="line" smooth="yes"/>
      <point x="247" y="574"/>
      <point x="284" y="610"/>
      <point x="289" y="610" type="curve" smooth="yes"/>
      <point x="304" y="610"/>
      <point x="370" y="599"/>
      <point x="390" y="593" type="curve"/>
      <point x="395" y="599"/>
      <point x="401" y="609"/>
      <point x="401" y="612" type="curve" smooth="yes"/>
      <point x="401" y="615"/>
      <point x="395" y="623"/>
      <point x="392" y="625" type="curve"/>
      <point x="369" y="631"/>
      <point x="305" y="637"/>
      <point x="296" y="637" type="curve" smooth="yes"/>
      <point x="274" y="637"/>
      <point x="217" y="570"/>
      <point x="212" y="542" type="curve" smooth="yes"/>
      <point x="105" y="-85" type="line" smooth="yes"/>
      <point x="100" y="-112"/>
      <point x="63" y="-148"/>
      <point x="58" y="-148" type="curve" smooth="yes"/>
      <point x="43" y="-148"/>
      <point x="-23" y="-137"/>
      <point x="-43" y="-131" type="curve"/>
      <point x="-48" y="-137"/>
      <point x="-54" y="-147"/>
      <point x="-54" y="-150" type="curve" smooth="yes"/>
      <point x="-54" y="-153"/>
      <point x="-48" y="-161"/>
      <point x="-45" y="-163" type="curve"/>
      <point x="-22" y="-169"/>
      <point x="42" y="-175"/>
    </contour>
    <contour>
      <point x="335" y="419" type="line"/>
      <point x="339" y="440" type="line"/>
      <point x="195" y="443" type="line"/>
      <point x="142" y="435" type="line"/>
      <point x="140" y="420" type="line"/>
    </contour>
  </outline>
</glyph>
<glyph name="Nhookleft" format="2">
  <advance width="532"/>
  <unicode hex="019D"/>
  <outline>
    <contour>
      <point x="51" y="-129" type="curve" smooth="yes"/>
      <point x="82" y="-129"/>
      <point x="134" y="-67"/>
      <point x="134" y="5" type="curve" smooth="yes"/>
      <point x="131" y="542" type="line"/>
      <point x="137" y="542" type="line"/>
      <point x="146" y="516"/>
      <point x="162" y="478"/>
      <point x="176" y="448" type="curve" smooth="yes"/>
      <point x="385" y="-2" type="line"/>
      <point x="399" y="-10" type="line"/>
      <point x="404" y="-10"/>
      <point x="424" y="-8"/>
      <point x="435" y="-5" type="curve"/>
      <point x="435" y="566" type="line"/>
      <point x="492" y="574" type="line"/>
      <point x="492" y="591" type="line"/>
      <point x="344" y="591" type="line"/>
      <point x="344" y="573" type="line"/>
      <point x="405" y="564" type="line"/>
      <point x="405" y="544" type="line"/>
      <point x="408" y="22" type="line"/>
      <point x="402" y="22" type="line"/>
      <point x="392" y="49"/>
      <point x="373" y="95"/>
      <point x="360" y="123" type="curve" smooth="yes"/>
      <point x="143" y="591" type="line"/>
      <point x="47" y="591" type="line"/>
      <point x="47" y="574" type="line"/>
      <point x="105" y="565" type="line"/>
      <point x="104" y="3" type="line" smooth="yes"/>
      <point x="104" y="-67"/>
      <point x="61" y="-97"/>
      <point x="54" y="-99" type="curve" smooth="yes"/>
      <point x="33" y="-104"/>
      <point x="7" y="-101"/>
      <point x="-15" y="-101" type="curve"/>
      <point x="-15" y="-120" type="line"/>
      <point x="3" y="-123"/>
      <point x="40" y="-129"/>
    </contour>
  </outline>
</glyph>
<glyph name="Uhorn" format="2">
  <advance width="528"/>
  <unicode hex="01AF"/>
  <anchor x="268" y="0" name="bottom"/>
  <anchor x="257" y="591" name="top"/>
  <outline>
    <contour>
      <point x="213" y="-10" type="curve" smooth="yes"/>
      <point x="248" y="-10"/>
      <point x="362" y="34"/>
      <point x="394" y="45" type="curve"/>
      <point x="402" y="0" type="line"/>
      <point x="481" y="0" type="line"/>
      <point x="481" y="20" type="line"/>
      <point x="424" y="25" type="line"/>
      <point x="424" y="591" type="line"/>
      <point x="333" y="591" type="line"/>
      <point x="333" y="571" type="line"/>
      <point x="394" y="564" type="line"/>
      <point x="394" y="71" type="line"/>
      <point x="336" y="50"/>
      <point x="253" y="19"/>
      <point x="206" y="19" type="curve" smooth="yes"/>
      <point x="154" y="19"/>
      <point x="127" y="50"/>
      <point x="127" y="128" type="curve" smooth="yes"/>
      <point x="127" y="564" type="line"/>
      <point x="188" y="571" type="line"/>
      <point x="188" y="591" type="line"/>
      <point x="40" y="591" type="line"/>
      <point x="40" y="571" type="line"/>
      <point x="97" y="566" type="line"/>
      <point x="97" y="136" type="line" smooth="yes"/>
      <point x="97" y="32"/>
      <point x="132" y="-10"/>
    </contour>
    <component base="horncomb.case" xOffset="421" yOffset="42"/>
  </outline>
</glyph>
<glyph name="jdotless" format="2">
  <advance width="162"/>
  <unicode hex="0237"/>
  <anchor x="84" y="440" name="top"/>
  <outline>
    <contour>
      <point x="39" y="-175" type="curve" smooth="yes"/>
      <point x="73" y="-175"/>
      <point x="108" y="-118"/>
      <point x="108" y="-51" type="curve" smooth="yes"/>
      <point x="108" y="433" type="line" smooth="yes"/>
      <point x="108" y="437"/>
      <point x="91" y="450"/>
      <point x="88" y="450" type="curve" smooth="yes"/>
      <point x="81" y="450"/>
      <point x="46" y="443"/>
      <point x="21" y="438" type="curve"/>
      <point x="21" y="421" type="line"/>
      <point x="79" y="421" type="line"/>
      <point x="79" y="-53" type="line" smooth="yes"/>
      <point x="79" y="-116"/>
      <point x="48" y="-149"/>
      <point x="41" y="-149" type="curve" smooth="yes"/>
      <point x="32" y="-149"/>
      <point x="-14" y="-149"/>
      <point x="-27" y="-149" type="curve"/>
      <point x="-27" y="-166" type="line"/>
      <point x="-9" y="-169"/>
      <point x="28" y="-175"/>
    </contour>
  </outline>
</glyph>
<glyph name="schwa" format="2">
  <advance width="404"/>
  <unicode hex="0259"/>
  <outline>
    <contour>
      <point x="195" y="-10" type="curve" smooth="yes"/>
      <point x="214" y="-10"/>
      <point x="279" y="23"/>
      <point x="318" y="80" type="curve"/>
      <point x="337" y="115"/>
      <point x="350" y="171"/>
      <point x="350" y="235" type="curve" smooth="yes"/>
      <point x="350" y="371"/>
      <point x="301" y="450"/>
      <point x="191" y="450" type="curve" smooth="yes"/>
      <point x="162" y="450"/>
      <point x="108" y="439"/>
      <point x="71" y="432" type="curve"/>
      <point x="71" y="414" type="line"/>
      <point x="100" y="417"/>
      <point x="175" y="425"/>
      <point x="183" y="425" type="curve" smooth="yes"/>
      <point x="266" y="425"/>
      <point x="321" y="379"/>
      <point x="321" y="227" type="curve"/>
      <point x="54" y="202" type="line"/>
      <point x="56" y="46"/>
      <point x="104" y="-10"/>
    </contour>
    <contour>
      <point x="191" y="15" type="curve" smooth="yes"/>
      <point x="115" y="15"/>
      <point x="87" y="82"/>
      <point x="84" y="180" type="curve"/>
      <point x="320" y="202" type="line"/>
      <point x="316" y="117"/>
      <point x="291" y="77"/>
      <point x="256" y="48" type="curve" smooth="yes"/>
      <point x="232" y="28"/>
      <point x="206" y="15"/>
    </contour>
  </outline>
</glyph>
<glyph name="nhookleft" format="2">
  <advance width="444"/>
  <unicode hex="0272"/>
  <outline>
    <contour>
      <point x="39" y="-175" type="curve" smooth="yes"/>
      <point x="64" y="-175"/>
      <point x="108" y="-118"/>
      <point x="108" y="-61" type="curve" smooth="yes"/>
      <point x="108" y="342" type="line"/>
      <point x="108" y="342"/>
      <point x="205" y="423"/>
      <point x="216" y="423" type="curve" smooth="yes"/>
      <point x="275" y="423"/>
      <point x="329" y="413"/>
      <point x="329" y="290" type="curve" smooth="yes"/>
      <point x="329" y="7" type="line" smooth="yes"/>
      <point x="329" y="3"/>
      <point x="344" y="-10"/>
      <point x="349" y="-10" type="curve" smooth="yes"/>
      <point x="358" y="-10"/>
      <point x="416" y="2"/>
      <point x="416" y="2" type="curve"/>
      <point x="416" y="19" type="line"/>
      <point x="358" y="19" type="line"/>
      <point x="358" y="276" type="line" smooth="yes"/>
      <point x="358" y="411"/>
      <point x="321" y="450"/>
      <point x="210" y="450" type="curve" smooth="yes"/>
      <point x="205" y="450"/>
      <point x="131" y="394"/>
      <point x="106" y="371" type="curve"/>
      <point x="108" y="433" type="line" smooth="yes"/>
      <point x="108" y="437"/>
      <point x="91" y="450"/>
      <point x="88" y="450" type="curve" smooth="yes"/>
      <point x="79" y="450"/>
      <point x="21" y="438"/>
      <point x="21" y="438" type="curve"/>
      <point x="21" y="421" type="line"/>
      <point x="79" y="421" type="line"/>
      <point x="79" y="-53" type="line" smooth="yes"/>
      <point x="79" y="-116"/>
      <point x="50" y="-146"/>
      <point x="43" y="-147" type="curve" smooth="yes"/>
      <point x="20" y="-150"/>
      <point x="-4" y="-149"/>
      <point x="-27" y="-149" type="curve"/>
      <point x="-27" y="-166" type="line"/>
      <point x="-9" y="-169"/>
      <point x="28" y="-175"/>
    </contour>
  </outline>
</glyph>
<glyph name="primemod" format="2">
  <advance width="86"/>
  <unicode hex="02B9"/>
  <outline>
    <contour>
      <point x="21" y="495" type="line"/>
      <point x="44" y="552"/>
      <point x="68" y="618"/>
      <point x="86" y="671" type="curve" smooth="yes"/>
      <point x="87" y="674"/>
      <point x="80" y="687"/>
      <point x="77" y="687" type="curve" smooth="yes"/>
      <point x="67" y="687"/>
      <point x="56" y="686"/>
      <point x="45" y="682" type="curve"/>
      <point x="0" y="502" type="line"/>
    </contour>
  </outline>
</glyph>
<glyph name="doubleprimemod" format="2">
  <advance width="196"/>
  <unicode hex="02BA"/>
  <outline>
    <contour>
      <point x="131" y="495" type="line"/>
      <point x="154" y="552"/>
      <point x="178" y="618"/>
      <point x="196" y="671" type="curve" smooth="yes"/>
      <point x="197" y="674"/>
      <point x="190" y="687"/>
      <point x="187" y="687" type="curve" smooth="yes"/>
      <point x="177" y="687"/>
      <point x="166" y="686"/>
      <point x="155" y="682" type="curve"/>
      <point x="110" y="502" type="line"/>
    </contour>
    <contour>
      <point x="21" y="495" type="line"/>
      <point x="44" y="552"/>
      <point x="68" y="618"/>
      <point x="86" y="671" type="curve" smooth="yes"/>
      <point x="87" y="674"/>
      <point x="80" y="687"/>
      <point x="77" y="687" type="curve" smooth="yes"/>
      <point x="67" y="687"/>
      <point x="56" y="686"/>
      <point x="45" y="682" type="curve"/>
      <point x="0" y="502" type="line"/>
    </contour>
  </outline>
</glyph>
<glyph name="circumflex" format="2">
  <advance width="204"/>
  <unicode hex="02C6"/>
  <outline>
    <contour>
      <point x="12" y="519" type="line"/>
      <point x="98" y="613" type="line"/>
      <point x="106" y="613" type="line"/>
      <point x="192" y="519" type="line"/>
      <point x="204" y="529" type="line"/>
      <point x="121" y="644" type="line"/>
      <point x="83" y="644" type="line"/>
      <point x="0" y="529" type="line"/>
    </contour>
  </outline>
</glyph>
<glyph name="caron" format="2">
  <advance width="204"/>
  <unicode hex="02C7"/>
  <outline>
    <contour>
      <point x="83" y="519" type="line"/>
      <point x="121" y="519" type="line"/>
      <point x="204" y="634" type="line"/>
      <point x="192" y="644" type="line"/>
      <point x="106" y="550" type="line"/>
      <point x="98" y="550" type="line"/>
      <point x="12" y="644" type="line"/>
      <point x="0" y="634" type="line"/>
    </contour>
  </outline>
</glyph>
<glyph name="breve" format="2">
  <advance width="240"/>
  <unicode hex="02D8"/>
  <guideline x="117" y="582" angle="0"/>
  <outline>
    <contour>
      <point x="121" y="547" type="curve" smooth="yes"/>
      <point x="168" y="547"/>
      <point x="214" y="577"/>
      <point x="240" y="632" type="curve"/>
      <point x="228" y="640" type="line"/>
      <point x="200" y="596"/>
      <point x="161" y="574"/>
      <point x="121" y="574" type="curve" smooth="yes"/>
      <point x="80" y="574"/>
      <point x="39" y="596"/>
      <point x="12" y="640" type="curve"/>
      <point x="0" y="632" type="line"/>
      <point x="26" y="577"/>
      <point x="72" y="547"/>
    </contour>
  </outline>
</glyph>
<glyph name="dotaccent" format="2">
  <advance width="39"/>
  <unicode hex="02D9"/>
  <outline>
    <contour>
      <point x="6" y="535" type="line"/>
      <point x="31" y="535" type="line"/>
      <point x="39" y="596" type="line"/>
      <point x="29" y="607" type="line"/>
      <point x="0" y="604" type="line"/>
    </contour>
  </outline>
</glyph>
<glyph name="ring" format="2">
  <advance width="168"/>
  <unicode hex="02DA"/>
  <outline>
    <contour>
      <point x="84" y="531" type="curve" smooth="yes"/>
      <point x="139" y="531"/>
      <point x="168" y="570"/>
      <point x="168" y="622" type="curve" smooth="yes"/>
      <point x="168" y="679"/>
      <point x="133" y="704"/>
      <point x="84" y="704" type="curve" smooth="yes"/>
      <point x="29" y="704"/>
      <point x="0" y="665"/>
      <point x="0" y="613" type="curve" smooth="yes"/>
      <point x="0" y="556"/>
      <point x="35" y="531"/>
    </contour>
    <contour>
      <point x="83" y="550" type="curve" smooth="yes"/>
      <point x="48" y="550"/>
      <point x="22" y="561"/>
      <point x="22" y="617" type="curve" smooth="yes"/>
      <point x="22" y="641"/>
      <point x="28" y="661"/>
      <point x="40" y="673" type="curve"/>
      <point x="52" y="682"/>
      <point x="66" y="685"/>
      <point x="85" y="685" type="curve" smooth="yes"/>
      <point x="120" y="685"/>
      <point x="146" y="674"/>
      <point x="146" y="618" type="curve" smooth="yes"/>
      <point x="146" y="594"/>
      <point x="140" y="574"/>
      <point x="128" y="562" type="curve"/>
      <point x="116" y="553"/>
      <point x="102" y="550"/>
    </contour>
  </outline>
</glyph>
<glyph name="ogonek" format="2">
  <advance width="135"/>
  <unicode hex="02DB"/>
  <anchor x="114" y="0" name="_ogonek"/>
  <outline>
    <contour>
      <point x="56" y="-213" type="curve" smooth="yes"/>
      <point x="64" y="-213"/>
      <point x="104" y="-208"/>
      <point x="134" y="-204" type="curve"/>
      <point x="134" y="-189" type="line"/>
      <point x="60" y="-190" type="line" smooth="yes"/>
      <point x="37" y="-190"/>
      <point x="25" y="-148"/>
      <point x="29" y="-110" type="curve" smooth="yes"/>
      <point x="30" y="-101"/>
      <point x="94" y="-40"/>
      <point x="135" y="0" type="curve"/>
      <point x="126" y="10" type="line"/>
      <point x="90" y="-18"/>
      <point x="35" y="-62"/>
      <point x="5" y="-90" type="curve"/>
      <point x="2" y="-101"/>
      <point x="0" y="-113"/>
      <point x="0" y="-125" type="curve" smooth="yes"/>
      <point x="0" y="-168"/>
      <point x="21" y="-213"/>
    </contour>
  </outline>
</glyph>
<glyph name="tilde" format="2">
  <advance width="252"/>
  <unicode hex="02DC"/>
  <anchor x="124" y="440" name="_top"/>
  <outline>
    <contour>
      <point x="196" y="566" type="curve" smooth="yes"/>
      <point x="210" y="566"/>
      <point x="236" y="588"/>
      <point x="252" y="605" type="curve"/>
      <point x="241" y="617" type="line"/>
      <point x="223" y="602"/>
      <point x="211" y="593"/>
      <point x="192" y="593" type="curve" smooth="yes"/>
      <point x="159" y="593"/>
      <point x="99" y="619"/>
      <point x="56" y="619" type="curve" smooth="yes"/>
      <point x="42" y="619"/>
      <point x="16" y="598"/>
      <point x="0" y="580" type="curve"/>
      <point x="11" y="568" type="line"/>
      <point x="29" y="583"/>
      <point x="41" y="592"/>
      <point x="60" y="592" type="curve" smooth="yes"/>
      <point x="93" y="592"/>
      <point x="153" y="566"/>
    </contour>
  </outline>
</glyph>
<glyph name="hungarumlaut" format="2">
  <advance width="248"/>
  <unicode hex="02DD"/>
  <outline>
    <contour>
      <point x="10" y="536" type="line"/>
      <point x="129" y="620" type="line"/>
      <point x="128" y="634" type="line"/>
      <point x="111" y="648" type="line"/>
      <point x="0" y="548" type="line"/>
    </contour>
    <contour>
      <point x="129" y="536" type="line"/>
      <point x="248" y="620" type="line"/>
      <point x="247" y="634" type="line"/>
      <point x="230" y="648" type="line"/>
      <point x="119" y="548" type="line"/>
    </contour>
  </outline>
</glyph>
<glyph name="hookabovecomb" format="2">
  <unicode hex="0309"/>
  <anchor x="56" y="440" name="_top"/>
  <anchor x="56" y="678" name="top"/>
  <outline>
    <contour>
      <point x="34" y="520" type="line"/>
      <point x="97" y="553"/>
      <point x="108" y="593"/>
      <point x="111" y="603" type="curve"/>
      <point x="112" y="607"/>
      <point x="113" y="615"/>
      <point x="113" y="619" type="curve" smooth="yes"/>
      <point x="113" y="658"/>
      <point x="83" y="678"/>
      <point x="44" y="678" type="curve" smooth="yes"/>
      <point x="30" y="678"/>
      <point x="16" y="676"/>
      <point x="0" y="671" type="curve"/>
      <point x="5" y="651" type="line"/>
      <point x="15" y="654"/>
      <point x="25" y="656"/>
      <point x="35" y="656" type="curve" smooth="yes"/>
      <point x="62" y="656"/>
      <point x="86" y="644"/>
      <point x="86" y="614" type="curve" smooth="yes"/>
      <point x="86" y="589"/>
      <point x="66" y="559"/>
      <point x="25" y="535" type="curve"/>
    </contour>
  </outline>
</glyph>
<glyph name="dblgravecomb" format="2">
  <unicode hex="030F"/>
  <anchor x="158" y="440" name="_top"/>
  <anchor x="158" y="650" name="top"/>
  <outline>
    <contour>
      <point x="238" y="538" type="line"/>
      <point x="248" y="550" type="line"/>
      <point x="137" y="650" type="line"/>
      <point x="120" y="636" type="line"/>
      <point x="119" y="622" type="line"/>
    </contour>
    <contour>
      <point x="119" y="538" type="line"/>
      <point x="129" y="550" type="line"/>
      <point x="18" y="650" type="line"/>
      <point x="1" y="636" type="line"/>
      <point x="0" y="622" type="line"/>
    </contour>
  </outline>
</glyph>
<glyph name="breveinvertedcomb" format="2">
  <unicode hex="0311"/>
  <anchor x="121" y="440" name="_top"/>
  <anchor x="120" y="620" name="top"/>
  <outline>
    <contour>
      <point x="12" y="547" type="line"/>
      <point x="40" y="591"/>
      <point x="78" y="613"/>
      <point x="119" y="613" type="curve" smooth="yes"/>
      <point x="156" y="613"/>
      <point x="197" y="591"/>
      <point x="228" y="547" type="curve"/>
      <point x="240" y="555" type="line"/>
      <point x="214" y="610"/>
      <point x="168" y="640"/>
      <point x="119" y="640" type="curve" smooth="yes"/>
      <point x="72" y="640"/>
      <point x="26" y="610"/>
      <point x="0" y="555" type="curve"/>
    </contour>
  </outline>
</glyph>
<glyph name="commaturnedabovecomb" format="2">
  <unicode hex="0312"/>
  <anchor x="22" y="440" name="_top"/>
  <anchor x="24" y="671" name="top"/>
  <outline>
    <contour>
      <point x="12" y="524" type="curve" smooth="yes"/>
      <point x="17" y="524"/>
      <point x="31" y="526"/>
      <point x="38" y="529" type="curve"/>
      <point x="40" y="586" type="line" smooth="yes"/>
      <point x="40" y="590"/>
      <point x="31" y="595"/>
      <point x="28" y="598" type="curve"/>
      <point x="32" y="620"/>
      <point x="41" y="645"/>
      <point x="48" y="663" type="curve"/>
      <point x="34" y="671" type="line"/>
      <point x="14" y="636"/>
      <point x="0" y="592"/>
      <point x="0" y="564" type="curve" smooth="yes"/>
      <point x="0" y="535" type="line"/>
      <point x="0" y="531"/>
      <point x="9" y="524"/>
    </contour>
  </outline>
</glyph>
<glyph name="commaabovecomb" format="2">
  <unicode hex="0313"/>
  <anchor x="24" y="440" name="_top"/>
  <anchor x="24" y="671" name="top"/>
  <outline>
    <contour>
      <point x="14" y="524" type="line"/>
      <point x="34" y="559"/>
      <point x="48" y="603"/>
      <point x="48" y="631" type="curve" smooth="yes"/>
      <point x="48" y="660" type="line"/>
      <point x="48" y="664"/>
      <point x="39" y="671"/>
      <point x="36" y="671" type="curve" smooth="yes"/>
      <point x="31" y="671"/>
      <point x="17" y="669"/>
      <point x="10" y="666" type="curve"/>
      <point x="8" y="609" type="line" smooth="yes"/>
      <point x="8" y="605"/>
      <point x="17" y="600"/>
      <point x="20" y="597" type="curve"/>
      <point x="16" y="575"/>
      <point x="7" y="550"/>
      <point x="0" y="532" type="curve"/>
    </contour>
  </outline>
</glyph>
<glyph name="horncomb" format="2">
  <unicode hex="031B"/>
  <anchor x="0" y="421" name="_topright"/>
  <outline>
    <contour>
      <point x="2" y="406" type="line"/>
      <point x="49" y="406"/>
      <point x="108" y="441"/>
      <point x="120" y="510" type="curve"/>
      <point x="99" y="518" type="line"/>
      <point x="89" y="456"/>
      <point x="40" y="421"/>
      <point x="0" y="421" type="curve"/>
    </contour>
  </outline>
</glyph>
<glyph name="dotbelowcomb" format="2">
  <unicode hex="0323"/>
  <anchor x="20" y="0" name="_bottom"/>
  <anchor x="20" y="-154" name="bottom"/>
  <outline>
    <contour>
      <point x="6" y="-154" type="line"/>
      <point x="31" y="-154" type="line"/>
      <point x="39" y="-93" type="line"/>
      <point x="29" y="-82" type="line"/>
      <point x="0" y="-85" type="line"/>
    </contour>
  </outline>
</glyph>
<glyph name="brevebelowcomb" format="2">
  <unicode hex="032E"/>
  <anchor x="120" y="0" name="_bottom"/>
  <anchor x="120" y="-164" name="bottom"/>
  <outline>
    <contour>
      <point x="121" y="-164" type="curve" smooth="yes"/>
      <point x="168" y="-164"/>
      <point x="214" y="-134"/>
      <point x="240" y="-79" type="curve"/>
      <point x="228" y="-71" type="line"/>
      <point x="200" y="-115"/>
      <point x="162" y="-137"/>
      <point x="121" y="-137" type="curve" smooth="yes"/>
      <point x="84" y="-137"/>
      <point x="43" y="-115"/>
      <point x="12" y="-71" type="curve"/>
      <point x="0" y="-79" type="line"/>
      <point x="26" y="-134"/>
      <point x="72" y="-164"/>
    </contour>
  </outline>
</glyph>
<glyph name="strokeshortcomb" format="2">
  <unicode hex="0335"/>
  <anchor x="99" y="308" name="_center"/>
  <outline>
    <contour>
      <point x="0" y="298" type="line"/>
      <point x="198" y="298" type="line"/>
      <point x="198" y="318" type="line"/>
      <point x="0" y="318" type="line"/>
    </contour>
  </outline>
</glyph>
<glyph name="strokelongcomb" format="2">
  <unicode hex="0336"/>
  <anchor x="213" y="308" name="_center"/>
  <outline>
    <contour>
      <point x="0" y="298" type="line"/>
      <point x="427" y="298" type="line"/>
      <point x="427" y="318" type="line"/>
      <point x="0" y="318" type="line"/>
    </contour>
  </outline>
</glyph>
<glyph name="slashshortcomb" format="2">
  <unicode hex="0337"/>
  <anchor x="91" y="320" name="_center"/>
  <outline>
    <contour>
      <point x="10" y="248" type="line"/>
      <point x="181" y="371" type="line"/>
      <point x="182" y="389" type="line"/>
      <point x="173" y="392" type="line"/>
      <point x="1" y="268" type="line"/>
      <point x="0" y="251" type="line"/>
    </contour>
  </outline>
</glyph>
<glyph name="slashlongcomb" format="2">
  <unicode hex="0338"/>
  <anchor x="146" y="222" name="_center"/>
  <outline>
    <contour>
      <point x="17" y="-79" type="line"/>
      <point x="291" y="505" type="line"/>
      <point x="289" y="516" type="line"/>
      <point x="274" y="522" type="line"/>
      <point x="0" y="-62" type="line"/>
      <point x="3" y="-73" type="line"/>
    </contour>
  </outline>
</glyph>
<glyph name="Delta" format="2">
  <advance width="516"/>
  <unicode hex="0394"/>
  <outline>
    <contour>
      <point x="500" y="0" type="line"/>
      <point x="317" y="603" type="line"/>
      <point x="296" y="580" type="line"/>
      <point x="463" y="18" type="line"/>
    </contour>
    <contour>
      <point x="16" y="0" type="line"/>
      <point x="500" y="0" type="line"/>
      <point x="472" y="30" type="line"/>
      <point x="44" y="30" type="line"/>
    </contour>
    <contour>
      <point x="16" y="0" type="line"/>
      <point x="55" y="22" type="line"/>
      <point x="220" y="580" type="line"/>
      <point x="199" y="603" type="line"/>
    </contour>
    <contour>
      <point x="200" y="574" type="line"/>
      <point x="318" y="574" type="line"/>
      <point x="317" y="603" type="line"/>
      <point x="199" y="603" type="line"/>
    </contour>
  </outline>
</glyph>
<glyph name="Omega" format="2">
  <advance width="582"/>
  <unicode hex="03A9"/>
  <outline>
    <contour>
      <point x="247" y="0" type="curve"/>
      <point x="258" y="22" type="line"/>
      <point x="160" y="100"/>
      <point x="101" y="216"/>
      <point x="101" y="364" type="curve" smooth="yes"/>
      <point x="101" y="425"/>
      <point x="122" y="488"/>
      <point x="151" y="518" type="curve"/>
      <point x="185" y="556"/>
      <point x="236" y="576"/>
      <point x="296" y="576" type="curve" smooth="yes"/>
      <point x="420" y="576"/>
      <point x="484" y="491"/>
      <point x="484" y="362" type="curve" smooth="yes"/>
      <point x="484" y="216"/>
      <point x="417" y="100"/>
      <point x="324" y="22" type="curve"/>
      <point x="335" y="0" type="line"/>
      <point x="438" y="77"/>
      <point x="515" y="213"/>
      <point x="515" y="359" type="curve" smooth="yes"/>
      <point x="515" y="500"/>
      <point x="442" y="600"/>
      <point x="296" y="600" type="curve" smooth="yes"/>
      <point x="148" y="600"/>
      <point x="73" y="488"/>
      <point x="73" y="359" type="curve" smooth="yes"/>
      <point x="73" y="213"/>
      <point x="139" y="77"/>
    </contour>
    <contour>
      <point x="51" y="0" type="line"/>
      <point x="82" y="0" type="line"/>
      <point x="67" y="144" type="line"/>
      <point x="50" y="144" type="line"/>
    </contour>
    <contour>
      <point x="51" y="0" type="line"/>
      <point x="247" y="0" type="line"/>
      <point x="235" y="24" type="line"/>
      <point x="72" y="24" type="line"/>
    </contour>
    <contour>
      <point x="335" y="0" type="line"/>
      <point x="531" y="0" type="line"/>
      <point x="510" y="24" type="line"/>
      <point x="347" y="24" type="line"/>
    </contour>
    <contour>
      <point x="500" y="0" type="line"/>
      <point x="531" y="0" type="line"/>
      <point x="532" y="144" type="line"/>
      <point x="515" y="144" type="line"/>
    </contour>
  </outline>
</glyph>
<glyph name="mu" format="2">
  <advance width="473"/>
  <unicode hex="03BC"/>
  <outline>
    <contour>
      <point x="220" y="-9" type="curve" smooth="yes"/>
      <point x="225" y="-9"/>
      <point x="298" y="18"/>
      <point x="350" y="46" type="curve"/>
      <point x="346" y="64" type="line"/>
      <point x="295" y="35"/>
      <point x="249" y="22"/>
      <point x="213" y="22" type="curve" smooth="yes"/>
      <point x="162" y="22"/>
      <point x="130" y="51"/>
      <point x="130" y="105" type="curve" smooth="yes"/>
      <point x="130" y="432" type="line"/>
      <point x="130" y="435"/>
      <point x="111" y="449"/>
      <point x="108" y="449" type="curve" smooth="yes"/>
      <point x="99" y="449"/>
      <point x="66" y="442"/>
      <point x="43" y="437" type="curve"/>
      <point x="44" y="422" type="line"/>
      <point x="100" y="418" type="line"/>
      <point x="100" y="131" type="line" smooth="yes"/>
      <point x="100" y="45"/>
      <point x="137" y="-9"/>
    </contour>
    <contour>
      <point x="194" y="-219" type="curve" smooth="yes"/>
      <point x="209" y="-219"/>
      <point x="235" y="-216"/>
      <point x="268" y="-208" type="curve"/>
      <point x="266" y="-193" type="line"/>
      <point x="231" y="-193"/>
      <point x="192" y="-197"/>
      <point x="175" y="-180" type="curve" smooth="yes"/>
      <point x="155" y="-161"/>
      <point x="126" y="-131"/>
      <point x="126" y="-63" type="curve" smooth="yes"/>
      <point x="126" y="131" type="line"/>
      <point x="100" y="131" type="line"/>
      <point x="100" y="-80" type="line" smooth="yes"/>
      <point x="100" y="-143"/>
      <point x="169" y="-219"/>
    </contour>
    <contour>
      <point x="382" y="-9" type="curve" smooth="yes"/>
      <point x="390" y="-9"/>
      <point x="410" y="-6"/>
      <point x="431" y="-2" type="curve"/>
      <point x="428" y="13" type="line"/>
      <point x="385" y="13"/>
      <point x="371" y="24"/>
      <point x="371" y="61" type="curve" smooth="yes"/>
      <point x="371" y="432" type="line"/>
      <point x="371" y="436"/>
      <point x="351" y="449"/>
      <point x="348" y="449" type="curve" smooth="yes"/>
      <point x="340" y="449"/>
      <point x="301" y="441"/>
      <point x="283" y="437" type="curve"/>
      <point x="284" y="422" type="line"/>
      <point x="341" y="418" type="line"/>
      <point x="342" y="54" type="line" smooth="yes"/>
      <point x="342" y="21"/>
      <point x="369" y="-9"/>
    </contour>
  </outline>
</glyph>
